SplineFontDB: 3.2
FontName: Ductus
FullName: Ductus
FamilyName: Ductus
Weight: Monospace
Copyright: Free license
UComments: "2020-7-11: Created with FontForge (http://fontforge.org)"
Version: 001.000
ItalicAngle: 0
UnderlinePosition: -100
UnderlineWidth: 50
Ascent: 800
Descent: 200
InvalidEm: 0
LayerCount: 2
Layer: 0 0 "Back" 1
Layer: 1 0 "Fore" 0
XUID: [1021 873 1783088811 11819945]
StyleMap: 0x0000
FSType: 0
OS2Version: 0
OS2_WeightWidthSlopeOnly: 0
OS2_UseTypoMetrics: 1
CreationTime: 1594478703
ModificationTime: 1594641344
OS2TypoAscent: 0
OS2TypoAOffset: 1
OS2TypoDescent: 0
OS2TypoDOffset: 1
OS2TypoLinegap: 90
OS2WinAscent: 0
OS2WinAOffset: 1
OS2WinDescent: 0
OS2WinDOffset: 1
HheadAscent: 0
HheadAOffset: 1
HheadDescent: 0
HheadDOffset: 1
MarkAttachClasses: 1
DEI: 91125
Encoding: ISO8859-1
UnicodeInterp: none
NameList: AGL For New Fonts
DisplaySize: -48
AntiAlias: 1
FitToEm: 0
WinInfo: 0 30 11
BeginPrivate: 0
EndPrivate
Grid
-1000 838.691711426 m 0
 2000 838.691711426 l 1024
-1000 578.730712891 m 0
 2000 578.730712891 l 1024
  Named: "x"
-1000 -5.26926040649 m 0
 2000 -5.26926040649 l 1024
EndSplineSet
BeginChars: 256 256

StartChar: D
Encoding: 68 68 0
Width: 700
VWidth: 0
Flags: HW
LayerCount: 2
Fore
SplineSet
118.07421875 803.038085938 m 0
 118.667244415 803.038085938 119.57421875 802.131112393 119.57421875 801.538085938 c 2
 119.57421875 28.45703125 l 2
 119.57421875 27.8640055839 118.667245206 26.95703125 118.07421875 26.95703125 c 0
 117.480378972 26.95703125 116.57421875 27.8631781263 116.57421875 28.45703125 c 2
 116.57421875 801.538085938 l 2
 116.57421875 802.131938248 117.480378122 803.038085938 118.07421875 803.038085938 c 0
219.658153727 801.641155404 m 0
 219.698983728 802.232693255 220.665131358 803.075140501 221.25801443 803.034184352 c 0
 425.188440385 788.957306082 583.42578125 619.414924949 583.42578125 415 c 0
 583.42578125 210.578961575 425.188990305 41.0423450082 221.258413396 26.9608255176 c 0
 220.665586523 26.9198754027 219.69888964 27.7628409107 219.658091142 28.3538912911 c 0
 219.617286603 28.9446106927 220.459427737 29.9123241961 221.051529084 29.9531952388 c 0
 423.409135189 43.9274610765 580.42578125 212.154880249 580.42578125 415 c 0
 580.42578125 617.840100538 423.409805307 786.071868978 221.051414977 800.041997249 c 0
 220.457574872 800.08298616 219.617354723 801.050485112 219.658153727 801.641155404 c 0
EndSplineSet
EndChar

StartChar: Z
Encoding: 90 90 1
Width: 700
VWidth: 0
Flags: HW
LayerCount: 2
Fore
SplineSet
582.698208964 802.286527924 m 0
 583.20787346 801.980722997 583.518056056 800.737171152 583.212606045 800.228067061 c 2
 119.358943679 27.1461166375 l 2
 119.054722109 26.6390083808 117.810407331 26.3272724405 117.302417199 26.6320416833 c 0
 116.792752704 26.9378466097 116.481943944 28.1817741595 116.787393955 28.6908782524 c 2
 580.641056321 801.772828675 l 2
 580.945277903 802.279936952 582.187926018 802.592672744 582.698208964 802.286527924 c 0
116.57421875 801 m 0
 116.57421875 801.593852311 117.480378121 802.5 118.07421875 802.5 c 2
 478.85546875 802.5 l 2
 479.448494416 802.5 480.35546875 801.593026456 480.35546875 801 c 0
 480.35546875 800.406974334 479.448495206 799.5 478.85546875 799.5 c 2
 118.07421875 799.5 l 2
 117.480378972 799.5 116.57421875 800.406146876 116.57421875 801 c 0
219.654296875 27.9189453125 m 0
 219.654296875 28.5119709786 220.561270419 29.4189453125 221.154296875 29.4189453125 c 2
 581.92578125 29.4189453125 l 2
 582.519621028 29.4189453125 583.42578125 28.5127984366 583.42578125 27.9189453125 c 0
 583.42578125 27.3250930009 582.519621879 26.4189453125 581.92578125 26.4189453125 c 2
 221.154296875 26.4189453125 l 2
 220.561271209 26.4189453125 219.654296875 27.3259188568 219.654296875 27.9189453125 c 0
EndSplineSet
EndChar

StartChar: Q
Encoding: 81 81 2
Width: 700
VWidth: 0
Flags: HW
LayerCount: 2
Fore
SplineSet
118.07421875 465.418945312 m 0
 118.667244417 465.418945312 119.57421875 464.511971769 119.57421875 463.918945312 c 2
 119.57421875 257.766601562 l 2
 119.57421875 130.508938384 222.738883151 27.3427734375 349.998046875 27.3427734375 c 0
 477.259260997 27.3427734375 580.42578125 130.508148774 580.42578125 257.766601562 c 0
 580.42578125 258.359627229 581.332754793 259.266601562 581.92578125 259.266601562 c 0
 582.519621029 259.266601562 583.42578125 258.360454687 583.42578125 257.766601562 c 0
 583.42578125 128.852547764 478.915440102 24.3427734375 349.998046875 24.3427734375 c 0
 221.083774771 24.3427734375 116.57421875 128.853484576 116.57421875 257.766601562 c 2
 116.57421875 463.918945312 l 2
 116.57421875 464.512797624 117.48037812 465.418945312 118.07421875 465.418945312 c 0
118.07421875 565.5 m 0
 117.480378972 565.5 116.57421875 566.406146876 116.57421875 567 c 0
 116.57421875 695.919049875 221.084401079 800.423828125 349.998046875 800.423828125 c 0
 478.916169723 800.423828125 583.42578125 695.91756728 583.42578125 567 c 2
 583.42578125 360.84765625 l 2
 583.42578125 360.253803938 582.519621879 359.34765625 581.92578125 359.34765625 c 0
 581.332755584 359.34765625 580.42578125 360.254629794 580.42578125 360.84765625 c 2
 580.42578125 567 l 2
 580.42578125 694.26183332 477.261057563 797.423828125 349.998046875 797.423828125 c 0
 222.740953015 797.423828125 119.57421875 694.263186569 119.57421875 567 c 0
 119.57421875 566.406974334 118.667245206 565.5 118.07421875 565.5 c 0
117.198001118 465.13594065 m 0
 117.67904475 465.482325613 118.943543093 465.278079214 119.291149528 464.79525266 c 2
 583.143584236 -179.444239932 l 2
 583.48992172 -179.925217627 583.284067492 -181.189951249 582.802975426 -181.536331324 c 0
 582.320718564 -181.883558755 581.055336967 -181.676914238 580.708850472 -181.195643285 c 2
 116.856415763 463.043849308 l 2
 116.51019036 463.52467135 116.716842054 464.789534709 117.198001118 465.13594065 c 0
EndSplineSet
EndChar

StartChar: l
Encoding: 108 108 3
Width: 700
VWidth: 0
Flags: HW
LayerCount: 2
Fore
SplineSet
582.889634509 113.311598305 m 0
 583.344361972 112.930061465 583.457072049 111.65229173 583.075175247 111.197166388 c 0
 522.375386022 38.8575522887 429.883851265 -7.81098565226 349.312662013 33.5176760561 c 0
 184.563427015 118.032205675 276.443999798 281.274042003 357.416471081 439.097264135 c 0
 432.819695733 586.07018465 498.854977813 721.891507716 349.312318698 798.604290602 c 0
 270.598039112 838.979304562 179.576392972 793.591536674 119.223434843 721.664915035 c 0
 118.840987447 721.209164703 117.564541337 721.098317218 117.110365446 721.479417333 c 0
 116.654639985 721.861817696 116.543710929 723.138680446 116.924849749 723.592902465 c 0
 177.62411945 795.932073198 270.111686082 842.600905564 350.681611136 801.273271586 c 0
 503.771851847 722.740562901 435.472364083 584.668936844 360.084500309 437.726944535 c 0
 356.308630584 430.367165429 352.553723415 423.063407204 348.83646919 415.817795556 c 0
 271.931177603 265.917370118 196.097419103 115.488107465 350.683183007 36.1870287102 c 0
 429.395235715 -4.18887853683 520.423483366 41.1991165393 580.776292333 113.125962679 c 0
 581.158762393 113.581771201 582.437356651 113.691131739 582.889634509 113.311598305 c 0
EndSplineSet
EndChar

StartChar: three
Encoding: 51 51 4
Width: 700
VWidth: 0
Flags: HW
LayerCount: 2
Fore
SplineSet
142.957333246 619.660024308 m 0
 142.377105617 619.793109477 141.697704076 620.881153803 141.829859343 621.457327222 c 0
 164.529246156 720.428781505 248.20136504 793.639981762 349.306249103 802.991694503 c 0
 466.36484708 813.820629975 574.262769819 735.392454118 582.869153857 621.234628279 c 0
 587.56911257 558.839048698 557.606583879 498.909639329 504.872183897 465.230058293 c 0
 504.370651062 464.909778339 503.117896858 465.187333249 502.799598187 465.685666508 c 0
 502.479742524 466.186486171 502.756138661 467.437843359 503.256590642 467.757433078 c 0
 555.060937723 500.844651175 584.494409932 559.712130461 579.877771107 621.011441194 c 0
 571.416980404 733.245783854 465.234792707 810.703397068 349.583850092 800.004440942 c 0
 249.769664031 790.772165294 167.163125344 718.495300979 144.754223758 620.788220406 c 0
 144.621202649 620.208272068 143.534594137 619.527650648 142.957333246 619.660024308 c 0
244.868164062 414.959960938 m 0
 244.868164062 415.552986602 245.775137608 416.459960938 246.368164062 416.459960938 c 2
 373.478515625 416.459960938 l 2
 374.441143305 416.459960938 375.781765532 416.533714547 376.497279109 416.600463615 c 0
 392.615421225 418.104098185 401.398244315 417.933490193 414.78899551 416.558730953 c 0
 516.09385478 406.154425614 594.179727349 314.77690073 582.864932747 208.648942877 c 0
 570.910363695 96.5644183465 464.993346479 21.41802755 349.373885776 26.9184834396 c 0
 241.098554087 32.0610372982 147.735080663 104.693091146 116.085943116 208.369566676 c 0
 115.912360852 208.938203604 116.513526015 210.068528889 117.084015313 210.242657526 c 0
 117.649588372 210.415335503 118.782248749 209.812796412 118.955105531 209.246536086 c 0
 150.234400114 106.780190382 242.509606156 34.9973709859 349.514181337 29.9156225236 c 0
 463.866100086 24.475429713 568.126228774 98.7531515515 579.882302964 208.9678426 c 0
 591.016734167 313.410393352 514.167594252 403.336408181 414.482562421 413.574073993 c 0
 401.781112283 414.878579274 388.693830259 414.889223868 375.379445348 413.468850502 c 0
 375.272922832 413.457482874 375.307374121 413.459960938 375.220703125 413.459960938 c 2
 246.368164062 413.459960938 l 2
 245.775138396 413.459960938 244.868164062 414.366934482 244.868164062 414.959960938 c 0
EndSplineSet
EndChar

StartChar: percent
Encoding: 37 37 5
Width: 700
VWidth: 0
Flags: HW
LayerCount: 2
Fore
SplineSet
374.2734375 122.928710938 m 0
 374.2734375 180.67972578 421.093543785 227.5 478.85546875 227.5 c 0
 536.606172752 227.5 583.42578125 180.680625462 583.42578125 122.928710938 c 0
 583.42578125 65.1675792333 536.606317342 18.34765625 478.85546875 18.34765625 c 0
 421.09309047 18.34765625 374.2734375 65.1676464242 374.2734375 122.928710938 c 0
377.2734375 122.928710938 m 0
 377.2734375 66.8250982401 422.752291542 21.34765625 478.85546875 21.34765625 c 0
 534.949120397 21.34765625 580.42578125 66.8255361679 580.42578125 122.928710938 c 0
 580.42578125 179.022545265 534.949507648 224.5 478.85546875 224.5 c 0
 422.751673282 224.5 377.2734375 179.022752172 377.2734375 122.928710938 c 0
117.301791037 18.5611283255 m 0
 116.792126543 18.8669332519 116.481943944 20.110485097 116.787393955 20.6195891899 c 2
 580.641056321 793.701539613 l 2
 580.945277891 794.20864787 582.189592669 794.52038381 582.697582801 794.215614567 c 0
 583.207247295 793.909809641 583.518056056 792.665882089 583.212606045 792.156777998 c 2
 119.358943679 19.074827575 l 2
 119.054722097 18.5677192976 117.812073982 18.2549835065 117.301791037 18.5611283255 c 0
116.57421875 689.857421875 m 0
 116.57421875 747.614263274 163.393451326 794.428710938 221.154296875 794.428710938 c 0
 278.906469201 794.428710938 325.7265625 747.613392478 325.7265625 689.857421875 c 0
 325.7265625 632.096707443 278.9065221 585.276367188 221.154296875 585.276367188 c 0
 163.39329518 585.276367188 116.57421875 632.095940102 116.57421875 689.857421875 c 0
119.57421875 689.857421875 m 0
 119.57421875 633.754636948 165.051302209 588.276367188 221.154296875 588.276367188 c 0
 277.248131494 588.276367188 322.7265625 633.753418829 322.7265625 689.857421875 c 0
 322.7265625 745.956554395 277.248595814 791.428710938 221.154296875 791.428710938 c 0
 165.051258408 791.428710938 119.57421875 745.954459134 119.57421875 689.857421875 c 0
EndSplineSet
EndChar

StartChar: O
Encoding: 79 79 6
Width: 700
VWidth: 0
Flags: HW
LayerCount: 2
Fore
SplineSet
118.07421875 465.418945312 m 0
 118.667244417 465.418945312 119.57421875 464.511971769 119.57421875 463.918945312 c 2
 119.57421875 257.766601562 l 2
 119.57421875 130.508938384 222.738883151 27.3427734375 349.998046875 27.3427734375 c 0
 477.259260997 27.3427734375 580.42578125 130.508148774 580.42578125 257.766601562 c 0
 580.42578125 258.359627229 581.332754793 259.266601562 581.92578125 259.266601562 c 0
 582.519621029 259.266601562 583.42578125 258.360454687 583.42578125 257.766601562 c 0
 583.42578125 128.852547764 478.915440102 24.3427734375 349.998046875 24.3427734375 c 0
 221.083774771 24.3427734375 116.57421875 128.853484576 116.57421875 257.766601562 c 2
 116.57421875 463.918945312 l 2
 116.57421875 464.512797624 117.48037812 465.418945312 118.07421875 465.418945312 c 0
118.07421875 565.5 m 0
 117.480378972 565.5 116.57421875 566.406146876 116.57421875 567 c 0
 116.57421875 695.919049875 221.084401079 800.423828125 349.998046875 800.423828125 c 0
 478.916169723 800.423828125 583.42578125 695.91756728 583.42578125 567 c 2
 583.42578125 360.84765625 l 2
 583.42578125 360.253803938 582.519621879 359.34765625 581.92578125 359.34765625 c 0
 581.332755584 359.34765625 580.42578125 360.254629794 580.42578125 360.84765625 c 2
 580.42578125 567 l 2
 580.42578125 694.26183332 477.261057563 797.423828125 349.998046875 797.423828125 c 0
 222.740953015 797.423828125 119.57421875 694.263186569 119.57421875 567 c 0
 119.57421875 566.406974334 118.667245206 565.5 118.07421875 565.5 c 0
EndSplineSet
EndChar

StartChar: semicolon
Encoding: 59 59 7
Width: 700
VWidth: 0
Flags: HW
LayerCount: 2
Fore
SplineSet
323.330623158 -92.8041197015 m 0
 322.857314479 -92.4491459426 322.673734789 -91.1810619106 323.031610328 -90.7039466183 c 0
 348.714114715 -56.4628617711 364.914671172 -16.2082749646 371.247524401 23.9356312583 c 0
 374.663137715 45.5871768746 354.963312169 61.5 339.14453125 61.5 c 2
 324.23046875 61.5 l 2
 323.637443084 61.5 322.73046875 62.4069735443 322.73046875 63 c 0
 322.73046875 63.5930256661 323.637442294 64.5 324.23046875 64.5 c 2
 375.306490565 64.5 l 2
 376.170308167 64.204262678 377.151048449 63.3279586959 377.263731513 63.1686520938 c 0
 377.272930988 63.0156821797 377.26953125 63.0788541294 377.26953125 63 c 0
 377.26953125 6.92316483544 359.07868041 -47.6430303184 325.428665683 -92.506245309 c 0
 325.074288789 -92.9787994216 323.806055499 -93.1607328885 323.330623158 -92.8041197015 c 0
375.76953125 396.509765625 m 0
 375.175691472 396.509765625 374.26953125 397.415912501 374.26953125 398.009765625 c 2
 374.26953125 423.78125 l 2
 374.26953125 424.375102312 375.175690621 425.28125 375.76953125 425.28125 c 0
 376.362556916 425.28125 377.26953125 424.374276456 377.26953125 423.78125 c 2
 377.26953125 398.009765625 l 2
 377.26953125 397.416739959 376.362557706 396.509765625 375.76953125 396.509765625 c 0
EndSplineSet
EndChar

StartChar: k
Encoding: 107 107 8
Width: 700
VWidth: 0
Flags: HW
LayerCount: 2
Fore
SplineSet
118.106445312 27.7998046875 m 0
 117.513419647 27.7998046875 116.606445312 28.7067782315 116.606445312 29.2998046875 c 2
 116.606445312 802.380859375 l 2
 116.606445312 802.973885041 117.513418857 803.880859375 118.106445312 803.880859375 c 0
 118.700297624 803.880859375 119.606445312 802.974700004 119.606445312 802.380859375 c 2
 119.606445312 29.2998046875 l 2
 119.606445312 28.7067790205 118.699471769 27.7998046875 118.106445312 27.7998046875 c 0
583.179696274 545.567685967 m 0
 583.525197874 545.083965036 583.313656853 543.820729527 582.830348037 543.475553408 c 2
 260.7922621 313.446256533 l 2
 245.590526611 302.587775259 242.782269878 280.395929598 254.799963657 266.092978375 c 0
 256.46883551 264.106757628 260.069482371 261.070028164 260.79204969 260.553895191 c 2
 582.830945162 30.5201138299 l 2
 583.31403764 30.1750611073 583.524094123 28.909594304 583.180674506 28.4288006485 c 0
 582.834860207 27.9447167486 581.570979208 27.734749518 581.087818425 28.079904371 c 2
 220.280246831 285.805956635 l 2
 220.220961674 285.848149282 220.174760066 285.874254817 220.038628761 286.036440505 c 0
 219.642387844 286.507972396 219.814050731 287.862146842 220.316124122 288.220726928 c 2
 581.087174772 545.916427181 l 2
 581.569942037 546.261278708 582.833889306 546.051790781 583.179696274 545.567685967 c 0
EndSplineSet
EndChar

StartChar: X
Encoding: 88 88 9
Width: 700
VWidth: 0
Flags: HW
LayerCount: 2
Fore
SplineSet
582.864195403 807.934429864 m 0
 583.326874664 807.564255403 583.468243633 806.289675145 583.097537293 805.826261121 c 2
 376.944341244 548.139648846 l 2
 376.575571015 547.678655123 375.300449538 547.535611975 374.836768734 547.906556619 c 0
 374.373832529 548.276905582 374.232396934 549.551771658 374.60265802 550.014559191 c 2
 580.75435859 807.699302134 l 2
 581.126030158 808.163852622 582.399543566 808.306132625 582.864195403 807.934429864 c 0
117.301913541 808.049296741 m 0
 117.811008927 808.354760195 119.055407186 808.043381487 119.360048345 807.535635878 c 2
 583.212384316 34.4539431162 l 2
 583.51740016 33.9455730184 583.204329105 32.6992000476 582.699811704 32.3964649395 c 0
 582.190449167 32.0908723201 580.94557342 32.4029008375 580.640918899 32.9106687165 c 2
 116.787089357 805.993873995 l 2
 116.483358278 806.499999663 116.791910546 807.74328871 117.301913541 808.049296741 c 0
117.136719142 32.5107369301 m 0
 116.671791943 32.8826849289 116.531893816 34.1558480544 116.903025674 34.6197550945 c 2
 323.055824972 292.320519876 l 2
 323.424841828 292.781829647 324.699420787 292.924673045 325.163916307 292.553051688 c 0
 325.626381781 292.183128963 325.768323905 290.908885005 325.397755576 290.445674593 c 2
 119.24595329 32.7461561169 l 2
 118.874588807 32.2819583015 117.60085482 32.1394844538 117.136719142 32.5107369301 c 0
EndSplineSet
EndChar

StartChar: h
Encoding: 104 104 10
Width: 700
VWidth: 0
Flags: HW
LayerCount: 2
Fore
SplineSet
118.07421875 23.2666015625 m 0
 117.480378972 23.2666015625 116.57421875 24.1727484388 116.57421875 24.7666015625 c 2
 116.57421875 797.84765625 l 2
 116.57421875 798.441508561 117.480378121 799.34765625 118.07421875 799.34765625 c 0
 118.667244416 799.34765625 119.57421875 798.440682706 119.57421875 797.84765625 c 2
 119.57421875 24.7666015625 l 2
 119.57421875 24.1735758964 118.667245206 23.2666015625 118.07421875 23.2666015625 c 0
182.501953125 332.5 m 0
 181.908927459 332.5 181.001953125 333.406973544 181.001953125 334 c 0
 181.001953125 435.98363154 250.162412584 526.132880803 349.770341202 541.644032702 c 0
 359.90508528 543.222587706 369.956356355 544.002499775 379.859751729 544.034348881 c 0
 490.865931153 544.392538371 583.42578125 450.815611172 583.42578125 334 c 2
 583.42578125 24.7666015625 l 2
 583.42578125 24.1727492509 582.519621879 23.2666015625 581.92578125 23.2666015625 c 0
 581.332755584 23.2666015625 580.42578125 24.1735751068 580.42578125 24.7666015625 c 2
 580.42578125 334 l 2
 580.42578125 449.231418288 489.138280382 541.386831417 379.871960823 541.034020654 c 0
 370.11724516 541.003504156 360.221261505 540.235535414 350.226740313 538.680339883 c 0
 252.251687299 523.423148792 184.001953125 434.673491863 184.001953125 334 c 0
 184.001953125 333.406147689 183.095793754 332.5 182.501953125 332.5 c 0
EndSplineSet
EndChar

StartChar: S
Encoding: 83 83 11
Width: 700
VWidth: 0
Flags: HW
LayerCount: 2
Fore
SplineSet
583.047458392 713.519110902 m 0
 582.653819341 713.075661036 581.374146617 712.99893008 580.930467414 713.392772708 c 0
 564.905050311 727.618885849 547.726527758 740.501931241 529.590201606 751.896370195 c 0
 394.488331081 836.808832856 218.231883002 831.544437007 119.223434842 713.550657222 c 0
 118.841237177 713.095204485 117.563469467 712.984139379 117.109388883 713.365159522 c 0
 116.655886562 713.745694442 116.543456532 715.02408242 116.924612555 715.478361976 c 0
 217.145846512 834.915610888 395.161437988 839.928667562 531.188896072 754.435284619 c 0
 549.460207947 742.955071832 566.774478539 729.970870812 582.92200351 715.637451613 c 0
 583.365039298 715.244125005 583.441013198 713.962434795 583.047458392 713.519110902 c 0
117.32450149 612.742596722 m 0
 117.840200887 613.040326841 119.074921168 612.707502014 119.37207891 612.192794034 c 0
 223.650694479 431.585311705 477.955803683 407.98371191 583.225791334 225.638742251 c 0
 583.52179 225.12609564 583.192640022 223.889537552 582.674875063 223.590614916 c 0
 582.162228403 223.294616221 580.924886711 223.625123658 580.627691039 224.139897336 c 0
 476.360619189 404.746546354 222.052575458 428.352368707 116.774946145 610.692011677 c 0
 116.477144271 611.20783536 116.811741518 612.446563629 117.32450149 612.742596722 c 0
582.890972907 122.967701892 m 0
 583.343899834 122.587706765 583.457839271 121.310313687 583.075229723 120.854270557 c 0
 496.296128043 17.4250894596 347.003061269 1.93679139682 220.565208037 56.0165302955 c 0
 182.943117379 72.096838125 148.043580769 93.9146831874 117.092230208 120.684248232 c 0
 116.643534591 121.072348799 116.550503031 122.351016234 116.939131044 122.800347917 c 0
 117.327692449 123.249576324 118.606593476 123.341629065 119.054938775 122.953831507 c 0
 149.771415986 96.3870214811 184.411115113 74.7325777642 221.739119463 58.7756088927 c 0
 347.319677189 5.06461982027 495.072210398 20.6340343813 580.778673194 122.784073835 c 0
 581.158739571 123.237122626 582.435819583 123.349596048 582.890972907 122.967701892 c 0
EndSplineSet
EndChar

StartChar: bracketright
Encoding: 93 93 12
Width: 700
VWidth: 0
Flags: HW
LayerCount: 2
Fore
SplineSet
478.849609375 803.5 m 0
 479.443449153 803.5 480.349609375 802.593853123 480.349609375 802 c 2
 480.349609375 28.9189453125 l 2
 480.349609375 28.3250930018 479.443450004 27.4189453125 478.849609375 27.4189453125 c 0
 478.256583709 27.4189453125 477.349609375 28.3259188568 477.349609375 28.9189453125 c 2
 477.349609375 802 l 2
 477.349609375 802.593025666 478.256582919 803.5 478.849609375 803.5 c 0
377.26953125 802 m 0
 377.26953125 801.406974334 376.362557706 800.5 375.76953125 800.5 c 2
 221.150390625 800.5 l 2
 220.556550847 800.5 219.650390625 801.406146877 219.650390625 802 c 0
 219.650390625 802.593852311 220.556549996 803.5 221.150390625 803.5 c 2
 375.76953125 803.5 l 2
 376.362556916 803.5 377.26953125 802.593026456 377.26953125 802 c 0
377.26953125 28.9189453125 m 0
 377.26953125 28.3259196464 376.362557706 27.4189453125 375.76953125 27.4189453125 c 2
 221.150390625 27.4189453125 l 2
 220.556550847 27.4189453125 219.650390625 28.3250921892 219.650390625 28.9189453125 c 0
 219.650390625 29.5127976232 220.556549996 30.4189453125 221.150390625 30.4189453125 c 2
 375.76953125 30.4189453125 l 2
 376.362556916 30.4189453125 377.26953125 29.5119717682 377.26953125 28.9189453125 c 0
EndSplineSet
EndChar

StartChar: slash
Encoding: 47 47 13
Width: 700
VWidth: 0
Flags: HW
LayerCount: 2
Fore
SplineSet
117.302417183 32.5754011064 m 0
 116.790578771 32.8825416896 116.482725379 34.1264980444 116.787403274 34.6342531585 c 2
 580.639403309 807.714409509 l 2
 580.9450634 808.223801483 582.191442999 808.533940698 582.697582802 808.230263003 c 0
 583.207247294 807.924458078 583.518056056 806.680530527 583.212606045 806.171426435 c 2
 119.358943679 33.0894760125 l 2
 119.054722097 32.5823677351 117.812700128 32.2692562875 117.302417183 32.5754011064 c 0
EndSplineSet
EndChar

StartChar: zero
Encoding: 48 48 14
Width: 700
VWidth: 0
Flags: HW
LayerCount: 2
Fore
SplineSet
118.07421875 469.418945312 m 0
 118.667244417 469.418945312 119.57421875 468.511971769 119.57421875 467.918945312 c 2
 119.57421875 261.766601562 l 2
 119.57421875 134.508938384 222.738883151 31.3427734375 349.998046875 31.3427734375 c 0
 477.259260997 31.3427734375 580.42578125 134.508148774 580.42578125 261.766601562 c 0
 580.42578125 262.359627229 581.332754793 263.266601562 581.92578125 263.266601562 c 0
 582.519621029 263.266601562 583.42578125 262.360454687 583.42578125 261.766601562 c 0
 583.42578125 132.852547764 478.915440102 28.3427734375 349.998046875 28.3427734375 c 0
 221.083774771 28.3427734375 116.57421875 132.853484576 116.57421875 261.766601562 c 2
 116.57421875 467.918945312 l 2
 116.57421875 468.512797624 117.48037812 469.418945312 118.07421875 469.418945312 c 0
118.07421875 569.5 m 0
 117.480378972 569.5 116.57421875 570.406146876 116.57421875 571 c 0
 116.57421875 699.919049875 221.084401079 804.423828125 349.998046875 804.423828125 c 0
 478.916169723 804.423828125 583.42578125 699.91756728 583.42578125 571 c 2
 583.42578125 364.84765625 l 2
 583.42578125 364.253803938 582.519621879 363.34765625 581.92578125 363.34765625 c 0
 581.332755584 363.34765625 580.42578125 364.254629794 580.42578125 364.84765625 c 2
 580.42578125 571 l 2
 580.42578125 633.376663515 485.56149743 809.583807814 348.059150269 801.365940879 c 0
 224.16793054 793.961606048 119.57421875 699.533168925 119.57421875 571 c 0
 119.57421875 570.406974334 118.667245206 569.5 118.07421875 569.5 c 0
349.998046875 546.73828125 m 0
 350.591072541 546.73828125 351.498046875 545.831307706 351.498046875 545.23828125 c 2
 351.498046875 287.54296875 l 2
 351.498046875 286.949943084 350.591073331 286.04296875 349.998046875 286.04296875 c 0
 349.404207097 286.04296875 348.498046875 286.949115627 348.498046875 287.54296875 c 2
 348.498046875 545.23828125 l 2
 348.498046875 545.832133561 349.404206246 546.73828125 349.998046875 546.73828125 c 0
EndSplineSet
EndChar

StartChar: e
Encoding: 101 101 15
Width: 700
VWidth: 0
Flags: HW
LayerCount: 2
Fore
SplineSet
453.552734375 548.233398438 m 0
 453.552734375 547.640372771 452.645760832 546.733398438 452.052734375 546.733398438 c 0
 278.932162796 546.733398438 118.547851562 442.311943344 118.547851562 285.533203125 c 2
 118.547851562 61.837890625 l 2
 118.547851562 42.1655914128 137.09897593 29.337890625 151.047851562 29.337890625 c 2
 580.900390625 29.337890625 l 2
 581.493416291 29.337890625 582.400390625 28.4309170807 582.400390625 27.837890625 c 0
 582.400390625 27.2448649589 581.493417081 26.337890625 580.900390625 26.337890625 c 2
 117.510503534 26.337890625 l 2
 116.646417692 26.6337147287 115.666352467 27.5095718353 115.553669401 27.6688833875 c 0
 115.544395622 27.8230965381 115.547851562 27.7588420719 115.547851562 27.837890625 c 2
 115.547851562 285.533203125 l 2
 115.547851562 445.809341487 279.853001934 549.733398438 452.052734375 549.733398438 c 0
 452.64576004 549.733398438 453.552734375 548.826424893 453.552734375 548.233398438 c 0
452.052734375 546.733398438 m 0
 375.787521631 546.733398438 322.578081045 476.280193813 322.603518124 395.599559593 c 0
 322.607081112 386.513937837 323.284405962 377.318781943 324.683263109 368.063800797 c 0
 335.171531557 298.757970471 385.149314846 240.5 452.052734375 240.5 c 0
 518.950778307 240.5 568.932805352 298.757161105 579.417466395 368.066702701 c 0
 592.276523782 453.055521166 544.653822628 534.330714228 469.708978953 545.44358371 c 0
 463.985650159 546.293235305 458.084317587 546.733398438 452.052734375 546.733398438 c 0
452.052734375 549.733398438 m 0
 458.236514278 549.733398438 464.271150944 549.283347292 470.146736569 548.41112395 c 0
 547.159330736 536.990847741 595.410165454 453.713603864 582.383092948 367.618353867 c 0
 571.757438563 297.368991184 520.86115049 237.5 452.052734375 237.5 c 0
 383.217316557 237.5 332.351412238 297.346465718 321.717182224 367.621384548 c 0
 320.296424369 377.010378724 319.606839381 386.368154949 319.603514054 395.600924986 c 0
 319.578074535 477.422898963 373.664546055 549.733398438 452.052734375 549.733398438 c 0
EndSplineSet
EndChar

StartChar: quotesingle
Encoding: 39 39 16
Width: 700
VWidth: 0
Flags: HW
LayerCount: 2
Fore
SplineSet
323.160123887 620.070482705 m 0
 322.729950316 620.480202952 322.697877151 621.761381645 323.107624449 622.191521351 c 0
 355.93224754 656.6540595 374.231445312 702.420790138 374.231445312 750 c 0
 374.231445312 750.593025665 375.138418857 751.5 375.731445312 751.5 c 0
 376.324470979 751.5 377.231445312 750.593026457 377.231445312 750 c 0
 377.231445312 701.649936953 358.637952151 655.14498519 325.278017242 620.121800916 c 0
 324.869351839 619.692702243 323.586978224 619.663834125 323.160123887 620.070482705 c 0
EndSplineSet
EndChar

StartChar: f
Encoding: 102 102 17
Width: 700
VWidth: 0
Flags: HW
LayerCount: 2
Fore
SplineSet
298.46484375 29.576171875 m 0
 297.871003972 29.576171875 296.96484375 30.4823187509 296.96484375 31.076171875 c 2
 296.96484375 623.776367188 l 2
 296.96484375 668.536726497 312.982592054 707.184084093 338.332250734 736.375566588 c 0
 396.773150541 803.675649611 505.120335544 821.646174111 582.911845885 753.755237138 c 0
 583.358342737 753.365519155 583.445621475 752.084243807 583.055522068 751.637247778 c 0
 582.666103018 751.191031337 581.387457827 751.103737471 580.940307275 751.493998877 c 0
 504.519559735 818.189193894 398.046363944 800.566072307 340.596760621 734.407982489 c 0
 315.728933567 705.77120291 299.96484375 667.763139021 299.96484375 623.776367188 c 2
 299.96484375 31.076171875 l 2
 299.96484375 30.4831462089 299.057870206 29.576171875 298.46484375 29.576171875 c 0
116.57421875 546.471679688 m 0
 116.57421875 547.065531998 117.480378122 547.971679688 118.07421875 547.971679688 c 2
 581.92578125 547.971679688 l 2
 582.519621027 547.971679688 583.42578125 547.065532811 583.42578125 546.471679688 c 0
 583.42578125 545.877827376 582.51962188 544.971679688 581.92578125 544.971679688 c 2
 118.07421875 544.971679688 l 2
 117.480378971 544.971679688 116.57421875 545.877826563 116.57421875 546.471679688 c 0
EndSplineSet
EndChar

StartChar: eight
Encoding: 56 56 18
Width: 700
VWidth: 0
Flags: HW
LayerCount: 2
Fore
SplineSet
348.515998988 409.436872108 m 0
 348.568176364 410.024423978 349.549894138 410.850259722 350.142617207 410.797591936 c 0
 456.850108832 401.311327331 549.909964401 482.731555217 554.664610999 589.763644467 c 0
 554.823673412 593.363601144 554.883308779 596.925321657 554.846861694 600.487730164 c 0
 553.712288586 709.15974257 461.511545522 795.998611393 350.031585643 794.341208586 c 0
 237.688752292 792.688103675 147.014960323 702.008039429 145.356037684 589.664362868 c 0
 145.347361689 589.073124775 144.429499781 588.180044328 143.834810814 588.188833295 c 0
 143.242468994 588.197588492 142.348092938 589.118757623 142.356811831 589.710773577 c 0
 144.038895185 703.671074663 236.020051608 795.664263647 349.990952541 797.340505403 c 0
 463.042104841 799.021292315 556.693155517 710.933754105 557.846502788 600.517640256 c 0
 557.884273141 596.905115907 557.823469119 593.285744121 557.659882428 589.618535239 c 0
 557.539403272 586.903570932 557.362111131 584.192912972 557.131783301 581.516603726 c 0
 548.109779294 476.848009864 455.583004108 398.412435224 349.87667949 407.808961022 c 0
 349.28673742 407.861384453 348.463552357 408.847018194 348.515998988 409.436872108 c 0
155.992154293 513.681716366 m 0
 156.50643875 513.978647561 157.74653787 513.646687558 158.04258209 513.133908313 c 0
 246.145399397 360.533859305 493.602474784 462.233570505 583.237437447 306.981379829 c 0
 583.533504196 306.468538841 583.203107991 305.230612336 582.687133637 304.932723475 c 0
 582.173245841 304.636021299 580.935423129 304.967991894 580.639058535 305.48132606 c 0
 492.535748713 458.082228142 245.07825595 356.381026853 155.443465663 511.634155423 c 0
 155.146589193 512.148345095 155.480781221 513.386532781 155.992154293 513.681716366 c 0
582.178298494 230.392988839 m 0
 582.764128978 230.297621086 583.51431899 229.254876167 583.419331391 228.671159549 c 0
 564.588268401 112.99425982 467.168118765 26.3995141845 350.073125232 21.2615880705 c 0
 345.411537207 21.0565884493 340.763906343 20.9866893319 336.145578933 21.047014564 c 0
 216.702793119 22.6122256606 114.931815341 111.801519023 116.585636109 228.933333461 c 0
 116.785847083 243.130720837 118.520389757 256.892703027 121.614028398 270.061480211 c 0
 144.991245857 369.557696101 246.001102759 435.710482691 350.356650653 410.762455671 c 0
 350.936961121 410.6236715 351.606139679 409.528476386 351.469302646 408.956055345 c 0
 351.330711618 408.376490025 350.237888201 407.706753043 349.661071018 407.844655831 c 0
 246.954658685 432.397841012 147.539253081 367.288662647 124.534520654 269.375517989 c 0
 121.490454152 256.420482248 119.782059503 242.864499514 119.586246908 228.891453474 c 0
 117.959585352 113.684279952 218.119571574 25.5925442122 336.185768866 24.0467443993 c 0
 340.749984131 23.986837661 345.330762798 24.0568155645 349.943449067 24.258789841 c 0
 465.6150669 29.3350506158 561.856194553 114.879736603 580.457663051 229.152336459 c 0
 580.553256999 229.739587602 581.595754562 230.487826608 582.178298494 230.392988839 c 0
EndSplineSet
EndChar

StartChar: bracketleft
Encoding: 91 91 19
Width: 700
VWidth: 0
Flags: HW
LayerCount: 2
Fore
SplineSet
221.150390625 802.5 m 0
 221.743416291 802.5 222.650390625 801.593026456 222.650390625 801 c 2
 222.650390625 27.9189453125 l 2
 222.650390625 27.3259196464 221.743417081 26.4189453125 221.150390625 26.4189453125 c 0
 220.556550847 26.4189453125 219.650390625 27.3250921892 219.650390625 27.9189453125 c 2
 219.650390625 801 l 2
 219.650390625 801.593852311 220.556549996 802.5 221.150390625 802.5 c 0
322.73046875 801 m 0
 322.73046875 801.593025666 323.637442294 802.5 324.23046875 802.5 c 2
 478.849609375 802.5 l 2
 479.443449153 802.5 480.349609375 801.593853123 480.349609375 801 c 0
 480.349609375 800.406147689 479.443450004 799.5 478.849609375 799.5 c 2
 324.23046875 799.5 l 2
 323.637443084 799.5 322.73046875 800.406973544 322.73046875 801 c 0
322.73046875 27.9189453125 m 0
 322.73046875 28.5119709786 323.637442294 29.4189453125 324.23046875 29.4189453125 c 2
 478.849609375 29.4189453125 l 2
 479.443449153 29.4189453125 480.349609375 28.5127984358 480.349609375 27.9189453125 c 0
 480.349609375 27.3250930018 479.443450004 26.4189453125 478.849609375 26.4189453125 c 2
 324.23046875 26.4189453125 l 2
 323.637443084 26.4189453125 322.73046875 27.3259188568 322.73046875 27.9189453125 c 0
EndSplineSet
EndChar

StartChar: W
Encoding: 87 87 20
Width: 700
VWidth: 0
Flags: HW
LayerCount: 2
Fore
SplineSet
504.467606551 31.2820343749 m 0
 503.878540611 31.3409161505 503.064776442 32.3322217657 503.123858865 32.9232950253 c 2
 580.433232832 806.0023869 l 2
 580.492544606 806.595130046 581.485749501 807.406879427 582.076170105 807.34786535 c 0
 582.665538003 807.288919248 583.47820236 806.29644262 583.419109885 805.705611225 c 2
 506.109415484 32.623315426 l 2
 506.050588149 32.0348251166 505.057445376 31.2230132159 504.467606551 31.2820343749 c 0
117.923879003 807.34777259 m 0
 118.518288741 807.40718852 119.507579482 806.594511772 119.566570823 806.004349713 c 2
 196.876185662 32.9228497929 l 2
 196.93522693 32.3325303932 196.12526517 31.3412019005 195.531683775 31.2818656447 c 0
 194.943543834 31.2230144815 193.949405528 32.0355088357 193.890460427 32.6245565372 c 2
 116.581031054 805.704201547 l 2
 116.521814362 806.296618066 117.334025597 807.28877793 117.923879003 807.34777259 c 0
298.169830551 31.3036060651 m 0
 297.590716101 31.4193856268 296.876593568 32.4859048354 296.993062605 33.0684679479 c 2
 348.525912295 290.767872667 l 2
 348.646738111 291.371909982 349.815467738 292.084901114 350.405939322 291.917727294 c 0
 350.809728519 291.803400663 351.386468258 291.177585082 351.468227911 290.768851319 c 2
 403.016155723 33.068274834 l 2
 403.132655191 32.4859019934 402.42139153 31.4195253288 401.839759208 31.3031802145 c 0
 401.258403135 31.1868841436 400.190747613 31.8992856374 400.074781956 32.478989996 c 2
 381.871656956 123.483872809 l 2
 378.207492637 141.802532074 359.12246606 153.469840258 341.147753862 148.37974214 c 0
 329.243935786 145.008806277 320.3468834 134.548583999 318.133913047 123.482425942 c 2
 299.935750033 32.4808687245 l 2
 299.81906707 31.8974227275 298.750313953 31.1874969767 298.169830551 31.3036060651 c 0
EndSplineSet
EndChar

StartChar: Y
Encoding: 89 89 21
Width: 700
VWidth: 0
Flags: HW
LayerCount: 2
Fore
SplineSet
582.539053734 805.114536063 m 0
 583.077651762 804.872180879 583.534609641 803.673733023 583.290439814 803.131140335 c 2
 354.356846064 294.405554398 l 2
 352.483758723 290.243266813 351.494140625 285.188144153 351.494140625 281.068359375 c 2
 351.494140625 30.666015625 l 2
 351.494140625 30.0729899589 350.587167081 29.166015625 349.994140625 29.166015625 c 0
 349.401114959 29.166015625 348.494140625 30.0729891693 348.494140625 30.666015625 c 2
 348.494140625 288.366210938 l 2
 348.494140625 288.473805514 348.572521583 288.861090225 348.626549113 288.981157106 c 2
 580.555991255 804.363641448 l 2
 580.798541583 804.902704131 581.997921598 805.358062628 582.539053734 805.114536063 c 0
117.39938098 805.088683511 m 0
 117.930859446 805.354422745 119.145711942 804.948600844 119.411529962 804.416840182 c 2
 325.563928793 392.108136271 l 2
 325.82975487 391.576484116 325.422390368 390.359799729 324.895336495 390.096272792 c 0
 324.361514346 389.829408635 323.146655334 390.236227232 322.881438788 390.766753568 c 2
 116.729039957 803.075457479 l 2
 116.463657456 803.606222483 116.868908315 804.823416095 117.39938098 805.088683511 c 0
EndSplineSet
EndChar

StartChar: H
Encoding: 72 72 22
Width: 700
VWidth: 0
Flags: HW
LayerCount: 2
Fore
SplineSet
118.07421875 808.038085938 m 0
 118.667244415 808.038085938 119.57421875 807.131112393 119.57421875 806.538085938 c 2
 119.57421875 33.45703125 l 2
 119.57421875 32.8640055839 118.667245206 31.95703125 118.07421875 31.95703125 c 0
 117.480378972 31.95703125 116.57421875 32.8631781263 116.57421875 33.45703125 c 2
 116.57421875 806.538085938 l 2
 116.57421875 807.131938248 117.480378122 808.038085938 118.07421875 808.038085938 c 0
581.92578125 31.95703125 m 0
 581.332755584 31.95703125 580.42578125 32.8640047943 580.42578125 33.45703125 c 2
 580.42578125 806.538085938 l 2
 580.42578125 807.131111603 581.332754795 808.038085938 581.92578125 808.038085938 c 0
 582.519621027 808.038085938 583.42578125 807.131939061 583.42578125 806.538085938 c 2
 583.42578125 33.45703125 l 2
 583.42578125 32.8631789384 582.519621879 31.95703125 581.92578125 31.95703125 c 0
219.654296875 420 m 0
 219.654296875 420.593025666 220.561270419 421.5 221.154296875 421.5 c 2
 478.85546875 421.5 l 2
 479.448494416 421.5 480.35546875 420.593026456 480.35546875 420 c 0
 480.35546875 419.406974334 479.448495206 418.5 478.85546875 418.5 c 2
 221.154296875 418.5 l 2
 220.561271209 418.5 219.654296875 419.406973544 219.654296875 420 c 0
EndSplineSet
EndChar

StartChar: asciicircum
Encoding: 94 94 23
Width: 700
VWidth: 0
Flags: HW
LayerCount: 2
Fore
SplineSet
116.824968718 614.599825475 m 0
 116.496310742 615.09284349 116.7483781 616.35120446 117.241492182 616.679957534 c 2
 349.166476174 771.294985952 l 2
 349.229094585 771.336734986 350.304059806 771.521517018 350.869147074 771.267331801 c 2
 582.757983395 616.680307153 l 2
 583.2520965 616.350888042 583.502240702 615.090701101 583.176210434 614.601594091 c 0
 582.845552084 614.105669037 581.586076963 613.855334573 581.093790802 614.183484008 c 2
 368.024454864 756.225476196 l 2
 356.873022383 763.659543038 341.825941774 762.796253306 331.969428345 756.225304589 c 2
 118.906230398 614.184474704 l 2
 118.411598371 613.854730403 117.154074343 614.106182582 116.824968718 614.599825475 c 0
EndSplineSet
EndChar

StartChar: period
Encoding: 46 46 24
Width: 700
VWidth: 0
Flags: HW
LayerCount: 2
Fore
SplineSet
350 26.5 m 0
 349.406974334 26.5 348.5 27.4069735443 348.5 28 c 2
 348.5 53.771484375 l 2
 348.5 54.3645100411 349.406973544 55.271484375 350 55.271484375 c 0
 350.593025666 55.271484375 351.5 54.3645108307 351.5 53.771484375 c 2
 351.5 28 l 2
 351.5 27.4069743339 350.593026456 26.5 350 26.5 c 0
EndSplineSet
EndChar

StartChar: parenright
Encoding: 41 41 25
Width: 700
VWidth: 0
Flags: HW
LayerCount: 2
Fore
SplineSet
155.228515625 796.538085938 m 0
 155.228515625 797.131111603 156.13548917 798.038085938 156.728515625 798.038085938 c 0
 371.032692268 798.038085938 544.771484375 624.31364838 544.771484375 410 c 0
 544.771484375 195.695074117 371.033025846 21.95703125 156.728515625 21.95703125 c 0
 156.135489959 21.95703125 155.228515625 22.8640047943 155.228515625 23.45703125 c 0
 155.228515625 24.0500569161 156.135489169 24.95703125 156.728515625 24.95703125 c 0
 369.376259479 24.95703125 541.771484375 197.351843894 541.771484375 410 c 0
 541.771484375 622.657936624 369.377252734 795.038085938 156.728515625 795.038085938 c 0
 156.135489958 795.038085938 155.228515625 795.945059481 155.228515625 796.538085938 c 0
EndSplineSet
EndChar

StartChar: z
Encoding: 122 122 26
Width: 700
VWidth: 0
Flags: HW
LayerCount: 2
Fore
SplineSet
582.929215306 544.114721015 m 0
 583.369747368 543.718260794 583.438194199 542.438326966 583.041102776 541.997124642 c 2
 119.188135255 26.6011407526 l 2
 118.791728864 26.1606685048 117.513361185 26.0922936238 117.070020465 26.4913377847 c 0
 116.629456929 26.8877983798 116.561899672 28.1662695207 116.958897225 28.6073675453 c 2
 580.811864745 544.003351435 l 2
 581.208884378 544.444505095 582.489780535 544.510252587 582.929215306 544.114721015 c 0
116.57421875 543 m 0
 116.57421875 543.593852311 117.480378121 544.5 118.07421875 544.5 c 2
 453.078125 544.5 l 2
 453.671964778 544.5 454.578125 543.593853124 454.578125 543 c 0
 454.578125 542.406147688 453.671965629 541.5 453.078125 541.5 c 2
 118.07421875 541.5 l 2
 117.480378972 541.5 116.57421875 542.406146876 116.57421875 543 c 0
245.421875 27.6044921875 m 0
 245.421875 28.1983444991 246.328034371 29.1044921875 246.921875 29.1044921875 c 2
 581.92578125 29.1044921875 l 2
 582.519621028 29.1044921875 583.42578125 28.1983453116 583.42578125 27.6044921875 c 0
 583.42578125 27.0106398759 582.519621879 26.1044921875 581.92578125 26.1044921875 c 2
 246.921875 26.1044921875 l 2
 246.328035222 26.1044921875 245.421875 27.0106390634 245.421875 27.6044921875 c 0
EndSplineSet
EndChar

StartChar: equal
Encoding: 61 61 27
Width: 700
VWidth: 0
Flags: HW
LayerCount: 2
Fore
SplineSet
168.111328125 298.380859375 m 0
 168.111328125 298.973885041 169.018301669 299.880859375 169.611328125 299.880859375 c 2
 530.388671875 299.880859375 l 2
 530.981697541 299.880859375 531.888671875 298.973885831 531.888671875 298.380859375 c 0
 531.888671875 297.787833709 530.981698331 296.880859375 530.388671875 296.880859375 c 2
 169.611328125 296.880859375 l 2
 169.018302459 296.880859375 168.111328125 297.787832919 168.111328125 298.380859375 c 0
168.111328125 453 m 0
 168.111328125 453.593025666 169.018301669 454.5 169.611328125 454.5 c 2
 530.388671875 454.5 l 2
 530.981697541 454.5 531.888671875 453.593026456 531.888671875 453 c 0
 531.888671875 452.406974334 530.981698331 451.5 530.388671875 451.5 c 2
 169.611328125 451.5 l 2
 169.018302459 451.5 168.111328125 452.406973544 168.111328125 453 c 0
EndSplineSet
EndChar

StartChar: b
Encoding: 98 98 28
Width: 700
VWidth: 0
Flags: HW
LayerCount: 2
Fore
SplineSet
118.07421875 802.185546875 m 0
 118.667244416 802.185546875 119.57421875 801.278573331 119.57421875 800.685546875 c 2
 119.57421875 27.6044921875 l 2
 119.57421875 27.0114665214 118.667245206 26.1044921875 118.07421875 26.1044921875 c 0
 117.480378972 26.1044921875 116.57421875 27.0106390638 116.57421875 27.6044921875 c 2
 116.57421875 800.685546875 l 2
 116.57421875 801.279399186 117.480378121 802.185546875 118.07421875 802.185546875 c 0
116.57421875 285.3046875 m 0
 116.57421875 424.390226235 216.695499223 549.5 349.998046875 549.5 c 0
 483.30464766 549.5 583.42578125 424.391439623 583.42578125 285.3046875 c 0
 583.42578125 146.203711577 483.304718885 21.1044921875 349.998046875 21.1044921875 c 0
 216.695201963 21.1044921875 116.57421875 146.204784291 116.57421875 285.3046875 c 0
119.57421875 285.3046875 m 0
 119.57421875 148.755572306 217.00509163 24.1044921875 349.998046875 24.1044921875 c 0
 482.996181354 24.1044921875 580.42578125 148.755764442 580.42578125 285.3046875 c 0
 580.42578125 421.837658562 482.995613487 546.5 349.998046875 546.5 c 0
 217.00347287 546.5 119.57421875 421.840005455 119.57421875 285.3046875 c 0
EndSplineSet
EndChar

StartChar: asciitilde
Encoding: 126 126 29
Width: 700
VWidth: 0
Flags: HW
LayerCount: 2
Fore
SplineSet
476.067238469 449.850773868 m 1
 479.482759353 448.970170263 483.325268089 448.212063523 487.91592969 448.083820391 c 0
 489.202983607 448.048068893 492.825112885 448.068558095 493.721091711 448.131398238 c 0
 502.752959037 448.764854985 511.628804748 453.929766323 516.541771343 459.899499272 c 0
 528.699893178 474.67280154 528.888671875 488.269340501 528.888671875 516 c 0
 528.888671875 516.593852311 529.794831246 517.5 530.388671875 517.5 c 0
 530.981697541 517.5 531.888671875 516.593026456 531.888671875 516 c 0
 531.888671875 465.508316876 514.216618403 445.558701114 489.492188856 445.068041484 c 0
 487.65164402 445.430547457 482.713236395 446.97663409 476.067238469 449.850773868 c 1
396.240501171 494.590902925 m 1
 359.258379337 517.389108461 319.449803779 543.129282329 287.178026574 561.87344258 c 1
 323.789793868 542.547384507 363.103226755 516.438940792 396.240501171 494.590902925 c 1
210.606739396 590.168780499 m 1
 175.57337229 583.669437736 171.111328125 547.275185355 171.111328125 516 c 0
 171.111328125 515.406147689 170.205168754 514.5 169.611328125 514.5 c 0
 169.018302459 514.5 168.111328125 515.406973544 168.111328125 516 c 0
 168.111328125 519.760302444 168.433563061 524.3629984 168.585608994 530.191821771 c 0
 168.738412464 536.044592263 169.098648876 541.396376276 169.6302318 546.25060947 c 0
 174.635679018 591.958639104 186.997267444 592.763643549 210.606739396 590.168780499 c 1
EndSplineSet
EndChar

StartChar: question
Encoding: 63 63 30
Width: 700
VWidth: 0
Flags: HW
LayerCount: 2
Fore
SplineSet
311.344726562 234.822265625 m 0
 310.751700897 234.822265625 309.844726562 235.72923917 309.844726562 236.322265625 c 0
 309.844726562 265.456857494 318.534481241 287.237284071 332.771434148 304.674349701 c 1
 320.322602091 285.825194281 312.84472722 263.593683602 312.844726562 236.322265625 c 0
 312.844726562 235.729239958 311.937753019 234.822265625 311.344726562 234.822265625 c 0
332.771434148 304.674349701 m 1
 385.961865041 369.820661171 516.581824857 374.340982346 560.748911944 475.246932322 c 1
 512.664482345 401.475526605 382.714300056 380.294360815 332.771434148 304.674349701 c 1
560.748911944 475.246932322 m 1
 563.531261826 481.603603527 565.970523831 488.342780713 568.025729145 495.503715952 c 0
 568.815902491 495.624178388 569.335595453 495.510899834 569.554364803 495.431278576 c 0
 569.908288956 495.302474816 570.532910157 494.668338872 570.700367772 494.177820861 c 0
 567.972287042 487.48804358 564.626831255 481.196461534 560.748911944 475.246932322 c 1
117.896629683 595.60969016 m 0
 117.310670261 595.678861201 116.514409984 596.683728321 116.584261447 597.274923147 c 0
 130.559601554 715.602443661 230.854389347 804.750976562 349.997070312 804.750976562 c 0
 469.146396825 804.750976562 569.44944942 715.600814877 583.416292192 597.275576004 c 0
 583.48588957 596.685741341 582.68926872 595.677385594 582.102724441 595.60812187 c 0
 581.512579141 595.538487838 580.505739433 596.332944608 580.436132975 596.922654752 c 0
 566.64870872 713.740442271 467.625082514 801.750976562 349.997070312 801.750976562 c 0
 232.373572796 801.750976562 133.361359415 713.740555427 119.563173162 596.922119544 c 0
 119.49372949 596.334113474 118.486284234 595.540024362 117.896629683 595.60969016 c 0
311.344726562 28.669921875 m 0
 310.751700897 28.669921875 309.844726562 29.5768954201 309.844726562 30.169921875 c 2
 309.844726562 55.94140625 l 2
 309.844726562 56.5344319153 310.751700107 57.44140625 311.344726562 57.44140625 c 0
 311.937752229 57.44140625 312.844726562 56.5344327066 312.844726562 55.94140625 c 2
 312.844726562 30.169921875 l 2
 312.844726562 29.576896208 311.937753019 28.669921875 311.344726562 28.669921875 c 0
EndSplineSet
EndChar

StartChar: M
Encoding: 77 77 31
Width: 700
VWidth: 0
Flags: HW
LayerCount: 2
Fore
SplineSet
195.532393449 799.57148125 m 0
 196.122199128 799.512525532 196.934455604 798.522725232 196.875164573 797.930220599 c 2
 119.565453321 24.8477562344 l 2
 119.50660481 24.2590230869 118.5152047 23.4466353349 117.924637806 23.5056671426 c 0
 117.333512307 23.5647859188 116.522606071 24.555703802 116.581866677 25.1479044002 c 2
 193.891561079 798.230200201 l 2
 193.950503666 798.819843449 194.943311425 799.630426681 195.532393449 799.57148125 c 0
504.467606551 799.57148125 m 0
 505.055754236 799.630333188 506.04947429 798.820033084 506.10856301 798.228959088 c 2
 583.418346553 25.1457728506 l 2
 583.477216567 24.5574755054 582.665227697 23.56465987 582.076879888 23.505818892 c 0
 581.484305696 23.4465833194 580.493441922 24.258555256 580.43440574 24.8491659123 c 2
 503.124622197 797.932352149 l 2
 503.065721756 798.520953557 503.877799442 799.512525389 504.467606551 799.57148125 c 0
298.100757081 799.53472169 m 0
 298.676745366 799.678710983 299.7755644 799.01900426 299.919392274 798.443568425 c 2
 318.472126649 724.224818425 l 2
 323.002613109 706.10096481 342.620485196 695.353713323 360.333023123 701.292179254 c 0
 370.873056284 704.825926258 378.977238542 714.008535776 381.53124271 724.222670947 c 2
 400.089376481 798.441534724 l 2
 400.233953542 799.019593159 401.336781144 799.678259286 401.907355036 799.535623519 c 0
 402.484443406 799.391289079 403.144588819 798.289279937 403.000993643 797.714868208 c 2
 351.453960018 591.565794867 l 2
 351.391050935 591.314317056 350.730070088 590.59036739 350.475026283 590.504840652 c 0
 349.888538707 590.308218665 348.691822939 590.965879436 348.542502276 591.563345568 c 2
 297.009223623 797.715991455 l 2
 296.865194815 798.292137808 297.523928749 799.390522396 298.100757081 799.53472169 c 0
EndSplineSet
EndChar

StartChar: r
Encoding: 114 114 32
Width: 700
VWidth: 0
Flags: HW
LayerCount: 2
Fore
SplineSet
118.07421875 26.2666015625 m 0
 117.480378972 26.2666015625 116.57421875 27.1727484388 116.57421875 27.7666015625 c 2
 116.57421875 543.162109375 l 2
 116.57421875 543.755961686 117.480378121 544.662109375 118.07421875 544.662109375 c 0
 118.667244416 544.662109375 119.57421875 543.755135831 119.57421875 543.162109375 c 2
 119.57421875 27.7666015625 l 2
 119.57421875 27.1735758964 118.667245206 26.2666015625 118.07421875 26.2666015625 c 0
182.501953125 335.5 m 0
 181.908927459 335.5 181.001953125 336.406973544 181.001953125 337 c 0
 181.001953125 438.993083044 250.163112912 529.133561493 349.770341202 544.644032702 c 0
 359.90508528 546.222587706 369.956356355 547.002499775 379.859751729 547.034348881 c 0
 490.865931153 547.392538371 583.42578125 453.815611172 583.42578125 337 c 0
 583.42578125 336.406147688 582.519621879 335.5 581.92578125 335.5 c 0
 581.332755584 335.5 580.42578125 336.406973544 580.42578125 337 c 0
 580.42578125 452.231418288 489.138280382 544.386831417 379.871960823 544.034020654 c 0
 370.117077477 544.003503631 360.22160146 543.235588279 350.226478213 541.680299067 c 0
 252.251552282 526.42230872 184.001953125 437.683320925 184.001953125 337 c 0
 184.001953125 336.406147689 183.095793754 335.5 182.501953125 335.5 c 0
EndSplineSet
EndChar

StartChar: T
Encoding: 84 84 33
Width: 700
VWidth: 0
Flags: HW
LayerCount: 2
Fore
SplineSet
349.998046875 706.428710938 m 0
 350.59107254 706.428710938 351.498046875 705.521737393 351.498046875 704.928710938 c 2
 351.498046875 34.9189453125 l 2
 351.498046875 34.3259196464 350.591073331 33.4189453125 349.998046875 33.4189453125 c 0
 349.404207097 33.4189453125 348.498046875 34.3250921892 348.498046875 34.9189453125 c 2
 348.498046875 704.928710938 l 2
 348.498046875 705.522563248 349.404206247 706.428710938 349.998046875 706.428710938 c 0
116.57421875 808 m 0
 116.57421875 808.593852311 117.480378121 809.5 118.07421875 809.5 c 2
 581.92578125 809.5 l 2
 582.519621028 809.5 583.42578125 808.593853124 583.42578125 808 c 0
 583.42578125 807.406147688 582.519621879 806.5 581.92578125 806.5 c 2
 118.07421875 806.5 l 2
 117.480378972 806.5 116.57421875 807.406146876 116.57421875 808 c 0
EndSplineSet
EndChar

StartChar: guillemotright
Encoding: 187 187 34
Width: 700
VWidth: 0
Flags: HW
LayerCount: 2
Fore
SplineSet
117.197953777 542.924390819 m 0
 117.683389001 543.264223422 118.945845257 543.041922591 119.286285003 542.555562318 c 2
 299.677558761 284.859323075 l 2
 299.952631809 284.466399199 299.952902678 283.533992327 299.676910003 283.139750182 c 2
 119.285775323 25.4437095619 l 2
 118.946278035 24.9586957065 117.683425795 24.7357290676 117.197782354 25.075729184 c 0
 116.711713794 25.4159958328 116.489167929 26.6795618699 116.828923595 27.1649004947 c 2
 283.571111094 265.36216612 l 2
 291.323745907 276.437086279 291.306624828 291.587307084 283.571162376 302.637760622 c 2
 116.828835253 540.836620667 l 2
 116.489689443 541.32104385 116.711873665 542.584116083 117.197953777 542.924390819 c 0
400.67003853 542.924967312 m 0
 401.154736331 543.264252672 402.418637831 543.042088564 402.759396395 542.555330648 c 2
 583.139401429 284.859843541 l 2
 583.415069588 284.466022458 583.413946369 283.530996562 583.140350574 283.14011729 c 2
 402.758671632 25.4450290742 l 2
 402.417274477 24.9573143958 401.154714869 24.7357623513 400.66963845 25.0753127419 c 0
 400.183086498 25.4158959959 399.960705355 26.6797018165 400.300072873 27.1645612939 c 2
 567.034447873 265.362803481 l 2
 574.786779248 276.437854481 574.768711799 291.587956842 567.034447873 302.637196519 c 2
 400.300722244 540.834510974 l 2
 399.960934062 541.319971462 400.182747955 542.583845206 400.67003853 542.924967312 c 0
EndSplineSet
EndChar

StartChar: numbersign
Encoding: 35 35 35
Width: 700
VWidth: 0
Flags: HW
LayerCount: 2
Fore
SplineSet
116.57421875 226 m 0
 116.57421875 226.593852311 117.480378121 227.5 118.07421875 227.5 c 2
 530.388671875 227.5 l 2
 530.981697541 227.5 531.888671875 226.593026456 531.888671875 226 c 0
 531.888671875 225.406974334 530.981698331 224.5 530.388671875 224.5 c 2
 118.07421875 224.5 l 2
 117.480378972 224.5 116.57421875 225.406146876 116.57421875 226 c 0
168.111328125 457.93359375 m 0
 168.111328125 458.526619416 169.018301669 459.43359375 169.611328125 459.43359375 c 2
 581.92578125 459.43359375 l 2
 582.519621028 459.43359375 583.42578125 458.527446874 583.42578125 457.93359375 c 0
 583.42578125 457.339741438 582.519621879 456.43359375 581.92578125 456.43359375 c 2
 169.611328125 456.43359375 l 2
 169.018302459 456.43359375 168.111328125 457.340567294 168.111328125 457.93359375 c 0
220.917542445 18.3664471366 m 0
 220.33334962 18.4598907058 219.579468368 19.4999013934 219.672928347 20.0843907377 c 2
 322.744132403 664.322140691 l 2
 322.838009668 664.908850245 323.877219717 665.661046092 324.462499971 665.567433553 c 0
 325.048048187 665.473737137 325.801291674 664.433071131 325.707931029 663.849203012 c 2
 222.636726972 19.6114530574 l 2
 222.542876695 19.0249121703 221.503741612 18.2726776699 220.917542445 18.3664471366 c 0
479.091685368 665.566568592 m 0
 479.677965006 665.472750158 480.429644251 664.434124991 480.335936605 663.848700769 c 2
 377.254976078 19.611007964 l 2
 377.161244504 19.0252711202 376.122545686 18.2733383834 375.536789214 18.3670942354 c 0
 374.950595019 18.4608989961 374.199261999 19.4994687585 374.292969645 20.0848929812 c 2
 477.373930172 664.322585786 l 2
 477.467761923 664.908948644 478.506686199 665.660198261 479.091685368 665.566568592 c 0
EndSplineSet
EndChar

StartChar: L
Encoding: 76 76 36
Width: 700
VWidth: 0
Flags: HW
LayerCount: 2
Fore
SplineSet
375.765625 803.930664062 m 0
 376.359464779 803.930664062 377.265625 803.024517187 377.265625 802.430664062 c 0
 377.265625 523.325602335 286.737091815 251.742277089 119.265579745 28.448832816 c 0
 118.910579555 27.9754475498 117.64113465 27.7930669946 117.16547061 28.1498228147 c 0
 116.692490432 28.5045424573 116.509918427 29.7749225785 116.866126749 30.2498877492 c 0
 283.946658526 253.021926395 374.265625 523.975493584 374.265625 802.430664062 c 0
 374.265625 803.023689729 375.172598543 803.930664062 375.765625 803.930664062 c 0
219.84797544 28.5996069919 m 0
 219.550245311 29.1153064071 219.882941871 30.3516348133 220.396327375 30.6480290463 c 0
 332.482806858 95.3603545159 470.583356704 95.3604018039 582.668339884 30.6479054182 c 0
 583.182528729 30.3510473902 583.514034623 29.1116771162 583.218217917 28.5992382399 c 0
 582.921217095 28.0848020602 581.683042969 27.7527401413 581.167899154 28.050162679 c 0
 470.011677394 92.225870763 333.055552821 92.2262342802 221.895578188 28.049599291 c 0
 221.384051029 27.7542469887 220.145897862 28.0836057326 219.84797544 28.5996069919 c 0
EndSplineSet
EndChar

StartChar: F
Encoding: 70 70 37
Width: 700
VWidth: 0
Flags: HW
LayerCount: 2
Fore
SplineSet
118.07421875 805.5 m 0
 118.667244416 805.5 119.57421875 804.593026456 119.57421875 804 c 2
 119.57421875 30.9189453125 l 2
 119.57421875 30.3259196464 118.667245206 29.4189453125 118.07421875 29.4189453125 c 0
 117.480378972 29.4189453125 116.57421875 30.3250921888 116.57421875 30.9189453125 c 2
 116.57421875 804 l 2
 116.57421875 804.593852311 117.480378121 805.5 118.07421875 805.5 c 0
219.654296875 804 m 0
 219.654296875 804.593025666 220.561270419 805.5 221.154296875 805.5 c 2
 581.92578125 805.5 l 2
 582.519621028 805.5 583.42578125 804.593853124 583.42578125 804 c 0
 583.42578125 803.406147688 582.519621879 802.5 581.92578125 802.5 c 2
 221.154296875 802.5 l 2
 220.561271209 802.5 219.654296875 803.406973544 219.654296875 804 c 0
219.654296875 417.461914062 m 0
 219.654296875 418.054939729 220.561270418 418.961914062 221.154296875 418.961914062 c 2
 581.92578125 418.961914062 l 2
 582.519621029 418.961914062 583.42578125 418.055767187 583.42578125 417.461914062 c 0
 583.42578125 416.868061751 582.519621879 415.961914062 581.92578125 415.961914062 c 2
 221.154296875 415.961914062 l 2
 220.56127121 415.961914062 219.654296875 416.868887607 219.654296875 417.461914062 c 0
EndSplineSet
EndChar

StartChar: less
Encoding: 60 60 38
Width: 700
VWidth: 0
Flags: HW
LayerCount: 2
Fore
SplineSet
583.228962093 604.264709835 m 0
 583.516392925 603.747377755 583.164610544 602.513506134 582.646349642 602.225573054 c 2
 172.291857454 374.251940241 l 2
 155.961248088 365.179422664 150.665137646 343.446601082 160.990941129 327.878134237 c 0
 163.848192181 323.570186837 169.294431476 319.096889371 172.291805789 317.431682212 c 2
 582.645858396 89.4573170528 l 2
 583.165018011 89.16888467 583.516789283 87.9359528023 583.228801427 87.4176181648 c 0
 582.940125515 86.8980202137 581.708193352 86.5467924352 581.189594479 86.8349443749 c 2
 117.380097417 344.505802221 l 2
 117.195038793 344.629357363 116.811696196 345.017915612 116.811696196 345.017915612 c 2
 116.462728396 345.575818855 116.819321266 346.864746568 117.337106201 347.152388526 c 2
 581.189680916 604.848263391 l 2
 581.706955937 605.135662522 582.940497522 604.783927385 583.228962093 604.264709835 c 0
EndSplineSet
EndChar

StartChar: A
Encoding: 65 65 39
Width: 700
VWidth: 0
Flags: HW
LayerCount: 2
Fore
SplineSet
298.804713419 808.841547498 m 0
 299.382589221 808.706710847 300.059425019 807.618842654 299.924425144 807.040431844 c 2
 119.533365025 33.9575121654 l 2
 119.398754031 33.3804703868 118.312711127 32.704127867 117.731926227 32.8396818501 c 0
 117.155876114 32.9740615111 116.4787716 34.0622956291 116.613660794 34.6402322187 c 2
 297.004720913 807.723151898 l 2
 297.139223909 808.299730713 298.228423756 808.976045064 298.804713419 808.841547498 c 0
582.266627482 32.8391165655 m 0
 581.690338845 32.7046192389 580.601427791 33.3796908053 580.466286263 33.9590068429 c 2
 400.085109804 807.040443799 l 2
 399.950121144 807.618868809 400.625803801 808.706414551 401.205859798 808.841735978 c 0
 401.781989126 808.976196124 402.870251897 808.300973257 403.005393425 807.721657219 c 2
 583.386569883 34.6402202632 l 2
 583.52158845 34.061667104 582.844569555 32.9739686791 582.266627482 32.8391165655 c 0
245.421875 292 m 0
 245.421875 292.593852312 246.328034371 293.5 246.921875 293.5 c 2
 453.079101562 293.5 l 2
 453.672127229 293.5 454.579101562 292.593026457 454.579101562 292 c 0
 454.579101562 291.406974333 453.672128019 290.5 453.079101562 290.5 c 2
 246.921875 290.5 l 2
 246.328035222 290.5 245.421875 291.406146876 245.421875 292 c 0
EndSplineSet
EndChar

StartChar: quotedbl
Encoding: 34 34 40
Width: 700
VWidth: 0
Flags: HW
LayerCount: 2
Fore
SplineSet
440.1953125 670.9921875 m 0
 439.602286834 670.9921875 438.6953125 671.899161044 438.6953125 672.4921875 c 2
 438.6953125 801.334960938 l 2
 438.6953125 801.927986603 439.602286045 802.834960938 440.1953125 802.834960938 c 0
 440.788338165 802.834960938 441.6953125 801.927987393 441.6953125 801.334960938 c 2
 441.6953125 672.4921875 l 2
 441.6953125 671.899161834 440.788338956 670.9921875 440.1953125 670.9921875 c 0
259.8046875 670.9921875 m 0
 259.211661834 670.9921875 258.3046875 671.899161044 258.3046875 672.4921875 c 2
 258.3046875 801.334960938 l 2
 258.3046875 801.927986603 259.211661045 802.834960938 259.8046875 802.834960938 c 0
 260.397713165 802.834960938 261.3046875 801.927987393 261.3046875 801.334960938 c 2
 261.3046875 672.4921875 l 2
 261.3046875 671.899161834 260.397713956 670.9921875 259.8046875 670.9921875 c 0
EndSplineSet
EndChar

StartChar: n
Encoding: 110 110 41
Width: 700
VWidth: 0
Flags: HW
LayerCount: 2
Fore
SplineSet
118.07421875 27.8076171875 m 0
 117.481193084 27.8076171875 116.57421875 28.7145907318 116.57421875 29.3076171875 c 2
 116.57421875 544.703125 l 2
 116.57421875 545.296150666 117.481192294 546.203125 118.07421875 546.203125 c 0
 118.667244416 546.203125 119.57421875 545.296151456 119.57421875 544.703125 c 2
 119.57421875 29.3076171875 l 2
 119.57421875 28.7145915214 118.667245206 27.8076171875 118.07421875 27.8076171875 c 0
182.501953125 337.041015625 m 0
 181.908927459 337.041015625 181.001953125 337.947989169 181.001953125 338.541015625 c 0
 181.001953125 440.534112794 250.163926998 530.674726656 349.768553454 546.184921989 c 0
 359.906575702 547.763725288 369.955413153 548.543515508 379.858774379 548.575364502 c 0
 490.866036268 548.933554792 583.42578125 455.356564183 583.42578125 338.541015625 c 2
 583.42578125 29.3076171875 l 2
 583.42578125 28.7145915214 582.518807706 27.8076171875 581.92578125 27.8076171875 c 0
 581.332755584 27.8076171875 580.42578125 28.7145907318 580.42578125 29.3076171875 c 2
 580.42578125 338.541015625 l 2
 580.42578125 453.772521127 489.138143156 545.927845944 379.870972034 545.57503624 c 0
 370.118040968 545.544521655 360.21907146 544.776006933 350.22544237 543.220328898 c 0
 252.25164371 527.962328857 184.001953125 439.224425824 184.001953125 338.541015625 c 0
 184.001953125 337.947989959 183.094979581 337.041015625 182.501953125 337.041015625 c 0
EndSplineSet
EndChar

StartChar: C
Encoding: 67 67 42
Width: 700
VWidth: 0
Flags: HW
LayerCount: 2
Fore
SplineSet
118.07421875 466.495117188 m 0
 118.667244415 466.495117188 119.57421875 465.588143643 119.57421875 464.995117188 c 2
 119.57421875 258.842773438 l 2
 119.57421875 131.585110259 222.738883151 28.4189453125 349.998046875 28.4189453125 c 0
 477.259260997 28.4189453125 580.42578125 131.58432065 580.42578125 258.842773438 c 0
 580.42578125 259.435799103 581.332754795 260.342773438 581.92578125 260.342773438 c 0
 582.519621027 260.342773438 583.42578125 259.436626561 583.42578125 258.842773438 c 0
 583.42578125 129.92871964 478.915440102 25.4189453125 349.998046875 25.4189453125 c 0
 221.083774771 25.4189453125 116.57421875 129.929656452 116.57421875 258.842773438 c 2
 116.57421875 464.995117188 l 2
 116.57421875 465.588969498 117.480378122 466.495117188 118.07421875 466.495117188 c 0
118.07421875 566.576171875 m 0
 117.480378972 566.576171875 116.57421875 567.482318751 116.57421875 568.076171875 c 0
 116.57421875 696.995221751 221.084401079 801.5 349.998046875 801.5 c 0
 478.916169724 801.5 583.42578125 696.993739156 583.42578125 568.076171875 c 0
 583.42578125 567.482319563 582.519621879 566.576171875 581.92578125 566.576171875 c 0
 581.332755584 566.576171875 580.42578125 567.483145419 580.42578125 568.076171875 c 0
 580.42578125 695.338005196 477.261057563 798.5 349.998046875 798.5 c 0
 222.740953015 798.5 119.57421875 695.339358445 119.57421875 568.076171875 c 0
 119.57421875 567.483146209 118.667245206 566.576171875 118.07421875 566.576171875 c 0
EndSplineSet
EndChar

StartChar: grave
Encoding: 96 96 43
Width: 700
VWidth: 0
Flags: HW
LayerCount: 2
Fore
SplineSet
116.650396248 772.370524164 m 0
 116.838740982 772.935495949 117.986039263 773.507377435 118.547987653 773.320071652 c 2
 582.400842928 618.70570844 l 2
 582.963099769 618.518299846 583.537025295 617.37145907 583.349263126 616.808141445 c 0
 583.161854534 616.245884608 582.014767226 615.672041251 581.451992874 615.859622339 c 2
 117.600224344 770.473297744 l 2
 117.036735807 770.661158385 116.46330644 771.809254741 116.650396248 772.370524164 c 0
EndSplineSet
EndChar

StartChar: j
Encoding: 106 106 44
Width: 700
VWidth: 0
Flags: HW
LayerCount: 2
Fore
SplineSet
116.748578957 -124.896113241 m 0
 117.044676894 -124.383240952 118.282184142 -124.050808219 118.79703347 -124.348065552 c 0
 186.255658266 -163.294814323 257.596427195 -181.064010997 323.511748042 -181.080077193 c 0
 464.643474395 -181.113875887 580.399414062 -99.7250468544 580.399414062 28.97265625 c 2
 580.399414062 453.818359375 l 2
 580.399414062 472.499884405 563.973497864 487.683875869 545.349558785 486.218177863 c 0
 538.534729842 485.681853021 530.863807554 481.947567776 527.016244805 478.721034769 c 0
 476.180620708 436.090717924 415.963402865 414.010742188 349.970703125 414.010742188 c 0
 349.377677458 414.010742188 348.470703125 414.917715731 348.470703125 415.510742188 c 0
 348.470703125 416.103767853 349.37767667 417.010742188 349.970703125 417.010742188 c 0
 444.122199293 417.010742188 530.656845202 465.556399968 580.635675063 545.167317434 c 0
 580.837125251 545.436530997 581.67617022 545.850617618 581.780587602 545.858837651 c 0
 582.397193206 545.907331961 583.399414062 544.978315808 583.399414062 544.36328125 c 2
 583.399414062 28.97265625 l 2
 583.399414062 -101.965395905 465.633408196 -184.11459448 323.510397418 -184.080078983 c 0
 257.061626074 -184.064810629 185.206904196 -166.15325476 117.296503865 -126.944780417 c 0
 116.783511165 -126.648612963 116.45084842 -125.411813361 116.748578957 -124.896113241 c 0
581.899414062 723.244140625 m 0
 581.306388397 723.244140625 580.399414062 724.15111417 580.399414062 724.744140625 c 2
 580.399414062 776.291992188 l 2
 580.399414062 776.885017852 581.306387608 777.791992188 581.899414062 777.791992188 c 0
 582.492439728 777.791992188 583.399414062 776.885018644 583.399414062 776.291992188 c 2
 583.399414062 724.744140625 l 2
 583.399414062 724.150288313 582.493254691 723.244140625 581.899414062 723.244140625 c 0
EndSplineSet
EndChar

StartChar: q
Encoding: 113 113 45
Width: 700
VWidth: 0
Flags: HW
LayerCount: 2
Fore
SplineSet
581.92578125 544.200195312 m 0
 582.519621029 544.200195312 583.42578125 543.294048437 583.42578125 542.700195312 c 2
 583.42578125 -178.857421875 l 2
 583.42578125 -179.451274187 582.519621879 -180.357421875 581.92578125 -180.357421875 c 0
 581.332755584 -180.357421875 580.42578125 -179.450448331 580.42578125 -178.857421875 c 2
 580.42578125 542.700195312 l 2
 580.42578125 543.293220979 581.332754793 544.200195312 581.92578125 544.200195312 c 0
116.57421875 285 m 0
 116.57421875 424.099303431 216.69584221 549.200195312 349.998046875 549.200195312 c 0
 483.304398184 549.200195312 583.42578125 424.101470125 583.42578125 285 c 0
 583.42578125 145.904416308 483.303980043 20.8046875 349.998046875 20.8046875 c 0
 216.694793177 20.8046875 116.57421875 145.903476224 116.57421875 285 c 0
119.57421875 285 m 0
 119.57421875 148.457396238 217.004138835 23.8046875 349.998046875 23.8046875 c 0
 482.996883425 23.8046875 580.42578125 148.455572457 580.42578125 285 c 0
 580.42578125 421.547136959 482.996643861 546.200195312 349.998046875 546.200195312 c 0
 217.003438031 546.200195312 119.57421875 421.549620493 119.57421875 285 c 0
EndSplineSet
EndChar

StartChar: G
Encoding: 71 71 46
Width: 700
VWidth: 0
Flags: HW
LayerCount: 2
Fore
SplineSet
118.07421875 541.2890625 m 0
 118.667244416 541.2890625 119.57421875 540.382088956 119.57421875 539.7890625 c 2
 119.57421875 181.771484375 l 2
 119.57421875 179.951501459 119.82459766 177.509516277 120.066999331 176.133408012 c 0
 135.475535868 88.6595289688 210.467561022 25.8935546875 298.46484375 25.8935546875 c 0
 387.960098281 25.8935546875 461.887391606 91.1478138775 476.861448065 176.131912097 c 0
 477.177337515 177.924718214 477.354484503 180.373647878 477.354492188 181.771305696 c 2
 477.35546875 359.3984375 l 2
 477.35546875 359.992289812 478.261628121 360.8984375 478.85546875 360.8984375 c 0
 479.448494416 360.8984375 480.35546875 359.991463956 480.35546875 359.3984375 c 2
 480.35546875 179.012695312 l 2
 480.35546875 178.90519507 480.35546875 178.900716523 480.337408075 178.783916234 c 0
 466.454825076 89.0783268574 389.232476846 22.8935546875 298.46484375 22.8935546875 c 0
 207.695467359 22.8935546875 130.472973003 89.0852016604 116.592593875 178.774124399 c 0
 116.576684617 178.877237513 116.57421875 178.893472841 116.57421875 179.012695312 c 2
 116.57421875 539.7890625 l 2
 116.57421875 540.382914811 117.480378121 541.2890625 118.07421875 541.2890625 c 0
117.843908752 641.377521513 m 0
 117.256008377 641.468526508 116.500812199 642.504321534 116.591316764 643.089220465 c 0
 130.473762912 732.795585533 207.695645192 798.974609375 298.46484375 798.974609375 c 0
 389.232969849 798.974609375 466.454986744 732.795335354 480.337342197 643.089556342 c 0
 480.427983792 642.503802897 479.668151393 641.467817024 479.086594249 641.377798713 c 0
 478.498413917 641.28681759 477.463320618 642.045173628 477.372532989 642.631700901 c 0
 463.715938573 730.874677204 387.755449361 795.974609375 298.46484375 795.974609375 c 0
 209.175040538 795.974609375 133.212843094 730.875347742 119.556349638 642.631833595 c 0
 119.465538394 642.045184872 118.43246665 641.286481986 117.843908752 641.377521513 c 0
374.2734375 359.3984375 m 0
 374.2734375 359.991463166 375.180411044 360.8984375 375.7734375 360.8984375 c 2
 581.92578125 360.8984375 l 2
 582.519621028 360.8984375 583.42578125 359.992290624 583.42578125 359.3984375 c 0
 583.42578125 358.804585188 582.519621879 357.8984375 581.92578125 357.8984375 c 2
 375.7734375 357.8984375 l 2
 375.180411834 357.8984375 374.2734375 358.805411044 374.2734375 359.3984375 c 0
EndSplineSet
EndChar

StartChar: K
Encoding: 75 75 47
Width: 700
VWidth: 0
Flags: HW
LayerCount: 2
Fore
SplineSet
118.111328125 807.038085938 m 0
 118.70435379 807.038085938 119.611328125 806.131112393 119.611328125 805.538085938 c 2
 119.611328125 32.45703125 l 2
 119.611328125 31.8640055839 118.704354581 30.95703125 118.111328125 30.95703125 c 0
 117.518302459 30.95703125 116.611328125 31.8640047943 116.611328125 32.45703125 c 2
 116.611328125 805.538085938 l 2
 116.611328125 806.131111603 117.51830167 807.038085938 118.111328125 807.038085938 c 0
582.987006373 806.634945803 m 0
 583.42014341 806.230684569 583.465431556 804.949504148 583.060071574 804.515221015 c 2
 243.941907511 441.175377265 l 2
 231.707023801 428.06661104 233.893584786 407.590796474 243.941758862 396.824782001 c 2
 583.061682281 33.4781705446 l 2
 583.46391038 33.0472758552 583.420936712 31.7651709642 582.987742802 31.3608587187 c 0
 582.554188073 30.9562076381 581.272247306 31.0006496426 580.867754539 31.4340680387 c 2
 220.222663006 417.841615152 l 2
 219.561441892 419.090716462 220.096130435 420.023790066 220.096130435 420.023790066 c 1
 580.867694655 806.56196155 l 2
 581.271484209 806.994593215 582.552541918 807.040445961 582.987006373 806.634945803 c 0
EndSplineSet
EndChar

StartChar: braceright
Encoding: 125 125 48
Width: 700
VWidth: 0
Flags: HW
LayerCount: 2
Fore
SplineSet
380.065416906 734.421262988 m 1
 376.155594025 764.586682671 363.16863663 785.5 311.345703125 785.5 c 0
 310.627561687 785.5 309.845703125 784.718315047 309.845703125 784 c 0
 309.845703125 783.281890174 310.627446835 782.5 311.345703125 782.5 c 0
 315.948804895 782.5 319.982633971 782.271286199 323.321228767 781.973365613 c 0
 331.61664584 781.23312139 339.483167373 778.882220099 346.452481542 775.355958104 c 0
 363.059491775 766.953313651 374.867725117 751.492989291 380.065416906 734.421262988 c 1
331.582205248 562.429675011 m 1
 338.946815625 589.649883797 348.969826976 612.69365615 357.978942782 633.630988023 c 1
 348.943206936 610.917945526 339.203938801 587.072843428 331.582205248 562.429675011 c 1
331.582205248 562.429675011 m 1
 323.591874166 536.594726964 317.928844871 509.882654449 317.843589987 482.678289018 c 0
 317.784383701 463.810752214 324.162913195 449.156664418 334.534154248 439.327851935 c 0
 344.767293304 429.629918546 361.829940518 421.733398438 388.654296875 421.733398438 c 0
 389.372438313 421.733398438 390.154296875 422.51508339 390.154296875 423.233398438 c 0
 390.154296875 423.951508263 389.372553165 424.733398438 388.654296875 424.733398438 c 0
 387.528618858 424.733398438 386.057519317 424.740529502 385.688765309 424.742083013 c 0
 377.028254832 424.778568588 368.702040112 426.60753528 361.315587106 429.731603678 c 0
 335.731728592 440.552186143 320.110818918 465.551048739 320.999449744 491.929932999 c 0
 321.893593308 518.47246215 325.964487701 541.666124273 331.582205248 562.429675011 c 1
357.978942782 633.630988023 m 1
 366.249492646 652.851879236 373.665571424 670.297544522 377.386029642 687.56947995 c 1
 372.469977138 670.493908085 365.465975808 652.451074301 357.978942782 633.630988023 c 1
342.584620664 200.683605491 m 1
 356.16507786 158.475942087 371.259065193 120.684397214 377.369127217 88.4388077696 c 0
 379.135862336 76.9223420593 378.451802762 69.7988561629 376.076731496 61.0791626754 c 0
 368.160554732 32.0161884485 342.12118802 12.5446573069 313.57201088 12.4245101183 c 0
 312.681798676 12.4207637233 312.374997468 12.4189453125 311.345703125 12.4189453125 c 0
 310.627561687 12.4189453125 309.845703125 11.63726036 309.845703125 10.9189453125 c 0
 309.845703125 10.2008354868 310.627446835 9.4189453125 311.345703125 9.4189453125 c 0
 338.156522452 9.4189453125 355.236296801 17.3246824878 365.456402126 27.0117752331 c 0
 375.863202281 36.8758260513 382.208308139 51.4782558245 382.156371766 70.3778316975 c 0
 382.004447197 125.877411986 362.82029495 153.26697699 342.584620664 200.683605491 c 1
319.626445323 316.490807716 m 1
 320.420481602 320.603439652 321.611248141 324.679358498 323.041273701 328.258549015 c 0
 333.263498563 353.843609399 356.711349622 369.074132913 381.00307587 370.034777809 c 0
 383.880961498 370.148587182 386.354970024 370.190429688 388.654296875 370.190429688 c 0
 389.372438313 370.190429688 390.154296875 370.97211464 390.154296875 371.690429688 c 0
 390.154296875 372.408539513 389.372553165 373.190429688 388.654296875 373.190429688 c 0
 378.598400543 373.190429688 370.099613619 372.408583808 362.955296454 371.094535035 c 0
 329.668329571 364.972088764 321.003822306 349.21814078 319.626445323 316.490807716 c 1
EndSplineSet
EndChar

StartChar: d
Encoding: 100 100 49
Width: 700
VWidth: 0
Flags: HW
LayerCount: 2
Fore
SplineSet
581.92578125 803.880859375 m 0
 582.519621028 803.880859375 583.42578125 802.974712499 583.42578125 802.380859375 c 2
 583.42578125 29.2998046875 l 2
 583.42578125 28.7059523759 582.519621879 27.7998046875 581.92578125 27.7998046875 c 0
 581.332755584 27.7998046875 580.42578125 28.7067782318 580.42578125 29.2998046875 c 2
 580.42578125 802.380859375 l 2
 580.42578125 802.973885041 581.332754794 803.880859375 581.92578125 803.880859375 c 0
116.57421875 287 m 0
 116.57421875 426.085538735 216.695499223 551.1953125 349.998046875 551.1953125 c 0
 483.30464766 551.1953125 583.42578125 426.086752123 583.42578125 287 c 0
 583.42578125 147.899024077 483.304718885 22.7998046875 349.998046875 22.7998046875 c 0
 216.695201963 22.7998046875 116.57421875 147.900096791 116.57421875 287 c 0
119.57421875 287 m 0
 119.57421875 150.450884806 217.00509163 25.7998046875 349.998046875 25.7998046875 c 0
 482.996181354 25.7998046875 580.42578125 150.451076942 580.42578125 287 c 0
 580.42578125 423.532971062 482.995613487 548.1953125 349.998046875 548.1953125 c 0
 217.00347287 548.1953125 119.57421875 423.535317955 119.57421875 287 c 0
EndSplineSet
EndChar

StartChar: m
Encoding: 109 109 50
Width: 700
VWidth: 0
Flags: HW
LayerCount: 2
Fore
SplineSet
118.07421875 27.4140625 m 0
 117.480378972 27.4140625 116.57421875 28.3202093763 116.57421875 28.9140625 c 2
 116.57421875 544.309570312 l 2
 116.57421875 544.903422624 117.48037812 545.809570312 118.07421875 545.809570312 c 0
 118.667244417 545.809570312 119.57421875 544.902596769 119.57421875 544.309570312 c 2
 119.57421875 28.9140625 l 2
 119.57421875 28.3210368339 118.667245206 27.4140625 118.07421875 27.4140625 c 0
182.501953125 465.5 m 0
 181.908927459 465.5 181.001953125 466.406973544 181.001953125 467 c 0
 181.001953125 514.322687751 224.281102558 549.278967646 272.799005425 545.80557784 c 0
 315.951213519 542.717114541 351.498046875 509.490667029 351.498046875 467 c 2
 351.498046875 28.9140625 l 2
 351.498046875 28.3210368339 350.591073331 27.4140625 349.998046875 27.4140625 c 0
 349.404207097 27.4140625 348.498046875 28.3202093767 348.498046875 28.9140625 c 2
 348.498046875 467 l 2
 348.498046875 507.691914535 314.391360972 539.82123137 272.58717856 542.81346124 c 0
 225.447556888 546.189382349 184.001953125 512.294717212 184.001953125 467 c 0
 184.001953125 466.406147689 183.095793754 465.5 182.501953125 465.5 c 0
414.42578125 465.5 m 0
 413.832755584 465.5 412.92578125 466.406973544 412.92578125 467 c 0
 412.92578125 514.323507006 456.214178601 549.279619831 504.722755324 545.805583439 c 0
 547.875139916 542.717002842 583.42578125 509.49146921 583.42578125 467 c 2
 583.42578125 28.9140625 l 2
 583.42578125 28.3202101884 582.519621879 27.4140625 581.92578125 27.4140625 c 0
 581.332755584 27.4140625 580.42578125 28.3210360443 580.42578125 28.9140625 c 2
 580.42578125 467 l 2
 580.42578125 507.691241655 546.316406218 539.821359076 504.510645379 542.813487113 c 0
 457.378965491 546.188311466 415.92578125 512.294923671 415.92578125 467 c 0
 415.92578125 466.406147688 415.019621879 465.5 414.42578125 465.5 c 0
EndSplineSet
EndChar

StartChar: v
Encoding: 118 118 51
Width: 700
VWidth: 0
Flags: HW
LayerCount: 2
Fore
SplineSet
401.049068827 32.8426675655 m 0
 400.489073985 33.0386704241 399.933918205 34.1940248317 400.129638596 34.7532703077 c 2
 580.510808891 550.149666539 l 2
 580.706669961 550.709345062 581.861916483 551.265678636 582.42158673 551.069800264 c 0
 582.981958269 550.873665559 583.537966083 549.718700249 583.342041091 549.158839067 c 2
 402.960870798 33.7624428372 l 2
 402.765459604 33.2040498481 401.611922032 32.6457064424 401.049068827 32.8426675655 c 0
117.578018021 551.069661924 m 0
 118.137301244 551.26541571 119.294162916 550.70871009 119.489676914 550.150231564 c 2
 299.880001949 34.754604263 l 2
 300.07622055 34.1939352157 299.521007702 33.0397263186 298.958155437 32.8427545887 c 0
 298.400390777 32.6475013445 297.244369563 33.2030115222 297.048409023 33.7628543731 c 2
 116.658083989 549.158481673 l 2
 116.462134861 549.718380736 117.018022396 550.873658791 117.578018021 551.069661924 c 0
EndSplineSet
EndChar

StartChar: a
Encoding: 97 97 52
Width: 700
VWidth: 0
Flags: HW
LayerCount: 2
Fore
SplineSet
145.029296875 539 m 0
 145.029296875 539.593025666 145.936270419 540.5 146.529296875 540.5 c 0
 203.01278647 540.5 245.430604649 523.037743769 279.179118139 494.460061155 c 1
 243.842441334 521.256812766 200.939412691 537.500002746 146.529296875 537.5 c 0
 145.936271209 537.5 145.029296875 538.406973544 145.029296875 539 c 0
279.179118139 494.460061155 m 1
 406.357190921 386.767791178 410.423574222 121.226770787 580.163060632 37.4855302291 c 1
 439.617010445 126.13032294 416.678746324 390.190394105 279.179118139 494.460061155 c 1
580.163060632 37.4855302291 m 1
 590.072132144 32.596874128 600.545818341 28.3277924978 611.641573901 24.7458596173 c 0
 611.919672766 24.1569357267 611.900474612 23.4026463377 611.78729468 23.0916703394 c 0
 611.654930382 22.7280183427 611.0277057 22.1195531669 610.502662103 21.9553008796 c 0
 599.798365571 26.2527227946 589.709416634 31.4644802685 580.163060632 37.4855302291 c 1
132.148266723 152.452255745 m 0
 132.387076767 225.588418868 192.018008343 283.598265688 263.676107306 283.360518494 c 0
 267.587767762 283.347981121 271.527373549 283.161473458 275.512952472 282.792833062 c 0
 342.519875406 276.608105915 393.357597749 219.822098188 392.833936613 152.430275799 c 0
 392.290601798 80.5642500991 334.275684262 22.3019449607 262.49583138 22.1043699707 c 0
 190.408503766 21.9066734851 131.916279219 80.3736599908 132.148266723 152.452255745 c 0
135.148608175 152.442247148 m 0
 134.922804723 82.0309546544 192.066290922 24.9117620733 262.487910155 25.1046153471 c 0
 332.605862807 25.297651137 389.302941861 82.2139071699 389.834956417 152.459387901 c 0
 390.346569763 218.301801106 340.687070015 273.76497904 275.231276152 279.806768191 c 0
 271.354344409 280.164618938 267.477590809 280.348473033 263.663351891 280.360173151 c 0
 193.651789543 280.592155752 135.382656734 223.90420203 135.148608175 152.442247148 c 0
EndSplineSet
EndChar

StartChar: V
Encoding: 86 86 53
Width: 700
VWidth: 0
Flags: HW
LayerCount: 2
Fore
SplineSet
401.204675306 22.7776810784 m 0
 400.62754056 22.9123375711 399.949520312 24.0006697671 400.084452389 24.5790879414 c 2
 580.465658413 797.661628461 l 2
 580.600038005 798.237678279 581.68640981 798.915217977 582.268450563 798.779370881 c 0
 582.843759987 798.645171227 583.522050466 797.556480557 583.387225234 796.978520399 c 2
 403.006863022 23.8986195845 l 2
 402.871397852 23.318215205 401.781438202 22.6430803099 401.204675306 22.7776810784 c 0
117.733184088 798.779980083 m 0
 118.308253084 798.914192763 119.399725672 798.23842461 119.534776706 797.659763469 c 2
 299.925054495 24.5801969444 l 2
 300.060275655 24.0005707385 299.383003791 22.9124953425 298.804282765 22.777492617 c 0
 298.228026208 22.6430100145 297.138483642 23.3186639384 297.003309231 23.8978537188 c 2
 116.613031442 796.977420242 l 2
 116.477780403 797.557174524 117.156540196 798.645438116 117.733184088 798.779980083 c 0
EndSplineSet
EndChar

StartChar: at
Encoding: 64 64 54
Width: 700
VWidth: 0
Flags: HW
LayerCount: 2
Fore
SplineSet
377.2734375 424.314453125 m 0
 377.2734375 423.720600813 376.367278129 422.814453125 375.7734375 422.814453125 c 0
 305.44521272 422.814453125 248.421875 365.79330319 248.421875 295.461914062 c 0
 248.421875 225.124024068 305.447859233 168.119140625 375.7734375 168.119140625 c 0
 376.367277278 168.119140625 377.2734375 167.212993749 377.2734375 166.619140625 c 0
 377.2734375 166.025288313 376.367278129 165.119140625 375.7734375 165.119140625 c 0
 303.787713101 165.119140625 245.421875 223.466359415 245.421875 295.461914062 c 0
 245.421875 367.453408038 303.787764298 425.814453125 375.7734375 425.814453125 c 0
 376.367277278 425.814453125 377.2734375 424.908306249 377.2734375 424.314453125 c 0
478.85546875 425.814453125 m 0
 479.448494416 425.814453125 480.35546875 424.907479581 480.35546875 424.314453125 c 2
 480.35546875 166.619140625 l 2
 480.35546875 138.99345638 502.758691393 116.571289062 530.388671875 116.571289062 c 0
 541.886608409 116.571289062 552.694341656 120.550538094 561.145295139 127.139966327 c 0
 572.813867146 136.238255411 580.42578125 150.618346557 580.42578125 166.619140625 c 2
 580.42578125 450.076171875 l 2
 580.42578125 577.338005196 477.261057563 680.5 349.998046875 680.5 c 0
 222.740090554 680.5 119.57421875 577.340222134 119.57421875 450.076171875 c 0
 119.57421875 449.483146209 118.667245206 448.576171875 118.07421875 448.576171875 c 0
 117.480378972 448.576171875 116.57421875 449.482318751 116.57421875 450.076171875 c 0
 116.57421875 578.995115822 221.085356116 683.5 349.998046875 683.5 c 0
 478.916169724 683.5 583.42578125 578.993739156 583.42578125 450.076171875 c 2
 583.42578125 166.619140625 l 2
 583.42578125 137.324869154 559.672380313 113.571289062 530.388671875 113.571289062 c 0
 501.089495244 113.571289062 477.35546875 137.33091576 477.35546875 166.619140625 c 2
 477.35546875 424.314453125 l 2
 477.35546875 424.908305437 478.261628121 425.814453125 478.85546875 425.814453125 c 0
118.07421875 374.271484375 m 0
 118.667244416 374.271484375 119.57421875 373.364510831 119.57421875 372.771484375 c 0
 119.57421875 157.608014141 238.159745706 -40.0435253201 428.0119 -141.289940414 c 0
 428.536896454 -141.569930209 428.909666923 -142.796864229 428.630627992 -143.320136033 c 0
 428.351466052 -143.843607418 427.123578517 -144.216536878 426.601982543 -143.938375076 c 0
 235.770274639 -42.1676939635 116.57421875 156.499748428 116.57421875 372.771484375 c 0
 116.57421875 373.365336686 117.480378121 374.271484375 118.07421875 374.271484375 c 0
EndSplineSet
EndChar

StartChar: plus
Encoding: 43 43 55
Width: 700
VWidth: 0
Flags: HW
LayerCount: 2
Fore
SplineSet
168.111328125 316 m 0
 168.111328125 316.593025666 169.018301669 317.5 169.611328125 317.5 c 2
 530.388671875 317.5 l 2
 530.981697541 317.5 531.888671875 316.593026456 531.888671875 316 c 0
 531.888671875 315.406974334 530.981698331 314.5 530.388671875 314.5 c 2
 169.611328125 314.5 l 2
 169.018302459 314.5 168.111328125 315.406973544 168.111328125 316 c 0
349.998046875 134.114257812 m 0
 349.404207098 134.114257812 348.498046875 135.02040469 348.498046875 135.614257812 c 2
 348.498046875 496.380859375 l 2
 348.498046875 496.974711686 349.404206246 497.880859375 349.998046875 497.880859375 c 0
 350.591072541 497.880859375 351.498046875 496.973885831 351.498046875 496.380859375 c 2
 351.498046875 135.614257812 l 2
 351.498046875 135.021232147 350.59107333 134.114257812 349.998046875 134.114257812 c 0
EndSplineSet
EndChar

StartChar: B
Encoding: 66 66 56
Width: 700
VWidth: 0
Flags: HW
LayerCount: 2
Fore
SplineSet
118.07421875 801.823242188 m 0
 118.667244415 801.823242188 119.57421875 800.916268643 119.57421875 800.323242188 c 2
 119.57421875 27.2421875 l 2
 119.57421875 26.6499759518 118.666418557 25.7421875 118.07421875 25.7421875 c 0
 117.481205591 25.7421875 116.57421875 26.6491485492 116.57421875 27.2421875 c 2
 116.57421875 800.323242188 l 2
 116.57421875 800.917094498 117.480378122 801.823242188 118.07421875 801.823242188 c 0
219.654296875 800.323242188 m 0
 219.654296875 800.916267853 220.56127042 801.823242188 221.154296875 801.823242188 c 2
 374.98828125 801.823242188 l 2
 380.840862055 801.823242188 385.921506331 802.23478507 388.436214963 802.235353237 c 0
 495.290900429 802.269657581 583.42578125 715.511321188 583.42578125 607.056640625 c 0
 583.42578125 602.767027793 583.288204844 598.518388211 583.016315388 594.298227495 c 0
 576.153447251 487.661037812 483.90047562 405.29753886 375.676972139 412.288855378 c 0
 375.084308414 412.327137931 374.238791381 413.289415044 374.277143704 413.882707727 c 0
 374.315387528 414.474802964 375.277549377 415.320757268 375.870580763 415.282452977 c 0
 482.42890323 408.398433447 573.265849033 489.499495363 580.02362052 594.490209345 c 0
 580.291480096 598.649081716 580.42578125 602.839471264 580.42578125 607.056640625 c 0
 580.42578125 713.843291536 493.643212726 799.268288564 388.437139292 799.235350274 c 0
 384.279046649 799.23417964 380.091724086 799.100208876 375.865021858 798.826688876 c 0
 375.776694355 798.820972766 375.816835151 798.823242188 375.7734375 798.823242188 c 2
 221.154296875 798.823242188 l 2
 220.562097834 798.823242188 219.654296875 799.731029911 219.654296875 800.323242188 c 0
219.654296875 413.78515625 m 0
 219.654296875 414.378181916 220.561270419 415.28515625 221.154296875 415.28515625 c 2
 374.990234375 415.28515625 l 2
 380.84054605 415.28515625 385.925078069 415.695722612 388.436304312 415.696289736 c 0
 495.291047367 415.718044745 583.42578125 328.972986376 583.42578125 220.513671875 c 0
 583.42578125 216.53128746 583.307073187 212.573908951 583.073486169 208.658186788 c 0
 576.639951298 100.986319878 483.55690634 19.7176389489 376.517109195 25.6916879827 c 0
 375.942400754 25.7237633088 375.132581699 25.7421875 374.706054688 25.7421875 c 2
 221.154296875 25.7421875 l 2
 220.562097835 25.7421875 219.654296875 26.6499752236 219.654296875 27.2421875 c 0
 219.654296875 27.8352131661 220.561270419 28.7421875 221.154296875 28.7421875 c 2
 375.7734375 28.7421875 l 2
 375.817863214 28.7421875 375.835514696 28.7416177835 375.87014462 28.7393862609 c 0
 482.428147348 21.8603922724 573.265855021 102.947409071 580.02362052 207.946264033 c 0
 580.291505122 212.105524967 580.42578125 216.296501491 580.42578125 220.513671875 c 0
 580.42578125 327.305886546 493.646061755 412.717462409 388.435178434 412.696287772 c 0
 384.267896106 412.695113559 380.096991515 412.560939967 375.867260901 412.288810876 c 0
 375.760152986 412.281890057 375.816964435 412.28515625 375.7734375 412.28515625 c 2
 221.154296875 412.28515625 l 2
 220.562097835 412.28515625 219.654296875 413.192943974 219.654296875 413.78515625 c 0
EndSplineSet
EndChar

StartChar: w
Encoding: 119 119 57
Width: 700
VWidth: 0
Flags: HW
LayerCount: 2
Fore
SplineSet
504.393932161 28.2938080052 m 0
 503.807810172 28.3817014573 503.045324644 29.4108479596 503.133593297 29.99923289 c 2
 580.44332823 545.395838297 l 2
 580.531139057 545.981378268 581.560120341 546.743759164 582.149994332 546.655267125 c 0
 582.735287921 546.567497897 583.497537205 545.537627065 583.409375453 544.94998586 c 2
 506.09964052 29.5533804528 l 2
 506.011829679 28.9678403918 504.980488799 28.2058136306 504.393932161 28.2938080052 c 0
117.850963412 546.655410745 m 0
 118.437519091 546.743404976 119.468724078 545.982291039 119.55683639 545.394740702 c 2
 196.866491923 29.9986647924 l 2
 196.954457744 29.4122984919 196.193700521 28.381932616 195.605110103 28.2936643271 c 0
 195.01874377 28.2056985017 193.988308285 28.9669202893 193.90019352 29.5544869814 c 2
 116.590539327 544.949577397 l 2
 116.502323926 545.537607364 117.265936258 546.567681472 117.850963412 546.655410745 c 0
298.170158129 28.3054936992 m 0
 297.584719005 28.4226065547 296.877069196 29.4903920344 296.993034741 30.0702817395 c 2
 348.526036455 287.764587156 l 2
 348.647487869 288.371813479 349.815462021 289.082681767 350.406266746 288.915404995 c 0
 350.809813623 288.80116515 351.386447818 288.17570187 351.468251143 287.766782052 c 2
 403.016155723 30.0712045215 l 2
 403.132451795 29.4898484429 402.420265596 28.4222359977 401.840086795 28.3061754316 c 0
 401.257416707 28.1896227307 400.190938745 28.9012598956 400.074689866 29.48238006 c 2
 381.870588303 120.485309747 l 2
 378.206159353 138.803916078 359.120964231 150.470948558 341.146325567 145.380590777 c 0
 329.241794403 142.009267215 320.345378412 131.546799398 318.132949634 120.483468266 c 2
 299.93438052 29.4808566753 l 2
 299.818658947 28.9020322767 298.755388044 28.188491502 298.170158129 28.3054936992 c 0
EndSplineSet
EndChar

StartChar: P
Encoding: 80 80 58
Width: 700
VWidth: 0
Flags: HW
LayerCount: 2
Fore
SplineSet
118.07421875 805.038085938 m 0
 118.667244415 805.038085938 119.57421875 804.131112393 119.57421875 803.538085938 c 2
 119.57421875 30.45703125 l 2
 119.57421875 29.8640055839 118.667245206 28.95703125 118.07421875 28.95703125 c 0
 117.480378972 28.95703125 116.57421875 29.8631781263 116.57421875 30.45703125 c 2
 116.57421875 803.538085938 l 2
 116.57421875 804.131938248 117.480378122 805.038085938 118.07421875 805.038085938 c 0
219.654296875 803.538085938 m 0
 219.654296875 804.131111603 220.56127042 805.038085938 221.154296875 805.038085938 c 2
 374.98828125 805.038085938 l 2
 380.840862055 805.038085938 385.921506331 805.44962882 388.436214963 805.450196987 c 0
 495.290900429 805.484501331 583.42578125 718.726164938 583.42578125 610.271484375 c 0
 583.42578125 606.289185671 583.307062808 602.33154723 583.073494232 598.416134231 c 0
 576.639939699 490.751459938 483.557931295 409.471334121 376.517343159 415.449432899 c 0
 375.942250329 415.481551199 375.131893697 415.5 374.705078125 415.5 c 2
 221.154296875 415.5 l 2
 220.561271209 415.5 219.654296875 416.406973544 219.654296875 417 c 0
 219.654296875 417.593025666 220.561270419 418.5 221.154296875 418.5 c 2
 375.7734375 418.5 l 2
 375.813778647 418.5 375.843923217 418.499010427 375.870580763 418.497296727 c 0
 482.428712534 411.613289517 573.265859911 492.713331824 580.02362052 597.705053095 c 0
 580.291455178 601.86353858 580.42578125 606.053531165 580.42578125 610.271484375 c 0
 580.42578125 717.058135286 493.643217006 802.483132315 388.437134137 802.450194023 c 0
 384.297508631 802.449027931 380.039846946 802.31062276 375.902970273 802.042989601 c 0
 375.789442082 802.035776009 375.825142064 802.038085938 375.7734375 802.038085938 c 2
 221.154296875 802.038085938 l 2
 220.561271208 802.038085938 219.654296875 802.945059481 219.654296875 803.538085938 c 0
EndSplineSet
EndChar

StartChar: five
Encoding: 53 53 59
Width: 700
VWidth: 0
Flags: HW
LayerCount: 2
Fore
SplineSet
242.591796875 800 m 0
 242.591796875 800.593025666 243.498770419 801.5 244.091796875 801.5 c 2
 579.096679688 801.5 l 2
 579.689705353 801.5 580.596679688 800.593026455 580.596679688 800 c 0
 580.596679688 799.406974335 579.689706143 798.5 579.096679688 798.5 c 2
 244.091796875 798.5 l 2
 243.498771209 798.5 242.591796875 799.406973544 242.591796875 800 c 0
141.138550057 801.495186958 m 0
 141.734875102 801.445451392 142.559813298 800.46499827 142.510726783 799.876053004 c 2
 119.807601783 527.470779567 l 2
 118.085923715 506.813086626 137.04234469 492.271484375 152.1953125 492.271484375 c 2
 372.944335938 492.271484375 l 2
 373.016339317 492.271484375 373.010393887 492.271484375 373.084803118 492.264467546 c 0
 383.081981238 491.319079415 392.863423249 489.766860994 402.390536087 487.649820157 c 0
 527.152975339 459.926262633 609.113219347 335.323908358 580.560568104 206.983705236 c 0
 556.51922939 98.9055910935 458.311920803 24.3226032292 347.153339856 25.4183141714 c 0
 237.390358449 26.5101273015 141.871106901 100.806158978 113.793886209 206.925161561 c 0
 113.641990228 207.499260527 114.286018606 208.607068962 114.861323523 208.75926933 c 0
 115.434098724 208.910846115 116.541375997 208.267741821 116.69348638 207.692745871 c 0
 144.426711949 102.877002067 238.769855625 29.4954081288 347.184632294 28.4195466405 c 0
 456.98786329 27.3375082111 553.911218377 101.003943937 577.632602627 207.634587391 c 0
 605.820636266 334.338237325 524.904997106 457.352320719 401.737802457 484.722050549 c 0
 392.778895054 486.71177992 383.850733587 488.119592626 374.715335281 489.089752721 c 0
 373.625388878 489.205502737 372.104197815 489.271484375 371.283203125 489.271484375 c 2
 115.685100681 489.271484375 l 2
 114.959880058 489.520108261 113.910188101 490.422298844 113.739678498 490.670249774 c 0
 113.739305999 490.751033058 113.740060497 490.787734078 113.749044811 490.89550299 c 2
 139.520349861 800.122844348 l 2
 139.569957311 800.717602008 140.549396592 801.544290825 141.138550057 801.495186958 c 0
EndSplineSet
EndChar

StartChar: p
Encoding: 112 112 60
Width: 700
VWidth: 0
Flags: HW
LayerCount: 2
Fore
SplineSet
118.07421875 544.200195312 m 0
 118.667244417 544.200195312 119.57421875 543.293221769 119.57421875 542.700195312 c 2
 119.57421875 -178.857421875 l 2
 119.57421875 -179.450447541 118.667245206 -180.357421875 118.07421875 -180.357421875 c 0
 117.480378972 -180.357421875 116.57421875 -179.451274999 116.57421875 -178.857421875 c 2
 116.57421875 542.700195312 l 2
 116.57421875 543.294047624 117.48037812 544.200195312 118.07421875 544.200195312 c 0
116.57421875 285 m 0
 116.57421875 424.099303431 216.69584221 549.200195312 349.998046875 549.200195312 c 0
 483.304398184 549.200195312 583.42578125 424.101470125 583.42578125 285 c 0
 583.42578125 145.904416308 483.303980043 20.8046875 349.998046875 20.8046875 c 0
 216.694793177 20.8046875 116.57421875 145.903476224 116.57421875 285 c 0
119.57421875 285 m 0
 119.57421875 148.457396238 217.004138835 23.8046875 349.998046875 23.8046875 c 0
 482.996883425 23.8046875 580.42578125 148.455572457 580.42578125 285 c 0
 580.42578125 421.547136959 482.996643861 546.200195312 349.998046875 546.200195312 c 0
 217.003438031 546.200195312 119.57421875 421.549620493 119.57421875 285 c 0
EndSplineSet
EndChar

StartChar: seven
Encoding: 55 55 61
Width: 700
VWidth: 0
Flags: HW
LayerCount: 2
Fore
SplineSet
124.516601562 26.4189453125 m 0
 123.923575897 26.4189453125 123.016601562 27.325918857 123.016601562 27.9189453125 c 0
 123.016601562 106.868997359 150.728296172 174.113336563 192.412773132 235.578962335 c 1
 152.403960478 174.309312369 126.016601929 106.925083341 126.016601562 27.9189453125 c 0
 126.016601562 27.3259196455 125.109628019 26.4189453125 124.516601562 26.4189453125 c 0
192.412773132 235.578962335 m 1
 278.206438147 362.085557235 423.189597069 464.113195821 507.579323957 593.336516237 c 1
 421.781980205 466.835321744 276.798758839 364.807987713 192.412773132 235.578962335 c 1
507.579323957 593.336516237 m 1
 547.592565017 654.607527776 573.983398753 721.992579152 573.983398438 801 c 0
 573.983398438 801.593025667 574.890371981 802.5 575.483398438 802.5 c 0
 576.076424103 802.5 576.983398438 801.593026455 576.983398438 801 c 0
 576.983398438 722.048458228 549.268201542 654.803369679 507.579323957 593.336516237 c 1
123.016601562 801 m 0
 123.016601562 801.593025666 123.923575108 802.5 124.516601562 802.5 c 2
 485.297851562 802.5 l 2
 485.890877229 802.5 486.797851562 801.593026457 486.797851562 801 c 0
 486.797851562 800.406974333 485.890878019 799.5 485.297851562 799.5 c 2
 124.516601562 799.5 l 2
 123.923575897 799.5 123.016601562 800.406973544 123.016601562 801 c 0
EndSplineSet
EndChar

StartChar: hyphen
Encoding: 45 45 62
Width: 700
VWidth: 0
Flags: HW
LayerCount: 2
Fore
SplineSet
142.337890625 402 m 0
 142.337890625 402.593025666 143.244864169 403.5 143.837890625 403.5 c 2
 556.162109375 403.5 l 2
 556.755135041 403.5 557.662109375 402.593026456 557.662109375 402 c 0
 557.662109375 401.406974334 556.755135831 400.5 556.162109375 400.5 c 2
 143.837890625 400.5 l 2
 143.244864959 400.5 142.337890625 401.406973544 142.337890625 402 c 0
EndSplineSet
EndChar

StartChar: six
Encoding: 54 54 63
Width: 700
VWidth: 0
Flags: HW
LayerCount: 2
Fore
SplineSet
351.327222884 802.575160644 m 0
 351.615643157 802.056849612 351.265265486 800.824512555 350.745417369 800.535268127 c 0
 210.529619721 722.514567365 122.458208318 575.718698588 119.592112503 415.280486035 c 0
 116.813842869 259.965843782 194.527532277 114.245670351 325.057803203 30.0254946586 c 0
 325.55653156 29.703688273 325.826566399 28.4489048057 325.505963408 27.9519624218 c 0
 325.183697938 27.4525225853 323.929538809 27.1824315344 323.430886298 27.5041689139 c 0
 192.028464728 112.288212372 113.794675626 258.979614124 116.593449252 415.335580807 c 0
 119.478323532 576.841157854 208.13605415 724.615637052 349.286131985 803.155761313 c 0
 349.806370977 803.445223224 351.039677709 803.091923766 351.327222884 802.575160644 c 0
400.103510913 28.4197272882 m 0
 399.966647553 29.0000841811 400.642293189 30.0884239448 401.220232725 30.2247794635 c 0
 507.705411967 55.346350962 582.312823224 151.266382373 580.444498297 260.663276743 c 0
 578.280983031 387.58837535 476.428804009 490.39902248 350.007641318 491.116664372 c 0
 222.454790398 491.84038786 118.869737419 388.256751579 119.592317401 260.696919338 c 0
 119.595681938 260.102455615 118.693744752 259.191309619 118.101216213 259.187956036 c 0
 117.508010848 259.184598621 116.595612793 260.086392292 116.592251435 260.680294514 c 0
 115.85981104 389.908479731 220.802391821 494.849284697 350.024378857 494.1177118 c 0
 478.111730162 493.390142159 581.253248561 389.233608158 583.445163908 260.713845863 c 0
 585.336688298 149.906905303 509.768639691 52.750454926 401.906784412 27.3043021122 c 0
 401.333382643 27.1690099221 400.240250935 27.8402204532 400.103510913 28.4197272882 c 0
EndSplineSet
EndChar

StartChar: E
Encoding: 69 69 64
Width: 700
VWidth: 0
Flags: HW
LayerCount: 2
Fore
SplineSet
118.07421875 802.038085938 m 0
 118.667244415 802.038085938 119.57421875 801.131112393 119.57421875 800.538085938 c 2
 119.57421875 27.45703125 l 2
 119.57421875 26.8640055839 118.667245206 25.95703125 118.07421875 25.95703125 c 0
 117.480378972 25.95703125 116.57421875 26.8631781263 116.57421875 27.45703125 c 2
 116.57421875 800.538085938 l 2
 116.57421875 801.131938248 117.480378122 802.038085938 118.07421875 802.038085938 c 0
219.654296875 800.538085938 m 0
 219.654296875 801.131111603 220.56127042 802.038085938 221.154296875 802.038085938 c 2
 581.92578125 802.038085938 l 2
 582.519621027 802.038085938 583.42578125 801.131939061 583.42578125 800.538085938 c 0
 583.42578125 799.944233626 582.51962188 799.038085938 581.92578125 799.038085938 c 2
 221.154296875 799.038085938 l 2
 220.561271208 799.038085938 219.654296875 799.945059481 219.654296875 800.538085938 c 0
219.654296875 414 m 0
 219.654296875 414.593025666 220.561270419 415.5 221.154296875 415.5 c 2
 581.92578125 415.5 l 2
 582.519621028 415.5 583.42578125 414.593853124 583.42578125 414 c 0
 583.42578125 413.406147688 582.519621879 412.5 581.92578125 412.5 c 2
 221.154296875 412.5 l 2
 220.561271209 412.5 219.654296875 413.406973544 219.654296875 414 c 0
583.42578125 27.45703125 m 0
 583.42578125 26.8631789384 582.519621879 25.95703125 581.92578125 25.95703125 c 2
 221.154296875 25.95703125 l 2
 220.561271209 25.95703125 219.654296875 26.8640047943 219.654296875 27.45703125 c 0
 219.654296875 28.0500569161 220.561270419 28.95703125 221.154296875 28.95703125 c 2
 581.92578125 28.95703125 l 2
 582.519621028 28.95703125 583.42578125 28.0508843741 583.42578125 27.45703125 c 0
EndSplineSet
EndChar

StartChar: g
Encoding: 103 103 65
Width: 700
VWidth: 0
Flags: HW
LayerCount: 2
Fore
SplineSet
116.77552775 -126.563074589 m 0
 117.069970259 -126.052985349 118.306650559 -125.717679515 118.823730194 -126.016224555 c 0
 186.282547295 -164.962031278 257.622880451 -182.73002664 323.538358512 -182.746092875 c 0
 464.670217711 -182.778835146 580.42578125 -101.393336404 580.42578125 27.3046875 c 2
 580.42578125 542.700195312 l 2
 580.42578125 543.293220979 581.332754793 544.200195312 581.92578125 544.200195312 c 0
 582.519621029 544.200195312 583.42578125 543.294048437 583.42578125 542.700195312 c 2
 583.42578125 27.3046875 l 2
 583.42578125 -103.632929437 465.659153654 -185.77970187 323.536764705 -185.746094608 c 0
 257.088969303 -185.730826273 185.232789322 -167.819150926 117.323110175 -128.613299995 c 0
 116.810037472 -128.317104275 116.477728658 -127.078893454 116.77552775 -126.563074589 c 0
119.57421875 285 m 0
 119.57421875 148.457396238 217.004138835 23.8046875 349.998046875 23.8046875 c 0
 482.996883425 23.8046875 580.42578125 148.455572457 580.42578125 285 c 0
 580.42578125 421.547273366 482.995648501 546.200195312 349.998046875 546.200195312 c 0
 217.003438031 546.200195312 119.57421875 421.549620493 119.57421875 285 c 0
116.57421875 285 m 0
 116.57421875 424.099303431 216.69584221 549.200195312 349.998046875 549.200195312 c 0
 483.305359204 549.200195312 583.42578125 424.101575551 583.42578125 285 c 0
 583.42578125 145.904416308 483.303980043 20.8046875 349.998046875 20.8046875 c 0
 216.694793177 20.8046875 116.57421875 145.903476224 116.57421875 285 c 0
EndSplineSet
EndChar

StartChar: colon
Encoding: 58 58 66
Width: 700
VWidth: 0
Flags: HW
LayerCount: 2
Fore
SplineSet
350 123.26171875 m 0
 350.593025666 123.26171875 351.5 122.354745206 351.5 121.76171875 c 2
 351.5 96 l 2
 351.5 95.4069743339 350.593026456 94.5 350 94.5 c 0
 349.406974334 94.5 348.5 95.4069735443 348.5 96 c 2
 348.5 121.76171875 l 2
 348.5 122.354744416 349.406973544 123.26171875 350 123.26171875 c 0
350 377.961914062 m 0
 349.406974335 377.961914062 348.5 378.868887607 348.5 379.461914062 c 2
 348.5 405.233398438 l 2
 348.5 405.826424103 349.406973545 406.733398438 350 406.733398438 c 0
 350.593025665 406.733398438 351.5 405.826424893 351.5 405.233398438 c 2
 351.5 379.461914062 l 2
 351.5 378.868888397 350.593026455 377.961914062 350 377.961914062 c 0
EndSplineSet
EndChar

StartChar: comma
Encoding: 44 44 67
Width: 700
VWidth: 0
Flags: HW
LayerCount: 2
Fore
SplineSet
323.330941211 -99.8146121922 m 0
 322.856582419 -99.4588664043 322.675449048 -98.1877103574 323.030528947 -97.714177442 c 0
 348.714212274 -63.4647580565 364.913662134 -23.2086924421 371.247408295 16.93489532 c 0
 374.663469883 38.5860579426 354.964728743 54.5 339.14453125 54.5 c 2
 324.23046875 54.5 l 2
 323.637443084 54.5 322.73046875 55.4069735443 322.73046875 56 c 0
 322.73046875 56.5930256661 323.637442294 57.5 324.23046875 57.5 c 2
 375.306490565 57.5 l 2
 376.170308167 57.204262678 377.151048449 56.3279586959 377.263731513 56.1686520938 c 0
 377.272930988 56.0156821797 377.26953125 56.0788541294 377.26953125 56 c 0
 377.26953125 -0.0767579112606 359.077799861 -54.6456538377 325.431027456 -99.5135128978 c 0
 325.074430266 -99.9890069673 323.804568782 -100.169794092 323.330941211 -99.8146121922 c 0
EndSplineSet
EndChar

StartChar: s
Encoding: 115 115 68
Width: 700
VWidth: 0
Flags: HW
LayerCount: 2
Fore
SplineSet
583.04791858 455.169536497 m 0
 582.654329088 454.726336711 581.373652753 454.650052262 580.929661181 455.044317276 c 0
 564.899190857 469.278572812 547.732460717 482.147438191 529.589804062 493.56288653 c 0
 394.487525725 578.459506206 218.232486191 573.199683402 119.223434842 455.202024409 c 0
 118.840941381 454.746219182 117.562769532 454.635967705 117.110365445 455.015550147 c 0
 116.654502022 455.398066274 116.544314196 456.676690088 116.924082271 457.129284458 c 0
 217.14467619 576.570952428 395.172430767 581.573089131 531.17545571 496.109639526 c 0
 549.479619965 484.593589255 566.763120445 471.636369869 582.922897384 457.285852992 c 0
 583.365045348 456.893280133 583.441591825 455.612826676 583.04791858 455.169536497 c 0
117.323140987 393.050405009 m 0
 117.650528288 393.239424772 118.537809171 393.30966354 119.018928046 393.123514607 c 0
 126.094480886 380.126123183 134.191150108 368.784759992 143.15595674 358.858360836 c 1
 133.191761449 368.124796789 124.228103008 378.912680805 116.460673786 391.530378789 c 0
 116.491946375 392.136216111 116.983893667 392.854546442 117.323140987 393.050405009 c 0
556.842070034 218.492011146 m 1
 456.213221324 329.902862757 246.191796062 263.037774739 143.15595674 358.858360836 c 1
 243.787388889 247.432908106 453.807947872 314.299099134 556.842070034 218.492011146 c 1
556.842070034 218.492011146 m 1
 566.807194475 209.225861633 575.771554067 198.438045415 583.539392899 185.82009043 c 0
 583.508286831 185.217509088 583.01534171 184.495639061 582.676391449 184.299910975 c 0
 582.350323733 184.111650032 581.461497685 184.04108498 580.980491015 184.227159861 c 0
 573.904711487 197.224662623 565.807562396 208.565901651 556.842070034 218.492011146 c 1
582.890995833 122.318425791 m 0
 583.342412112 121.939754844 583.457339264 120.660153248 583.076308323 120.205954672 c 0
 496.296222523 16.7766266778 347.002762521 1.28845285829 220.564490538 55.3679820658 c 0
 182.942994933 71.4484212748 148.044675773 93.2651766776 117.092230208 120.035810732 c 0
 116.6441307 120.423395693 116.550811285 121.701984852 116.939859914 122.151776554 c 0
 117.328554025 122.601189524 118.605359732 122.693313236 119.054451553 122.304838854 c 0
 149.771328838 95.7366184972 184.411923413 74.0833023341 221.74000515 58.1272102605 c 0
 347.319519955 4.41621547249 495.074059391 19.9864532054 580.777834582 122.134636729 c 0
 581.159022116 122.58898492 582.436467534 122.699790519 582.890995833 122.318425791 c 0
EndSplineSet
EndChar

StartChar: backslash
Encoding: 92 92 69
Width: 700
VWidth: 0
Flags: HW
LayerCount: 2
Fore
SplineSet
582.698083359 34.576677962 m 0
 582.188988587 34.2712148761 580.944592815 34.5825950745 580.639951655 35.0903406854 c 2
 116.786864247 808.173285804 l 2
 116.482944088 808.679778128 116.793460812 809.924882989 117.301164859 810.229511623 c 0
 117.811357636 810.535602345 119.056056632 810.222911511 119.360048345 809.71629994 c 2
 583.213135752 36.6333548226 l 2
 583.517055924 36.1268624766 583.208080156 34.8826822737 582.698083359 34.576677962 c 0
EndSplineSet
EndChar

StartChar: i
Encoding: 105 105 70
Width: 700
VWidth: 0
Flags: HW
LayerCount: 2
Fore
SplineSet
582.89011135 166.687994157 m 0
 583.343011179 166.307990784 583.457095072 165.029309328 583.075787273 164.574848879 c 0
 514.723844442 83.1205463696 436.005335583 -13.1510158819 349.523046145 35.2355713856 c 0
 321.077489841 51.1507766999 304.679240082 70.3692132954 296.940780694 91.9601375446 c 1
 305.541585791 71.3042192379 322.550020401 52.9650051787 351.091336346 37.8012036237 c 0
 436.030282158 -7.32626400865 511.747104163 84.2400677472 580.776565157 166.503053715 c 0
 581.158786434 166.958534589 582.43767281 167.067693381 582.89011135 166.687994157 c 0
403.061120305 488.79928814 m 1
 443.109853132 377.056773237 251.217181657 201.771129024 296.940780694 91.9601375446 c 1
 256.891646462 203.700445471 448.787313233 378.985730355 403.061120305 488.79928814 c 1
403.061120305 488.79928814 m 1
 394.45928086 509.457001833 377.448545589 527.797820385 348.903007408 542.962879158 c 0
 263.965495173 588.086650192 188.252795806 496.525122196 119.223866011 414.261319031 c 0
 118.840774591 413.804863699 117.563779416 413.694733538 117.109388883 414.076097022 c 0
 116.654802468 414.457541608 116.543076558 415.734604127 116.924428202 416.189079778 c 0
 185.272624093 497.640623197 263.994806554 593.910167818 350.471872642 545.529618249 c 0
 378.921748965 529.613020775 395.322043538 510.39257667 403.061120305 488.79928814 c 1
400.644962707 731.258708406 m 0
 400.172174351 731.613090666 399.988349087 732.881394389 400.345253473 733.357474782 c 2
 438.987485489 784.904864654 l 2
 439.343704394 785.380030672 440.615182551 785.560866126 441.087481841 785.206850449 c 0
 441.562636965 784.850639711 441.743957045 783.581015756 441.388144964 783.106392406 c 2
 402.745912949 731.559002534 l 2
 402.389702208 731.083847406 401.11892905 730.903388864 400.644962707 731.258708406 c 0
EndSplineSet
EndChar

StartChar: c
Encoding: 99 99 71
Width: 700
VWidth: 0
Flags: HW
LayerCount: 2
Fore
SplineSet
583.02381735 467.375401641 m 0
 582.605370019 466.957326292 581.321892933 466.95705276 580.903267036 467.376051127 c 0
 521.42855351 526.908590777 436.522836148 561.62663923 350.24868984 549.261405204 c 0
 219.0109515 530.432505953 119.611328125 417.626357007 119.611328125 288.046875 c 0
 119.611328125 158.469976552 219.011876114 45.6507767118 350.249157177 26.8360439198 c 0
 436.519684836 14.4626177947 521.433498585 49.1798347243 580.901944263 108.720284024 c 0
 581.321999995 109.140807003 582.605283846 109.140326173 583.023870003 108.722205111 c 0
 583.444001103 108.302571908 583.444320929 107.019085792 583.025765175 106.600002381 c 0
 521.10932787 44.6092865744 434.24400626 11.7580204721 349.821195157 23.8663788749 c 0
 218.922486043 42.6326961155 116.611328125 155.747385472 116.611328125 288.046875 c 0
 116.611328125 420.35130055 218.923361848 533.451237228 349.819550549 552.231041638 c 0
 434.246784137 564.330562696 521.108414946 531.473271253 583.02468859 469.497751818 c 0
 583.4453224 469.076681343 583.44359842 467.794778478 583.02381735 467.375401641 c 0
EndSplineSet
EndChar

StartChar: R
Encoding: 82 82 72
Width: 700
VWidth: 0
Flags: HW
LayerCount: 2
Fore
SplineSet
118.07421875 805.823242188 m 0
 118.667244415 805.823242188 119.57421875 804.916268643 119.57421875 804.323242188 c 2
 119.57421875 31.2421875 l 2
 119.57421875 30.6499759518 118.666418557 29.7421875 118.07421875 29.7421875 c 0
 117.481205591 29.7421875 116.57421875 30.6491485492 116.57421875 31.2421875 c 2
 116.57421875 804.323242188 l 2
 116.57421875 804.917094498 117.480378122 805.823242188 118.07421875 805.823242188 c 0
219.654296875 804.323242188 m 0
 219.654296875 804.916267853 220.56127042 805.823242188 221.154296875 805.823242188 c 2
 374.98828125 805.823242188 l 2
 380.840862055 805.823242188 385.921506331 806.23478507 388.436214963 806.235353237 c 0
 495.290900429 806.269657581 583.42578125 719.511321188 583.42578125 611.056640625 c 0
 583.42578125 607.074341956 583.307079137 603.117953777 583.073494232 599.202267044 c 0
 576.639931149 491.537449671 483.557735614 410.2565013 376.517343159 416.234589149 c 0
 375.942250329 416.266707449 375.131893697 416.28515625 374.705078125 416.28515625 c 2
 299.395507812 416.28515625 l 2
 280.713982782 416.28515625 265.529991318 399.859240052 266.995689324 381.235300973 c 0
 267.577893681 373.837502486 271.437597226 366.108339941 275.636183481 361.609843235 c 2
 583.022930344 32.2660631133 l 2
 583.426869293 31.8332713819 583.382095347 30.5487092806 582.951416733 30.1466808286 c 0
 582.515255961 29.7396578846 581.234879263 29.7850388854 580.829666605 30.2192264275 c 2
 220.082047734 416.736555099 l 2
 219.875153074 417.015944126 219.661631266 417.654809889 219.658643769 417.675445216 c 0
 219.624589938 418.330966794 220.561274125 419.28515625 221.154296875 419.28515625 c 2
 375.7734375 419.28515625 l 2
 375.813778647 419.28515625 375.843923217 419.284166677 375.870580763 419.282452977 c 0
 482.42890323 412.398433447 573.265849033 493.499495363 580.02362052 598.490209345 c 0
 580.291480096 602.649081716 580.42578125 606.839471264 580.42578125 611.056640625 c 0
 580.42578125 717.843291536 493.643212726 803.268288564 388.437139292 803.235350274 c 0
 384.279046649 803.23417964 380.091724086 803.100208876 375.865021858 802.826688876 c 0
 375.776694355 802.820972766 375.816835151 802.823242188 375.7734375 802.823242188 c 2
 221.154296875 802.823242188 l 2
 220.562097834 802.823242188 219.654296875 803.731029911 219.654296875 804.323242188 c 0
EndSplineSet
EndChar

StartChar: two
Encoding: 50 50 73
Width: 700
VWidth: 0
Flags: HW
LayerCount: 2
Fore
SplineSet
583.42578125 28.9189453125 m 0
 583.42578125 28.3250930009 582.519621879 27.4189453125 581.92578125 27.4189453125 c 2
 118.07421875 27.4189453125 l 2
 117.994724986 27.4189453125 117.926173204 27.4235304871 117.908162244 27.4246140203 c 0
 117.650749315 27.6067246097 116.798487139 28.7296682175 116.574105035 29.3849626835 c 0
 117.487255417 278.942045183 457.260103014 302.15426103 567.742906159 493.522893791 c 0
 568.037925095 494.033981627 569.276193093 494.367618165 569.791147637 494.070331245 c 0
 570.304099921 493.774205043 570.636818209 492.536394186 570.339225779 492.020964471 c 0
 463.254797604 306.537381796 158.333750542 280.452700291 122.710424196 68.3008146377 c 0
 119.103184846 46.8181877016 138.330772669 30.4189453125 154.76171875 30.4189453125 c 2
 581.92578125 30.4189453125 l 2
 582.519621028 30.4189453125 583.42578125 29.5127984366 583.42578125 28.9189453125 c 0
169.611328125 594.34765625 m 0
 169.018302459 594.34765625 168.111328125 595.254629794 168.111328125 595.84765625 c 0
 168.111328125 710.537979988 261.083988316 803.5 375.7734375 803.5 c 0
 490.459217323 803.5 583.42578125 710.5378839 583.42578125 595.84765625 c 0
 583.42578125 595.253803938 582.519621879 594.34765625 581.92578125 594.34765625 c 0
 581.332755584 594.34765625 580.42578125 595.254629794 580.42578125 595.84765625 c 0
 580.42578125 708.881004075 488.802725386 800.5 375.7734375 800.5 c 0
 262.740153751 800.5 171.111328125 708.881115705 171.111328125 595.84765625 c 0
 171.111328125 595.253803939 170.205168754 594.34765625 169.611328125 594.34765625 c 0
EndSplineSet
EndChar

StartChar: N
Encoding: 78 78 74
Width: 700
VWidth: 0
Flags: HW
LayerCount: 2
Fore
SplineSet
118.07421875 801.581054688 m 0
 118.667244415 801.581054688 119.57421875 800.674081143 119.57421875 800.081054688 c 2
 119.57421875 27 l 2
 119.57421875 26.4069743339 118.667245206 25.5 118.07421875 25.5 c 0
 117.480378972 25.5 116.57421875 26.4061468763 116.57421875 27 c 2
 116.57421875 800.081054688 l 2
 116.57421875 800.674906998 117.480378122 801.581054688 118.07421875 801.581054688 c 0
581.92578125 801.581054688 m 0
 582.519621027 801.581054688 583.42578125 800.674907811 583.42578125 800.081054688 c 2
 583.42578125 27 l 2
 583.42578125 26.4061476884 582.519621879 25.5 581.92578125 25.5 c 0
 581.332755584 25.5 580.42578125 26.4069735443 580.42578125 27 c 2
 580.42578125 800.081054688 l 2
 580.42578125 800.674080353 581.332754795 801.581054688 581.92578125 801.581054688 c 0
220.680001614 801.50381546 m 0
 221.243044119 801.69151703 222.39042059 801.118221928 222.57801917 800.5553951 c 2
 480.277338123 27.4750163773 l 2
 480.465601234 26.9102582402 479.891687111 25.7645468993 479.328997603 25.57698373 c 0
 478.7661067 25.3893326997 477.619345034 25.9628327609 477.431746455 26.5256595866 c 2
 219.732427503 799.606038309 l 2
 219.543800992 800.171886586 220.119122853 801.316866201 220.680001614 801.50381546 c 0
EndSplineSet
EndChar

StartChar: ampersand
Encoding: 38 38 75
Width: 700
VWidth: 0
Flags: HW
LayerCount: 2
Fore
SplineSet
297.00720338 440.881107079 m 0
 297.00720338 441.475613924 297.930841126 442.372642275 298.521387941 442.36682347 c 0
 315.411863318 442.199789031 331.709742699 444.289095419 347.101866907 448.320252796 c 0
 441.986160628 473.159913784 504.051600955 571.800755646 477.448311414 672.40709839 c 0
 456.290224205 752.380211167 381.177638847 805.91163655 298.611883611 800.135748043 c 0
 225.350739168 795.015189792 163.594447896 743.553504414 145.341258524 672.418066161 c 0
 145.193487412 671.84221681 144.087899183 671.189928697 143.516288935 671.336581069 c 0
 142.941265216 671.484132329 142.287604507 672.587995839 142.435311711 673.163779825 c 0
 161.009200897 745.551939127 223.851346743 797.918468984 298.403231675 803.129977876 c 0
 382.397492085 809.004480746 458.821761739 754.541920245 480.347622096 673.176539182 c 0
 507.388492178 570.920896607 444.305670571 470.66629945 347.862750754 445.417248348 c 0
 332.205207127 441.318675568 315.655426955 439.19594762 298.492799737 439.3655933 c 0
 297.900410484 439.371460999 297.00720338 440.286275341 297.00720338 440.881107079 c 0
143.628409842 584.067245145 m 0
 144.212580114 584.17026453 145.261981859 583.434817377 145.364964329 582.850856432 c 0
 177.969579794 397.964369541 380.630005349 313.5234375 581.96875 313.5234375 c 0
 582.562589778 313.5234375 583.46875 312.617290624 583.46875 312.0234375 c 0
 583.46875 311.429585188 582.562590629 310.5234375 581.96875 310.5234375 c 0
 380.164628007 310.5234375 175.413416787 395.186575128 142.410653788 582.328517471 c 0
 142.307672212 582.912618528 143.04198226 583.963801978 143.628409842 584.067245145 c 0
530.430664062 416.594726562 m 0
 531.024503841 416.594726562 531.930664062 415.688579687 531.930664062 415.094726562 c 0
 531.930664062 236.558533391 485.367879708 44.2947690036 324.427960426 27.0604422597 c 0
 316.38698647 26.1995616079 308.434207603 25.8830719873 300.608095442 26.0795710584 c 0
 195.914218232 28.712503408 113.474625023 123.115867614 116.616979986 234.746403505 c 0
 119.543038453 338.556097052 195.764402628 425.663955109 298.267585414 442.347024448 c 0
 298.85157559 442.442087569 299.89315076 441.69292911 299.988399913 441.107827166 c 0
 300.083545546 440.523170448 299.333594886 439.481670934 298.748846061 439.386505259 c 0
 197.66608304 422.934654076 122.500760319 337.035026469 119.616396081 234.661982193 c 0
 116.513666181 124.488795773 197.843799603 31.6657450388 300.681609842 29.0787143031 c 0
 308.370591332 28.8845723141 316.206068435 29.1962734403 324.109760113 30.0441153661 c 0
 482.218599644 46.9745471418 528.930664062 236.370669473 528.930664062 415.094726562 c 0
 528.930664062 415.687752228 529.837637606 416.594726562 530.430664062 416.594726562 c 0
EndSplineSet
EndChar

StartChar: o
Encoding: 111 111 76
Width: 700
VWidth: 0
Flags: HW
LayerCount: 2
Fore
SplineSet
539.279447243 151.097803488 m 0
 539.810928871 150.616094223 540.915372212 150.669588286 541.397779988 151.20183671 c 0
 561.774157197 173.683340278 577.039477331 198.622645913 587.413214857 224.696107733 c 0
 635.04060544 344.416294805 580.243893871 488.984537342 450.646986412 540.142276487 c 0
 332.459845593 586.809145048 198.832243959 528.712851688 152.348125198 410.454276111 c 0
 152.085012922 409.784847613 152.528074883 408.77011773 153.195056781 408.507929508 c 0
 153.863056881 408.24535582 154.877322435 408.686632858 155.140325883 409.355726291 c 0
 201.017128563 526.073771317 332.902558544 583.408492567 449.543604155 537.352957271 c 0
 577.542596034 486.825374434 631.665392617 344.048852461 584.624724387 225.80547666 c 0
 574.38746129 200.07315188 559.301283109 175.420418474 539.174736605 153.21533151 c 0
 538.693299603 152.684191727 538.74730916 151.580077146 539.279447243 151.097803488 c 0
546.834875736 166.604893071 m 0
 546.166946029 166.867491484 545.153089547 166.426431951 544.890528785 165.758502346 c 0
 499.012873273 49.0496860313 367.131313914 -8.28621766385 250.484547416 37.756278859 c 0
 222.610365881 48.7618693258 198.170058877 64.1927231667 177.602732968 82.7360133187 c 0
 83.0864176445 167.950636854 68.432575446 319.931638049 160.853921189 421.895190605 c 0
 161.337886809 422.429199495 161.282437861 423.534457116 160.751422818 424.015822121 c 0
 160.219544817 424.497890639 159.114928756 424.443622475 158.632708185 423.911580599 c 0
 65.0529825245 320.671178893 79.8987168331 166.787155702 175.593829473 80.5078808296 c 0
 196.436473779 61.7160084479 221.162710816 46.1087343313 249.381946769 34.9674221536 c 0
 367.572645518 -11.6859679352 501.197996658 46.4092464064 547.68250018 164.658923968 c 0
 547.94574635 165.328634897 547.502885336 166.342300864 546.834875736 166.604893071 c 0
EndSplineSet
EndChar

StartChar: t
Encoding: 116 116 77
Width: 700
VWidth: 0
Flags: HW
LayerCount: 2
Fore
SplineSet
583.403893599 25.359325593 m 0
 583.300624395 24.7737387234 582.249274315 24.0391740052 581.665825186 24.1420296943 c 0
 411.320882571 54.1773331867 245.421875 147.319537723 245.421875 309.076171875 c 2
 245.421875 618.309570312 l 2
 245.421875 618.903422624 246.32803437 619.809570312 246.921875 619.809570312 c 0
 247.514900667 619.809570312 248.421875 618.902596769 248.421875 618.309570312 c 2
 248.421875 309.076171875 l 2
 248.421875 149.742668212 412.125863872 57.0810470873 582.187398764 27.0961308038 c 0
 582.770638231 26.9933066043 583.506905445 25.9436294276 583.403893599 25.359325593 c 0
116.57421875 541 m 0
 116.57421875 541.593852311 117.480378121 542.5 118.07421875 542.5 c 2
 581.92578125 542.5 l 2
 582.519621028 542.5 583.42578125 541.593853124 583.42578125 541 c 0
 583.42578125 540.406147688 582.519621879 539.5 581.92578125 539.5 c 2
 118.07421875 539.5 l 2
 117.480378972 539.5 116.57421875 540.406146876 116.57421875 541 c 0
EndSplineSet
EndChar

StartChar: dieresis
Encoding: 168 168 78
Width: 700
VWidth: 0
Flags: HW
LayerCount: 2
Fore
SplineSet
440.1953125 699.966796875 m 0
 439.602286834 699.966796875 438.6953125 700.873770419 438.6953125 701.466796875 c 2
 438.6953125 753 l 2
 438.6953125 753.593025666 439.602286044 754.5 440.1953125 754.5 c 0
 440.788338166 754.5 441.6953125 753.593026456 441.6953125 753 c 2
 441.6953125 701.466796875 l 2
 441.6953125 700.873771209 440.788338956 699.966796875 440.1953125 699.966796875 c 0
259.8046875 699.966796875 m 0
 259.211661834 699.966796875 258.3046875 700.873770419 258.3046875 701.466796875 c 2
 258.3046875 753 l 2
 258.3046875 753.593025666 259.211661044 754.5 259.8046875 754.5 c 0
 260.397713166 754.5 261.3046875 753.593026456 261.3046875 753 c 2
 261.3046875 701.466796875 l 2
 261.3046875 700.873771209 260.397713956 699.966796875 259.8046875 699.966796875 c 0
EndSplineSet
EndChar

StartChar: U
Encoding: 85 85 79
Width: 700
VWidth: 0
Flags: HW
LayerCount: 2
Fore
SplineSet
118.07421875 801.657226562 m 0
 118.667244417 801.657226562 119.57421875 800.750253019 119.57421875 800.157226562 c 2
 119.57421875 259 l 2
 119.57421875 131.742336822 222.738883151 28.576171875 349.998046875 28.576171875 c 0
 477.259260997 28.576171875 580.42578125 131.741547212 580.42578125 259 c 0
 580.42578125 259.593025666 581.332754794 260.5 581.92578125 260.5 c 0
 582.519621028 260.5 583.42578125 259.593853124 583.42578125 259 c 0
 583.42578125 130.085946202 478.915440102 25.576171875 349.998046875 25.576171875 c 0
 221.083774771 25.576171875 116.57421875 130.086883014 116.57421875 259 c 2
 116.57421875 800.157226562 l 2
 116.57421875 800.751078874 117.48037812 801.657226562 118.07421875 801.657226562 c 0
581.92578125 801.657226562 m 0
 582.519621029 801.657226562 583.42578125 800.751079687 583.42578125 800.157226562 c 2
 583.42578125 362.081054688 l 2
 583.42578125 361.487202376 582.51962188 360.581054688 581.92578125 360.581054688 c 0
 581.332755583 360.581054688 580.42578125 361.488028231 580.42578125 362.081054688 c 2
 580.42578125 800.157226562 l 2
 580.42578125 800.750252229 581.332754793 801.657226562 581.92578125 801.657226562 c 0
EndSplineSet
EndChar

StartChar: greater
Encoding: 62 62 80
Width: 700
VWidth: 0
Flags: HW
LayerCount: 2
Fore
SplineSet
116.770985219 626.42359939 m 0
 117.058700133 626.9415297 118.29138213 627.294232638 118.810380129 627.005890044 c 2
 582.664263944 369.309830503 l 2
 583.212633791 369.005215195 583.49661702 367.667576307 583.203501415 367.198923849 c 0
 583.118737163 367.099013398 582.570626954 366.641026225 582.548383169 366.625791467 c 2
 118.808619444 108.993131728 l 2
 118.291114772 108.705587765 117.059901981 109.05627561 116.770945081 109.576472864 c 0
 116.4826079 110.095517132 116.83482959 111.327051519 117.353730725 111.615291908 c 2
 527.70724635 339.589901283 l 2
 544.037830052 348.662465056 549.333879015 370.39530162 539.008031492 385.963739254 c 0
 536.150795413 390.271637622 530.704332613 394.745047623 527.70724635 396.410098717 c 2
 117.352117019 624.385604538 l 2
 116.836171033 624.672203393 116.482639695 625.904540104 116.770985219 626.42359939 c 0
EndSplineSet
EndChar

StartChar: parenleft
Encoding: 40 40 81
Width: 700
VWidth: 0
Flags: HW
LayerCount: 2
Fore
SplineSet
544.771484375 800 m 0
 544.771484375 799.406974334 543.864510831 798.5 543.271484375 798.5 c 0
 330.623160116 798.5 158.228515625 626.120264828 158.228515625 413.461914062 c 0
 158.228515625 200.814170208 330.623328269 28.4189453125 543.271484375 28.4189453125 c 0
 543.864510041 28.4189453125 544.771484375 27.5119717682 544.771484375 26.9189453125 c 0
 544.771484375 26.3259196464 543.864510831 25.4189453125 543.271484375 25.4189453125 c 0
 328.966558492 25.4189453125 155.228515625 199.157403841 155.228515625 413.461914062 c 0
 155.228515625 627.775979572 328.967723464 801.5 543.271484375 801.5 c 0
 543.864510041 801.5 544.771484375 800.593026456 544.771484375 800 c 0
EndSplineSet
EndChar

StartChar: acute
Encoding: 180 180 82
Width: 700
VWidth: 0
Flags: HW
LayerCount: 2
Fore
SplineSet
116.650736874 622.808141445 m 0
 116.462974954 623.371458323 117.036636751 624.518212026 117.599473284 624.70581384 c 2
 581.452207084 779.320136564 l 2
 582.013171042 779.50712455 583.16184477 778.933738943 583.349433438 778.371035104 c 0
 583.536421421 777.810071156 582.962874034 776.661343475 582.400526716 776.47387366 c 2
 118.548303867 621.859721249 l 2
 117.984986987 621.671959328 116.838145724 622.245883837 116.650736874 622.808141445 c 0
EndSplineSet
EndChar

StartChar: y
Encoding: 121 121 83
Width: 700
VWidth: 0
Flags: HW
LayerCount: 2
Fore
SplineSet
582.519785636 546.969627449 m 0
 583.06661216 546.735277678 583.541764801 545.544967475 583.30836694 545.000424215 c 2
 274.074347451 -176.558642218 l 2
 273.841053911 -177.103076584 272.652364696 -177.579687422 272.105060333 -177.345119494 c 0
 271.560040204 -177.111561635 271.083940857 -175.921638258 271.317615895 -175.376386139 c 2
 580.550483898 546.180969975 l 2
 580.784699518 546.72742116 581.976581606 547.202438025 582.519785636 546.969627449 c 0
117.547280765 546.994149208 m 0
 118.100928668 547.203640118 119.269436476 546.67748677 119.480198217 546.120449075 c 2
 299.871446587 69.3782184827 l 2
 300.081255931 68.8236779693 299.553326704 67.6536202311 298.99987595 67.4441963759 c 0
 298.444812241 67.2342008496 297.274998596 67.7613821183 297.064736469 68.3170170665 c 2
 116.674314704 545.058667437 l 2
 116.464252327 545.61385673 116.990076345 546.78328135 117.547280765 546.994149208 c 0
EndSplineSet
EndChar

StartChar: degree
Encoding: 176 176 84
Width: 700
VWidth: 0
Flags: HW
LayerCount: 2
Fore
SplineSet
245.423828125 576 m 0
 245.423828125 633.751326208 292.24317827 680.571289062 350.004882812 680.571289062 c 0
 407.756743024 680.571289062 454.576171875 633.751808628 454.576171875 576 c 0
 454.576171875 518.238974187 407.756887608 471.418945312 350.004882812 471.418945312 c 0
 292.242724926 471.418945312 245.423828125 518.238624116 245.423828125 576 c 0
248.423828125 576 m 0
 248.423828125 519.8965973 293.902325879 474.418945312 350.004882812 474.418945312 c 0
 406.098097358 474.418945312 451.576171875 519.896207274 451.576171875 576 c 0
 451.576171875 632.094044359 406.099541906 677.571289062 350.004882812 677.571289062 c 0
 293.901707479 677.571289062 248.423828125 632.093830934 248.423828125 576 c 0
EndSplineSet
EndChar

StartChar: x
Encoding: 120 120 85
Width: 700
VWidth: 0
Flags: HW
LayerCount: 2
Fore
SplineSet
583.05535133 548.807102233 m 0
 583.447315027 548.359112527 583.359919339 547.080344998 582.913537783 546.68975725 c 2
 376.761686183 366.29956289 l 2
 376.31566306 365.909292658 375.036283753 365.993624894 374.644421934 366.441426882 c 0
 374.2549335 366.886521098 374.338847004 368.165474954 374.78664933 368.557305887 c 2
 580.939582134 548.948324382 l 2
 581.384275497 549.337496876 582.662922601 549.255525288 583.05535133 548.807102233 c 0
117.06933764 548.933633529 m 0
 117.511430699 549.331498581 118.792033238 549.262821421 119.188563713 548.822211295 c 2
 583.041436508 33.4263326722 l 2
 583.437797684 32.9859417157 583.370996763 31.7057151374 582.929168288 31.3080882002 c 0
 582.488880447 30.911816727 581.208382727 30.9789004165 580.811436287 31.4199762047 c 2
 116.959325683 546.81500794 l 2
 116.561248111 547.257337143 116.629556877 548.53782154 117.06933764 548.933633529 c 0
116.944173902 31.436604315 m 0
 116.554685468 31.8816985306 116.638651693 33.1605921418 117.086454018 33.552423074 c 2
 323.239386823 213.94344157 l 2
 323.684876261 214.333310747 324.964379051 214.248750713 325.354839489 213.80258123 c 0
 325.745808212 213.355764277 325.660787082 212.076392369 325.21334247 211.684874438 c 2
 119.061490869 31.294680078 l 2
 118.615467745 30.9044098439 117.336228764 30.9885817264 116.944173902 31.436604315 c 0
EndSplineSet
EndChar

StartChar: underscore
Encoding: 95 95 86
Width: 700
VWidth: 0
Flags: HW
LayerCount: 2
Fore
SplineSet
116.57421875 -23 m 0
 116.57421875 -22.4061476889 117.480378121 -21.5 118.07421875 -21.5 c 2
 581.92578125 -21.5 l 2
 582.519621028 -21.5 583.42578125 -22.4061468759 583.42578125 -23 c 0
 583.42578125 -23.5938523116 582.519621879 -24.5 581.92578125 -24.5 c 2
 118.07421875 -24.5 l 2
 117.480378972 -24.5 116.57421875 -23.5938531237 116.57421875 -23 c 0
EndSplineSet
EndChar

StartChar: braceleft
Encoding: 123 123 87
Width: 700
VWidth: 0
Flags: HW
LayerCount: 2
Fore
SplineSet
352.054122792 430.05102168 m 1
 342.171841661 425.142672526 328.818847353 421.733398438 311.345703125 421.733398438 c 0
 310.751863347 421.733398438 309.845703125 422.639545314 309.845703125 423.233398438 c 0
 309.845703125 423.827250748 310.751862497 424.733398438 311.345703125 424.733398438 c 0
 326.711212445 424.733398438 338.201736215 424.556883274 352.054122792 430.05102168 c 1
374.685256235 451.185702185 m 1
 381.987465063 467.540300664 379.162191813 476.94914515 379.157213716 482.62362262 c 0
 379.130579075 512.580147563 374.70665293 538.771384975 368.293594748 562.214313149 c 1
 376.346379976 536.082790321 382.073069177 509.27203051 382.156410013 482.678289018 c 0
 382.195735198 470.146353138 379.401706577 459.626290412 374.685256235 451.185702185 c 1
343.253432451 630.626276191 m 1
 351.869457589 608.813989356 361.028240401 585.790598678 368.293594748 562.214313149 c 1
 361.276731026 587.864451383 351.878538607 610.224397095 343.253432451 630.626276191 c 1
343.253432451 630.626276191 m 1
 334.906486771 650.370191952 327.283566872 668.280300231 323.243632799 685.56395477 c 1
 328.335255188 668.52233183 335.579041074 650.054728889 343.253432451 630.626276191 c 1
322.716149611 748.462456914 m 1
 329.113774296 769.348857179 341.992717184 785.5 388.654296875 785.5 c 0
 389.248136653 785.5 390.154296875 784.593853123 390.154296875 784 c 0
 390.154296875 783.406147689 389.248137504 782.5 388.654296875 782.5 c 0
 367.018550774 782.5 343.055971248 777.970989517 328.100355528 757.561457601 c 0
 326.116296745 754.853865229 324.216619143 751.578486422 322.716149611 748.462456914 c 1
348.005498262 17.7091250926 m 1
 361.836165779 12.2283237891 373.28956275 12.4189453125 388.654296875 12.4189453125 c 0
 389.248136653 12.4189453125 390.154296875 11.5127984358 390.154296875 10.9189453125 c 0
 390.154296875 10.3250930018 389.248137504 9.4189453125 388.654296875 9.4189453125 c 0
 371.182764271 9.4189453125 357.869478931 12.8091297435 348.005498262 17.7091250926 c 1
325.232936162 39.0322315424 m 1
 320.617375968 47.4746106658 317.80973747 58.0450285215 317.843628234 70.3778316975 c 0
 317.989808523 123.778968417 337.246022726 153.480664508 357.262558432 200.421592983 c 1
 341.147344796 150.35323147 320.912579511 106.469561674 320.842835155 70.3445872731 c 0
 320.831757584 64.6604084289 317.96259383 55.305559315 325.232936162 39.0322315424 c 1
378.759771655 333.212597765 m 1
 377.110612143 338.071055232 374.478750204 343.558274319 371.035893797 348.060861622 c 0
 355.653742817 368.177726656 332.37118515 370.190429688 311.345703125 370.190429688 c 0
 310.751863347 370.190429688 309.845703125 371.096576564 309.845703125 371.690429688 c 0
 309.845703125 372.284281998 310.751862497 373.190429688 311.345703125 373.190429688 c 0
 364.221078712 373.190429688 374.010131913 356.360113007 378.759771655 333.212597765 c 1
EndSplineSet
EndChar

StartChar: I
Encoding: 73 73 88
Width: 700
VWidth: 0
Flags: HW
LayerCount: 2
Fore
SplineSet
349.998046875 700.428710938 m 0
 350.59107254 700.428710938 351.498046875 699.521737393 351.498046875 698.928710938 c 2
 351.498046875 132 l 2
 351.498046875 131.406974334 350.591073331 130.5 349.998046875 130.5 c 0
 349.404207097 130.5 348.498046875 131.406146877 348.498046875 132 c 2
 348.498046875 698.928710938 l 2
 348.498046875 699.522563248 349.404206247 700.428710938 349.998046875 700.428710938 c 0
116.57421875 802 m 0
 116.57421875 802.593852311 117.480378121 803.5 118.07421875 803.5 c 2
 581.92578125 803.5 l 2
 582.519621028 803.5 583.42578125 802.593853124 583.42578125 802 c 0
 583.42578125 801.406147688 582.519621879 800.5 581.92578125 800.5 c 2
 118.07421875 800.5 l 2
 117.480378972 800.5 116.57421875 801.406146876 116.57421875 802 c 0
116.57421875 28.9189453125 m 0
 116.57421875 29.5127976236 117.480378121 30.4189453125 118.07421875 30.4189453125 c 2
 581.92578125 30.4189453125 l 2
 582.519621028 30.4189453125 583.42578125 29.5127984366 583.42578125 28.9189453125 c 0
 583.42578125 28.3250930009 582.519621879 27.4189453125 581.92578125 27.4189453125 c 2
 118.07421875 27.4189453125 l 2
 117.480378972 27.4189453125 116.57421875 28.3250921888 116.57421875 28.9189453125 c 0
EndSplineSet
EndChar

StartChar: u
Encoding: 117 117 89
Width: 700
VWidth: 0
Flags: HW
LayerCount: 2
Fore
SplineSet
504.653320312 25.625 m 0
 504.060294647 25.625 503.153320312 26.5319735451 503.153320312 27.125 c 2
 503.153320312 542.520507812 l 2
 503.153320312 543.113533478 504.060293856 544.020507812 504.653320312 544.020507812 c 0
 505.246358513 544.020507812 506.153320312 543.1135218 506.153320312 542.520507812 c 2
 506.153320312 27.125 l 2
 506.153320312 26.5328009591 505.245532589 25.625 504.653320312 25.625 c 0
118.110351562 544.020507812 m 0
 118.703389763 544.020507812 119.610351562 543.1135218 119.610351562 542.520507812 c 2
 119.610351562 130.206054688 l 2
 119.610351562 94.2883983585 130.979377978 68.0101460048 149.646582837 52.2464083627 c 0
 224.376184634 -10.8600063063 421.856082135 70.5792092 580.812697972 260.012819342 c 0
 581.194965326 260.468355125 582.472975421 260.579101368 582.926743931 260.198317039 c 0
 583.381413378 259.81680278 583.492913429 258.539608639 583.111592695 258.085200914 c 0
 424.287757841 68.81045775 224.756733727 -15.1076892603 147.71117494 49.9544798515 c 0
 127.991815393 66.6072145329 116.610351562 93.4941480206 116.610351562 130.206054688 c 2
 116.610351562 542.520507812 l 2
 116.610351562 543.113533479 117.517325106 544.020507812 118.110351562 544.020507812 c 0
EndSplineSet
EndChar

StartChar: four
Encoding: 52 52 90
Width: 700
VWidth: 0
Flags: HW
LayerCount: 2
Fore
SplineSet
427.306640625 673.73828125 m 0
 427.899666291 673.73828125 428.806640625 672.831307706 428.806640625 672.23828125 c 2
 428.806640625 28 l 2
 428.806640625 27.4069743339 427.899667081 26.5 427.306640625 26.5 c 0
 426.713614959 26.5 425.806640625 27.4069735443 425.806640625 28 c 2
 425.806640625 672.23828125 l 2
 425.806640625 672.831306916 426.713614169 673.73828125 427.306640625 673.73828125 c 0
583.42578125 285.700195312 m 0
 583.42578125 285.107169647 582.518807705 284.200195312 581.92578125 284.200195312 c 2
 118.073242188 284.200195312 l 2
 117.457512107 284.200195312 116.530032537 285.202452899 116.578712023 285.820630024 c 0
 116.588684638 285.947463552 116.73156168 286.379060227 116.787334935 286.472029887 c 2
 426.021915697 801.853883364 l 2
 426.326137265 802.360991618 427.570452044 802.67272756 428.078442176 802.367958317 c 0
 428.588106669 802.062153392 428.898880174 800.818167073 428.593507861 800.309192483 c 2
 150.256593799 336.42149717 l 2
 140.644919362 320.402287079 146.917780906 298.931014928 163.641715616 290.605789089 c 0
 168.119881152 288.376544592 173.666253657 287.200195312 178.125 287.200195312 c 2
 581.92578125 287.200195312 l 2
 582.518806917 287.200195312 583.42578125 286.293221769 583.42578125 285.700195312 c 0
271.192382812 28 m 0
 271.192382812 28.5930256653 272.099356357 29.5 272.692382812 29.5 c 2
 581.92578125 29.5 l 2
 582.518806916 29.5 583.42578125 28.5930264557 583.42578125 28 c 0
 583.42578125 27.4069743339 582.518807706 26.5 581.92578125 26.5 c 2
 272.692382812 26.5 l 2
 272.099357147 26.5 271.192382812 27.4069735451 271.192382812 28 c 0
EndSplineSet
EndChar

StartChar: J
Encoding: 74 74 91
Width: 700
VWidth: 0
Flags: HW
LayerCount: 2
Fore
SplineSet
118.07421875 256.5 m 0
 118.667244416 256.5 119.57421875 255.593026456 119.57421875 255 c 0
 119.57421875 127.742336822 222.738883151 24.576171875 349.998046875 24.576171875 c 0
 477.259260997 24.576171875 580.42578125 127.741547212 580.42578125 255 c 2
 580.42578125 693.0859375 l 2
 580.42578125 693.678963166 581.332754794 694.5859375 581.92578125 694.5859375 c 0
 582.519621028 694.5859375 583.42578125 693.679790624 583.42578125 693.0859375 c 2
 583.42578125 255 l 2
 583.42578125 126.085946202 478.915440102 21.576171875 349.998046875 21.576171875 c 0
 221.083774771 21.576171875 116.57421875 126.086883014 116.57421875 255 c 0
 116.57421875 255.593852311 117.480378121 256.5 118.07421875 256.5 c 0
583.42578125 796.157226562 m 0
 583.42578125 795.563374251 582.519621879 794.657226562 581.92578125 794.657226562 c 2
 246.921875 794.657226562 l 2
 246.328035223 794.657226562 245.421875 795.563373439 245.421875 796.157226562 c 0
 245.421875 796.751078874 246.32803437 797.657226562 246.921875 797.657226562 c 2
 581.92578125 797.657226562 l 2
 582.519621029 797.657226562 583.42578125 796.751079687 583.42578125 796.157226562 c 0
EndSplineSet
EndChar

StartChar: guillemotleft
Encoding: 171 171 92
Width: 700
VWidth: 0
Flags: HW
LayerCount: 2
Fore
SplineSet
299.339955702 545.9238307 m 0
 299.825926114 545.583676278 300.049614895 544.321433625 299.709111061 543.835026247 c 2
 132.967900124 305.637760622 l 2
 125.215298119 294.562822467 125.23249648 279.412608907 132.967900124 268.362239378 c 2
 299.709427066 30.1645223341 l 2
 300.048967795 29.6794907446 299.82653303 28.4160773292 299.339960739 28.0754891762 c 0
 298.855323241 27.7362150272 297.591204401 27.9582515874 297.250824371 28.4444376817 c 2
 116.860388979 286.139479317 l 2
 116.584936564 286.532982768 116.584635244 287.466544374 116.860199372 287.860249818 c 2
 297.24973369 545.554004333 l 2
 297.592406588 546.043465476 298.85513399 546.263233809 299.339955702 545.9238307 c 0
582.802212688 545.924567219 m 0
 583.289479672 545.583461627 583.510655372 544.321193312 583.170527689 543.835292183 c 2
 416.438105813 305.637049995 l 2
 408.685844741 294.561969697 408.704137906 279.411896215 416.438105813 268.362950005 c 2
 583.170781008 30.1643459258 l 2
 583.510941947 29.6783972867 583.287745893 28.4153338537 582.803184341 28.0761128703 c 0
 582.316240979 27.7352867804 581.053303706 27.9588435826 580.713212453 28.444737071 c 2
 400.331648499 286.141056106 l 2
 400.057486766 286.53269693 400.056636491 287.466060162 400.332353078 287.859950428 c 2
 580.713808183 545.556114028 l 2
 581.052808335 546.040448645 582.315268706 546.265393742 582.802212688 545.924567219 c 0
EndSplineSet
EndChar

StartChar: one
Encoding: 49 49 93
Width: 700
VWidth: 0
Flags: HW
LayerCount: 2
Fore
SplineSet
349.998046875 699.509765625 m 0
 350.591072541 699.509765625 351.498046875 698.602792081 351.498046875 698.009765625 c 2
 351.498046875 131.081054688 l 2
 351.498046875 130.488029021 350.591073331 129.581054688 349.998046875 129.581054688 c 0
 349.404207097 129.581054688 348.498046875 130.487201563 348.498046875 131.081054688 c 2
 348.498046875 698.009765625 l 2
 348.498046875 698.603617936 349.404206246 699.509765625 349.998046875 699.509765625 c 0
117.069337641 542.28121022 m 0
 116.629557515 542.677021636 116.56193444 543.958269266 116.958498916 544.398917172 c 2
 348.882306952 802.084441726 l 2
 349.278695738 802.524859911 350.559793034 802.593248126 351.001527985 802.195733382 c 0
 351.44130811 801.799921966 351.509354622 800.518293233 351.112790147 800.077645328 c 2
 119.188982112 542.392120775 l 2
 118.792488013 541.95158558 117.512339557 541.882527235 117.069337641 542.28121022 c 0
116.57421875 28 m 0
 116.57421875 28.5938523111 117.480378121 29.5 118.07421875 29.5 c 2
 581.92578125 29.5 l 2
 582.519621028 29.5 583.42578125 28.5938531241 583.42578125 28 c 0
 583.42578125 27.4061476884 582.519621879 26.5 581.92578125 26.5 c 2
 118.07421875 26.5 l 2
 117.480378972 26.5 116.57421875 27.4061468763 116.57421875 28 c 0
EndSplineSet
EndChar

StartChar: bar
Encoding: 124 124 94
Width: 700
VWidth: 0
Flags: HW
LayerCount: 2
Fore
SplineSet
350 863.662109375 m 0
 350.593025666 863.662109375 351.5 862.755135831 351.5 862.162109375 c 2
 351.5 -14 l 2
 351.5 -14.5930256661 350.593026456 -15.5 350 -15.5 c 0
 349.406974334 -15.5 348.5 -14.5930264557 348.5 -14 c 2
 348.5 862.162109375 l 2
 348.5 862.755135041 349.406973544 863.662109375 350 863.662109375 c 0
EndSplineSet
EndChar

StartChar: exclam
Encoding: 33 33 95
Width: 700
VWidth: 0
Flags: HW
LayerCount: 2
Fore
SplineSet
350 31.34765625 m 0
 349.406974334 31.34765625 348.5 32.2546297943 348.5 32.84765625 c 2
 348.5 58.619140625 l 2
 348.5 59.2121662911 349.406973544 60.119140625 350 60.119140625 c 0
 350.593025666 60.119140625 351.5 59.2121670807 351.5 58.619140625 c 2
 351.5 32.84765625 l 2
 351.5 32.2546305839 350.593026456 31.34765625 350 31.34765625 c 0
350 237.5 m 0
 349.406974334 237.5 348.5 238.406973544 348.5 239 c 2
 348.5 805.928710938 l 2
 348.5 806.521736603 349.406973545 807.428710938 350 807.428710938 c 0
 350.593025665 807.428710938 351.5 806.521737393 351.5 805.928710938 c 2
 351.5 239 l 2
 351.5 238.406974334 350.593026456 237.5 350 237.5 c 0
EndSplineSet
EndChar

StartChar: nine
Encoding: 57 57 131
Width: 700
VWidth: 0
Flags: HW
LayerCount: 2
Fore
SplineSet
348.672777117 24.6533549806 m 0
 348.384356844 25.1716660109 348.734734514 26.4040030705 349.254582631 26.693247498 c 0
 489.470380279 104.71394826 577.541791682 251.509817037 580.407887497 411.94802959 c 0
 583.186157131 567.262671844 505.472467723 712.982845273 374.942196797 797.203020966 c 0
 374.44346844 797.524827352 374.173433601 798.77961082 374.494036591 799.276553203 c 0
 374.816302062 799.77599304 376.070461192 800.04608409 376.569113702 799.724346711 c 0
 507.971535272 714.940303253 586.205324374 568.248901501 583.406550749 411.892934818 c 0
 580.521676468 250.387357772 491.863945849 102.612878572 350.713868016 24.0727543127 c 0
 350.193629022 23.7832924007 348.960322292 24.1365918588 348.672777117 24.6533549806 c 0
299.896489087 798.808788336 m 0
 300.033352447 798.228431445 299.357706811 797.14009168 298.779767275 797.003736161 c 0
 192.294588033 771.882164663 117.687176776 675.962133251 119.555501703 566.565238882 c 0
 121.719016969 439.640140276 223.571195991 336.829493145 349.992358682 336.111851253 c 0
 477.545209602 335.388127765 581.130262581 438.971764045 580.407682599 566.531596287 c 0
 580.404318062 567.126060009 581.306255247 568.037206005 581.898783787 568.040559588 c 0
 582.491989153 568.043917003 583.404387207 567.142123333 583.407748565 566.548221111 c 0
 584.14018896 437.320035894 479.197608179 332.379230928 349.975621143 333.110803825 c 0
 221.888269838 333.838373466 118.746751439 437.994907467 116.554836093 566.514669763 c 0
 114.663311703 677.321610323 190.231360307 774.478060699 298.093215589 799.924213513 c 0
 298.666617357 800.059505702 299.759749064 799.388295172 299.896489087 798.808788336 c 0
EndSplineSet
EndChar

StartChar: uni00AD
Encoding: 173 173 176
Width: 700
VWidth: 0
Flags: HW
LayerCount: 2
Fore
SplineSet
142.337890625 402 m 0
 142.337890625 402.593025666 143.244864169 403.5 143.837890625 403.5 c 2
 556.162109375 403.5 l 2
 556.755135041 403.5 557.662109375 402.593026456 557.662109375 402 c 0
 557.662109375 401.406974334 556.755135831 400.5 556.162109375 400.5 c 2
 143.837890625 400.5 l 2
 143.244864959 400.5 142.337890625 401.406973544 142.337890625 402 c 0
EndSplineSet
EndChar

StartChar: Agrave
Encoding: 192 192 192
Width: 700
VWidth: 0
Flags: HW
LayerCount: 2
Fore
SplineSet
116.650396249 1090.37052417 m 0
 116.838740985 1090.93549596 117.986039257 1091.50737744 118.547987653 1091.32007165 c 2
 582.400842928 936.70570844 l 2
 582.963099769 936.518299846 583.537025295 935.37145907 583.349263126 934.808141445 c 0
 583.161854534 934.245884608 582.014767226 933.672041251 581.451992874 933.859622339 c 2
 117.600224347 1088.47329774 l 2
 117.036735804 1088.66115838 116.463306439 1089.80925474 116.650396249 1090.37052417 c 0
298.804713419 808.841547498 m 0
 299.382589221 808.706710847 300.059425019 807.618842654 299.924425144 807.040431844 c 2
 119.533365025 33.9575121654 l 2
 119.398754031 33.3804703868 118.312711127 32.704127867 117.731926227 32.8396818501 c 0
 117.155876114 32.9740615111 116.4787716 34.0622956291 116.613660794 34.6402322187 c 2
 297.004720913 807.723151898 l 2
 297.139223909 808.299730713 298.228423756 808.976045064 298.804713419 808.841547498 c 0
582.266627482 32.8391165655 m 0
 581.690338845 32.7046192389 580.601427791 33.3796908053 580.466286263 33.9590068429 c 2
 400.085109804 807.040443799 l 2
 399.950121144 807.618868809 400.625803801 808.706414551 401.205859798 808.841735978 c 0
 401.781989126 808.976196124 402.870251897 808.300973257 403.005393425 807.721657219 c 2
 583.386569883 34.6402202632 l 2
 583.52158845 34.061667104 582.844569555 32.9739686791 582.266627482 32.8391165655 c 0
245.421875 292 m 0
 245.421875 292.593852312 246.328034371 293.5 246.921875 293.5 c 2
 453.079101562 293.5 l 2
 453.672127229 293.5 454.579101562 292.593026457 454.579101562 292 c 0
 454.579101562 291.406974333 453.672128019 290.5 453.079101562 290.5 c 2
 246.921875 290.5 l 2
 246.328035222 290.5 245.421875 291.406146876 245.421875 292 c 0
EndSplineSet
EndChar

StartChar: Aacute
Encoding: 193 193 193
Width: 700
VWidth: 0
Flags: HW
LayerCount: 2
Fore
SplineSet
645.013677498 1110.92635084 m 0
 633.414865889 1145.71894182 595.693070507 1164.58246632 560.897597029 1152.98461585 c 2
 97.0453741785 998.370463436 l 2
 62.250209144 986.772715778 43.3885877956 949.048462806 54.9859818761 914.254358555 c 0
 66.5837295335 879.459193516 104.307735976 860.597489999 139.102383498 872.195065161 c 2
 602.957646224 1026.80990538 l 2
 637.749626429 1038.40915412 656.611790906 1076.1320106 645.013677498 1110.92635084 c 0
298.804713419 808.841547498 m 0
 299.382589221 808.706710847 300.059425019 807.618842654 299.924425144 807.040431844 c 2
 119.533365025 33.9575121654 l 2
 119.398754031 33.3804703868 118.312711127 32.704127867 117.731926227 32.8396818501 c 0
 117.155876114 32.9740615111 116.4787716 34.0622956291 116.613660794 34.6402322187 c 2
 297.004720913 807.723151898 l 2
 297.139223909 808.299730713 298.228423756 808.976045064 298.804713419 808.841547498 c 0
582.266627482 32.8391165655 m 0
 581.690338845 32.7046192389 580.601427791 33.3796908053 580.466286263 33.9590068429 c 2
 400.085109804 807.040443799 l 2
 399.950121144 807.618868809 400.625803801 808.706414551 401.205859798 808.841735978 c 0
 401.781989126 808.976196124 402.870251897 808.300973257 403.005393425 807.721657219 c 2
 583.386569883 34.6402202632 l 2
 583.52158845 34.061667104 582.844569555 32.9739686791 582.266627482 32.8391165655 c 0
245.421875 292 m 0
 245.421875 292.593852312 246.328034371 293.5 246.921875 293.5 c 2
 453.079101562 293.5 l 2
 453.672127229 293.5 454.579101562 292.593026457 454.579101562 292 c 0
 454.579101562 291.406974333 453.672128019 290.5 453.079101562 290.5 c 2
 246.921875 290.5 l 2
 246.328035222 290.5 245.421875 291.406146876 245.421875 292 c 0
EndSplineSet
EndChar

StartChar: Acircumflex
Encoding: 194 194 194
Width: 700
VWidth: 0
Flags: HW
LayerCount: 2
Fore
SplineSet
116.824968718 935.599825475 m 0
 116.496310742 936.09284349 116.7483781 937.35120446 117.241492182 937.679957534 c 2
 349.166476166 1092.29498595 l 2
 349.229094582 1092.33673498 350.304059812 1092.52151701 350.869147078 1092.2673318 c 2
 582.757983395 937.680307153 l 2
 583.2520965 937.350888042 583.502240702 936.090701101 583.176210434 935.601594091 c 0
 582.845552084 935.105669037 581.586076963 934.855334573 581.093790802 935.183484008 c 2
 368.024454864 1077.2254762 l 2
 356.873022383 1084.65954304 341.825941774 1083.79625331 331.969428345 1077.22530459 c 2
 118.906230398 935.184474704 l 2
 118.411598371 934.854730403 117.154074343 935.106182582 116.824968718 935.599825475 c 0
298.804713419 808.841547498 m 0
 299.382589221 808.706710847 300.059425019 807.618842654 299.924425144 807.040431844 c 2
 119.533365025 33.9575121654 l 2
 119.398754031 33.3804703868 118.312711127 32.704127867 117.731926227 32.8396818501 c 0
 117.155876114 32.9740615111 116.4787716 34.0622956291 116.613660794 34.6402322187 c 2
 297.004720913 807.723151898 l 2
 297.139223909 808.299730713 298.228423756 808.976045064 298.804713419 808.841547498 c 0
582.266627482 32.8391165655 m 0
 581.690338845 32.7046192389 580.601427791 33.3796908053 580.466286263 33.9590068429 c 2
 400.085109804 807.040443799 l 2
 399.950121144 807.618868809 400.625803801 808.706414551 401.205859798 808.841735978 c 0
 401.781989126 808.976196124 402.870251897 808.300973257 403.005393425 807.721657219 c 2
 583.386569883 34.6402202632 l 2
 583.52158845 34.061667104 582.844569555 32.9739686791 582.266627482 32.8391165655 c 0
245.421875 292 m 0
 245.421875 292.593852312 246.328034371 293.5 246.921875 293.5 c 2
 453.079101562 293.5 l 2
 453.672127229 293.5 454.579101562 292.593026457 454.579101562 292 c 0
 454.579101562 291.406974333 453.672128019 290.5 453.079101562 290.5 c 2
 246.921875 290.5 l 2
 246.328035222 290.5 245.421875 291.406146876 245.421875 292 c 0
EndSplineSet
EndChar

StartChar: Atilde
Encoding: 195 195 195
Width: 700
VWidth: 0
Flags: HW
LayerCount: 2
Fore
SplineSet
476.067238469 947.850773868 m 1
 479.482759353 946.970170263 483.325268089 946.212063523 487.91592969 946.083820391 c 0
 489.202983607 946.048068893 492.825112885 946.068558095 493.721091711 946.131398238 c 0
 502.752959037 946.764854985 511.628804748 951.929766323 516.541771343 957.899499272 c 0
 528.699893178 972.67280154 528.888671875 986.269340501 528.888671875 1014 c 0
 528.888671875 1014.59385231 529.794831251 1015.5 530.388671875 1015.5 c 0
 530.981697537 1015.5 531.888671875 1014.59302645 531.888671875 1014 c 0
 531.888671875 963.508316876 514.216618403 943.558701114 489.492188856 943.068041484 c 0
 487.65164402 943.430547457 482.713236395 944.97663409 476.067238469 947.850773868 c 1
396.240501172 992.590902924 m 1
 359.258379337 1015.38910846 319.449803765 1041.12928234 287.178026554 1059.87344259 c 1
 323.789793854 1040.54738451 363.103226756 1014.43894079 396.240501172 992.590902924 c 1
210.606739406 1088.1687805 m 1
 175.573372273 1081.66943775 171.111328125 1045.27518534 171.111328125 1014 c 0
 171.111328125 1013.40614769 170.205168754 1012.5 169.611328125 1012.5 c 0
 169.018302459 1012.5 168.111328125 1013.40697354 168.111328125 1014 c 0
 168.111328125 1017.76030244 168.433563061 1022.3629984 168.585608994 1028.19182177 c 0
 168.738412464 1034.04459226 169.098648876 1039.39637627 169.6302318 1044.25060947 c 0
 174.635679018 1089.9586391 186.997267452 1090.76364355 210.606739406 1088.1687805 c 1
298.804713419 808.841547498 m 0
 299.382589221 808.706710847 300.059425019 807.618842654 299.924425144 807.040431844 c 2
 119.533365025 33.9575121654 l 2
 119.398754031 33.3804703868 118.312711127 32.704127867 117.731926227 32.8396818501 c 0
 117.155876114 32.9740615111 116.4787716 34.0622956291 116.613660794 34.6402322187 c 2
 297.004720913 807.723151898 l 2
 297.139223909 808.299730713 298.228423756 808.976045064 298.804713419 808.841547498 c 0
582.266627482 32.8391165655 m 0
 581.690338845 32.7046192389 580.601427791 33.3796908053 580.466286263 33.9590068429 c 2
 400.085109804 807.040443799 l 2
 399.950121144 807.618868809 400.625803801 808.706414551 401.205859798 808.841735978 c 0
 401.781989126 808.976196124 402.870251897 808.300973257 403.005393425 807.721657219 c 2
 583.386569883 34.6402202632 l 2
 583.52158845 34.061667104 582.844569555 32.9739686791 582.266627482 32.8391165655 c 0
245.421875 292 m 0
 245.421875 292.593852312 246.328034371 293.5 246.921875 293.5 c 2
 453.079101562 293.5 l 2
 453.672127229 293.5 454.579101562 292.593026457 454.579101562 292 c 0
 454.579101562 291.406974333 453.672128019 290.5 453.079101562 290.5 c 2
 246.921875 290.5 l 2
 246.328035222 290.5 245.421875 291.406146876 245.421875 292 c 0
EndSplineSet
EndChar

StartChar: Adieresis
Encoding: 196 196 196
Width: 700
VWidth: 0
Flags: HW
LayerCount: 2
Fore
SplineSet
440.1953125 1015.96679688 m 0
 439.602286836 1015.96679688 438.6953125 1016.87377042 438.6953125 1017.46679688 c 2
 438.6953125 1069 l 2
 438.6953125 1069.59302566 439.602286048 1070.5 440.1953125 1070.5 c 0
 440.788338162 1070.5 441.6953125 1069.59302645 441.6953125 1069 c 2
 441.6953125 1017.46679688 l 2
 441.6953125 1016.87377121 440.788338954 1015.96679688 440.1953125 1015.96679688 c 0
259.8046875 1015.96679688 m 0
 259.211661836 1015.96679688 258.3046875 1016.87377042 258.3046875 1017.46679688 c 2
 258.3046875 1069 l 2
 258.3046875 1069.59302566 259.211661048 1070.5 259.8046875 1070.5 c 0
 260.397713162 1070.5 261.3046875 1069.59302645 261.3046875 1069 c 2
 261.3046875 1017.46679688 l 2
 261.3046875 1016.87377121 260.397713954 1015.96679688 259.8046875 1015.96679688 c 0
298.804713419 808.841547498 m 0
 299.382589221 808.706710847 300.059425019 807.618842654 299.924425144 807.040431844 c 2
 119.533365025 33.9575121654 l 2
 119.398754031 33.3804703868 118.312711127 32.704127867 117.731926227 32.8396818501 c 0
 117.155876114 32.9740615111 116.4787716 34.0622956291 116.613660794 34.6402322187 c 2
 297.004720913 807.723151898 l 2
 297.139223909 808.299730713 298.228423756 808.976045064 298.804713419 808.841547498 c 0
582.266627482 32.8391165655 m 0
 581.690338845 32.7046192389 580.601427791 33.3796908053 580.466286263 33.9590068429 c 2
 400.085109804 807.040443799 l 2
 399.950121144 807.618868809 400.625803801 808.706414551 401.205859798 808.841735978 c 0
 401.781989126 808.976196124 402.870251897 808.300973257 403.005393425 807.721657219 c 2
 583.386569883 34.6402202632 l 2
 583.52158845 34.061667104 582.844569555 32.9739686791 582.266627482 32.8391165655 c 0
245.421875 292 m 0
 245.421875 292.593852312 246.328034371 293.5 246.921875 293.5 c 2
 453.079101562 293.5 l 2
 453.672127229 293.5 454.579101562 292.593026457 454.579101562 292 c 0
 454.579101562 291.406974333 453.672128019 290.5 453.079101562 290.5 c 2
 246.921875 290.5 l 2
 246.328035222 290.5 245.421875 291.406146876 245.421875 292 c 0
EndSplineSet
EndChar

StartChar: Aring
Encoding: 197 197 197
Width: 700
VWidth: 0
Flags: HW
LayerCount: 2
Fore
SplineSet
245.423828125 995 m 0
 245.423828125 1052.75132621 292.243178269 1099.57128906 350.004882812 1099.57128906 c 0
 407.756743024 1099.57128906 454.576171875 1052.75180862 454.576171875 995 c 0
 454.576171875 937.238974187 407.756887608 890.418945312 350.004882812 890.418945312 c 0
 292.242724926 890.418945312 245.423828125 937.238624116 245.423828125 995 c 0
248.423828125 995 m 0
 248.423828125 938.8965973 293.902325879 893.418945312 350.004882812 893.418945312 c 0
 406.098097358 893.418945312 451.576171875 938.896207274 451.576171875 995 c 0
 451.576171875 1051.09404436 406.099541904 1096.57128906 350.004882812 1096.57128906 c 0
 293.90170748 1096.57128906 248.423828125 1051.09383093 248.423828125 995 c 0
298.804713419 808.841547498 m 0
 299.382589221 808.706710847 300.059425019 807.618842654 299.924425144 807.040431844 c 2
 119.533365025 33.9575121654 l 2
 119.398754031 33.3804703868 118.312711127 32.704127867 117.731926227 32.8396818501 c 0
 117.155876114 32.9740615111 116.4787716 34.0622956291 116.613660794 34.6402322187 c 2
 297.004720913 807.723151898 l 2
 297.139223909 808.299730713 298.228423756 808.976045064 298.804713419 808.841547498 c 0
582.266627482 32.8391165655 m 0
 581.690338845 32.7046192389 580.601427791 33.3796908053 580.466286263 33.9590068429 c 2
 400.085109804 807.040443799 l 2
 399.950121144 807.618868809 400.625803801 808.706414551 401.205859798 808.841735978 c 0
 401.781989126 808.976196124 402.870251897 808.300973257 403.005393425 807.721657219 c 2
 583.386569883 34.6402202632 l 2
 583.52158845 34.061667104 582.844569555 32.9739686791 582.266627482 32.8391165655 c 0
245.421875 292 m 0
 245.421875 292.593852312 246.328034371 293.5 246.921875 293.5 c 2
 453.079101562 293.5 l 2
 453.672127229 293.5 454.579101562 292.593026457 454.579101562 292 c 0
 454.579101562 291.406974333 453.672128019 290.5 453.079101562 290.5 c 2
 246.921875 290.5 l 2
 246.328035222 290.5 245.421875 291.406146876 245.421875 292 c 0
EndSplineSet
EndChar

StartChar: AE
Encoding: 198 198 198
Width: 700
VWidth: 0
Flags: HW
LayerCount: 2
Fore
SplineSet
402.07421875 802.038085938 m 0
 402.667244415 802.038085938 403.57421875 801.131112393 403.57421875 800.538085938 c 2
 403.57421875 27.45703125 l 2
 403.57421875 26.8640055839 402.667245206 25.95703125 402.07421875 25.95703125 c 0
 401.480378972 25.95703125 400.57421875 26.8631781259 400.57421875 27.45703125 c 2
 400.57421875 800.538085938 l 2
 400.57421875 801.131938249 401.480378121 802.038085938 402.07421875 802.038085938 c 0
503.654296875 800.538085938 m 0
 503.654296875 801.131111603 504.56127042 802.038085938 505.154296875 802.038085938 c 2
 581.92578125 802.038085938 l 2
 582.519621027 802.038085938 583.42578125 801.131939061 583.42578125 800.538085938 c 0
 583.42578125 799.944233626 582.51962188 799.038085938 581.92578125 799.038085938 c 2
 505.154296875 799.038085938 l 2
 504.561271208 799.038085938 503.654296875 799.945059481 503.654296875 800.538085938 c 0
503.654296875 414 m 0
 503.654296875 414.593025666 504.561270419 415.5 505.154296875 415.5 c 2
 581.92578125 415.5 l 2
 582.519621028 415.5 583.42578125 414.593853124 583.42578125 414 c 0
 583.42578125 413.406147688 582.519621879 412.5 581.92578125 412.5 c 2
 505.154296875 412.5 l 2
 504.561271209 412.5 503.654296875 413.406973544 503.654296875 414 c 0
583.42578125 27.45703125 m 0
 583.42578125 26.8631789384 582.519621879 25.95703125 581.92578125 25.95703125 c 2
 505.154296875 25.95703125 l 2
 504.561271209 25.95703125 503.654296875 26.8640047943 503.654296875 27.45703125 c 0
 503.654296875 28.0500569161 504.561270419 28.95703125 505.154296875 28.95703125 c 2
 581.92578125 28.95703125 l 2
 582.519621028 28.95703125 583.42578125 28.0508843741 583.42578125 27.45703125 c 0
298.804713419 808.841547498 m 0
 299.382589221 808.706710847 300.059425019 807.618842654 299.924425144 807.040431844 c 2
 119.533365025 33.9575121654 l 2
 119.398754031 33.3804703868 118.312711127 32.704127867 117.731926227 32.8396818501 c 0
 117.155876114 32.9740615111 116.4787716 34.0622956291 116.613660794 34.6402322187 c 2
 297.004720913 807.723151898 l 2
 297.139223909 808.299730713 298.228423756 808.976045064 298.804713419 808.841547498 c 0
245.421875 292 m 0
 245.421875 292.593852312 246.328034371 293.5 246.921875 293.5 c 2
 306.079101562 293.5 l 2
 306.672127229 293.5 307.579101562 292.593026457 307.579101562 292 c 0
 307.579101562 291.406974333 306.672128019 290.5 306.079101562 290.5 c 2
 246.921875 290.5 l 2
 246.328035222 290.5 245.421875 291.406146876 245.421875 292 c 0
EndSplineSet
EndChar

StartChar: Ccedilla
Encoding: 199 199 199
Width: 700
VWidth: 0
Flags: HW
LayerCount: 2
Fore
SplineSet
323.33094121 -242.814612192 m 0
 322.856582418 -242.458866404 322.675449048 -241.187710357 323.030528947 -240.714177442 c 0
 348.714212274 -206.464758056 364.913662134 -166.208692442 371.247408295 -126.06510468 c 0
 374.663469883 -104.413942057 354.964728743 -88.5 339.14453125 -88.5 c 2
 324.23046875 -88.5 l 2
 323.637443084 -88.5 322.73046875 -87.5930264557 322.73046875 -87 c 0
 322.73046875 -86.4069743339 323.637442294 -85.5 324.23046875 -85.5 c 2
 375.306490565 -85.5 l 2
 376.170308167 -85.795737322 377.151048449 -86.6720413041 377.263731513 -86.8313479062 c 0
 377.272930988 -86.9843178203 377.26953125 -86.9211458706 377.26953125 -87 c 0
 377.26953125 -143.076757911 359.077799861 -197.645653838 325.431027456 -242.513512898 c 0
 325.074430266 -242.989006967 323.804568781 -243.169794091 323.33094121 -242.814612192 c 0
118.07421875 466.495117188 m 0
 118.667244415 466.495117188 119.57421875 465.588143643 119.57421875 464.995117188 c 2
 119.57421875 258.842773438 l 2
 119.57421875 131.585110259 222.738883151 28.4189453125 349.998046875 28.4189453125 c 0
 477.259260997 28.4189453125 580.42578125 131.58432065 580.42578125 258.842773438 c 0
 580.42578125 259.435799103 581.332754795 260.342773438 581.92578125 260.342773438 c 0
 582.519621027 260.342773438 583.42578125 259.436626561 583.42578125 258.842773438 c 0
 583.42578125 129.92871964 478.915440102 25.4189453125 349.998046875 25.4189453125 c 0
 221.083774771 25.4189453125 116.57421875 129.929656452 116.57421875 258.842773438 c 2
 116.57421875 464.995117188 l 2
 116.57421875 465.588969498 117.480378122 466.495117188 118.07421875 466.495117188 c 0
118.07421875 566.576171875 m 0
 117.480378972 566.576171875 116.57421875 567.482318751 116.57421875 568.076171875 c 0
 116.57421875 696.995221751 221.084401079 801.5 349.998046875 801.5 c 0
 478.916169724 801.5 583.42578125 696.993739156 583.42578125 568.076171875 c 0
 583.42578125 567.482319563 582.519621879 566.576171875 581.92578125 566.576171875 c 0
 581.332755584 566.576171875 580.42578125 567.483145419 580.42578125 568.076171875 c 0
 580.42578125 695.338005196 477.261057563 798.5 349.998046875 798.5 c 0
 222.740953015 798.5 119.57421875 695.339358445 119.57421875 568.076171875 c 0
 119.57421875 567.483146209 118.667245206 566.576171875 118.07421875 566.576171875 c 0
EndSplineSet
EndChar

StartChar: Egrave
Encoding: 200 200 200
Width: 700
VWidth: 0
Flags: HW
LayerCount: 2
Fore
SplineSet
116.650396249 1090.37052417 m 0
 116.838740985 1090.93549596 117.986039257 1091.50737744 118.547987653 1091.32007165 c 2
 582.400842928 936.70570844 l 2
 582.963099769 936.518299846 583.537025295 935.37145907 583.349263126 934.808141445 c 0
 583.161854534 934.245884608 582.014767226 933.672041251 581.451992874 933.859622339 c 2
 117.600224347 1088.47329774 l 2
 117.036735804 1088.66115838 116.463306439 1089.80925474 116.650396249 1090.37052417 c 0
118.07421875 802.038085938 m 0
 118.667244415 802.038085938 119.57421875 801.131112393 119.57421875 800.538085938 c 2
 119.57421875 27.45703125 l 2
 119.57421875 26.8640055839 118.667245206 25.95703125 118.07421875 25.95703125 c 0
 117.480378972 25.95703125 116.57421875 26.8631781263 116.57421875 27.45703125 c 2
 116.57421875 800.538085938 l 2
 116.57421875 801.131938248 117.480378122 802.038085938 118.07421875 802.038085938 c 0
219.654296875 800.538085938 m 0
 219.654296875 801.131111603 220.56127042 802.038085938 221.154296875 802.038085938 c 2
 581.92578125 802.038085938 l 2
 582.519621027 802.038085938 583.42578125 801.131939061 583.42578125 800.538085938 c 0
 583.42578125 799.944233626 582.51962188 799.038085938 581.92578125 799.038085938 c 2
 221.154296875 799.038085938 l 2
 220.561271208 799.038085938 219.654296875 799.945059481 219.654296875 800.538085938 c 0
219.654296875 414 m 0
 219.654296875 414.593025666 220.561270419 415.5 221.154296875 415.5 c 2
 581.92578125 415.5 l 2
 582.519621028 415.5 583.42578125 414.593853124 583.42578125 414 c 0
 583.42578125 413.406147688 582.519621879 412.5 581.92578125 412.5 c 2
 221.154296875 412.5 l 2
 220.561271209 412.5 219.654296875 413.406973544 219.654296875 414 c 0
583.42578125 27.45703125 m 0
 583.42578125 26.8631789384 582.519621879 25.95703125 581.92578125 25.95703125 c 2
 221.154296875 25.95703125 l 2
 220.561271209 25.95703125 219.654296875 26.8640047943 219.654296875 27.45703125 c 0
 219.654296875 28.0500569161 220.561270419 28.95703125 221.154296875 28.95703125 c 2
 581.92578125 28.95703125 l 2
 582.519621028 28.95703125 583.42578125 28.0508843741 583.42578125 27.45703125 c 0
EndSplineSet
EndChar

StartChar: Eacute
Encoding: 201 201 201
Width: 700
VWidth: 0
Flags: HW
LayerCount: 2
Fore
SplineSet
645.013677498 1110.92635084 m 0
 633.414865889 1145.71894182 595.693070507 1164.58246632 560.897597029 1152.98461585 c 2
 97.0453741785 998.370463436 l 2
 62.250209144 986.772715778 43.3885877956 949.048462806 54.9859818761 914.254358555 c 0
 66.5837295335 879.459193516 104.307735976 860.597489999 139.102383498 872.195065161 c 2
 602.957646224 1026.80990538 l 2
 637.749626429 1038.40915412 656.611790906 1076.1320106 645.013677498 1110.92635084 c 0
118.07421875 802.038085938 m 0
 118.667244415 802.038085938 119.57421875 801.131112393 119.57421875 800.538085938 c 2
 119.57421875 27.45703125 l 2
 119.57421875 26.8640055839 118.667245206 25.95703125 118.07421875 25.95703125 c 0
 117.480378972 25.95703125 116.57421875 26.8631781263 116.57421875 27.45703125 c 2
 116.57421875 800.538085938 l 2
 116.57421875 801.131938248 117.480378122 802.038085938 118.07421875 802.038085938 c 0
219.654296875 800.538085938 m 0
 219.654296875 801.131111603 220.56127042 802.038085938 221.154296875 802.038085938 c 2
 581.92578125 802.038085938 l 2
 582.519621027 802.038085938 583.42578125 801.131939061 583.42578125 800.538085938 c 0
 583.42578125 799.944233626 582.51962188 799.038085938 581.92578125 799.038085938 c 2
 221.154296875 799.038085938 l 2
 220.561271208 799.038085938 219.654296875 799.945059481 219.654296875 800.538085938 c 0
219.654296875 414 m 0
 219.654296875 414.593025666 220.561270419 415.5 221.154296875 415.5 c 2
 581.92578125 415.5 l 2
 582.519621028 415.5 583.42578125 414.593853124 583.42578125 414 c 0
 583.42578125 413.406147688 582.519621879 412.5 581.92578125 412.5 c 2
 221.154296875 412.5 l 2
 220.561271209 412.5 219.654296875 413.406973544 219.654296875 414 c 0
583.42578125 27.45703125 m 0
 583.42578125 26.8631789384 582.519621879 25.95703125 581.92578125 25.95703125 c 2
 221.154296875 25.95703125 l 2
 220.561271209 25.95703125 219.654296875 26.8640047943 219.654296875 27.45703125 c 0
 219.654296875 28.0500569161 220.561270419 28.95703125 221.154296875 28.95703125 c 2
 581.92578125 28.95703125 l 2
 582.519621028 28.95703125 583.42578125 28.0508843741 583.42578125 27.45703125 c 0
EndSplineSet
EndChar

StartChar: Ecircumflex
Encoding: 202 202 202
Width: 700
VWidth: 0
Flags: HW
LayerCount: 2
Fore
SplineSet
116.824968718 935.599825475 m 0
 116.496310742 936.09284349 116.7483781 937.35120446 117.241492182 937.679957534 c 2
 349.166476166 1092.29498595 l 2
 349.229094582 1092.33673498 350.304059812 1092.52151701 350.869147078 1092.2673318 c 2
 582.757983395 937.680307153 l 2
 583.2520965 937.350888042 583.502240702 936.090701101 583.176210434 935.601594091 c 0
 582.845552084 935.105669037 581.586076963 934.855334573 581.093790802 935.183484008 c 2
 368.024454864 1077.2254762 l 2
 356.873022383 1084.65954304 341.825941774 1083.79625331 331.969428345 1077.22530459 c 2
 118.906230398 935.184474704 l 2
 118.411598371 934.854730403 117.154074343 935.106182582 116.824968718 935.599825475 c 0
118.07421875 802.038085938 m 0
 118.667244415 802.038085938 119.57421875 801.131112393 119.57421875 800.538085938 c 2
 119.57421875 27.45703125 l 2
 119.57421875 26.8640055839 118.667245206 25.95703125 118.07421875 25.95703125 c 0
 117.480378972 25.95703125 116.57421875 26.8631781263 116.57421875 27.45703125 c 2
 116.57421875 800.538085938 l 2
 116.57421875 801.131938248 117.480378122 802.038085938 118.07421875 802.038085938 c 0
219.654296875 800.538085938 m 0
 219.654296875 801.131111603 220.56127042 802.038085938 221.154296875 802.038085938 c 2
 581.92578125 802.038085938 l 2
 582.519621027 802.038085938 583.42578125 801.131939061 583.42578125 800.538085938 c 0
 583.42578125 799.944233626 582.51962188 799.038085938 581.92578125 799.038085938 c 2
 221.154296875 799.038085938 l 2
 220.561271208 799.038085938 219.654296875 799.945059481 219.654296875 800.538085938 c 0
219.654296875 414 m 0
 219.654296875 414.593025666 220.561270419 415.5 221.154296875 415.5 c 2
 581.92578125 415.5 l 2
 582.519621028 415.5 583.42578125 414.593853124 583.42578125 414 c 0
 583.42578125 413.406147688 582.519621879 412.5 581.92578125 412.5 c 2
 221.154296875 412.5 l 2
 220.561271209 412.5 219.654296875 413.406973544 219.654296875 414 c 0
583.42578125 27.45703125 m 0
 583.42578125 26.8631789384 582.519621879 25.95703125 581.92578125 25.95703125 c 2
 221.154296875 25.95703125 l 2
 220.561271209 25.95703125 219.654296875 26.8640047943 219.654296875 27.45703125 c 0
 219.654296875 28.0500569161 220.561270419 28.95703125 221.154296875 28.95703125 c 2
 581.92578125 28.95703125 l 2
 582.519621028 28.95703125 583.42578125 28.0508843741 583.42578125 27.45703125 c 0
EndSplineSet
EndChar

StartChar: Edieresis
Encoding: 203 203 203
Width: 700
VWidth: 0
Flags: HW
LayerCount: 2
Fore
SplineSet
440.1953125 1015.96679688 m 0
 439.602286836 1015.96679688 438.6953125 1016.87377042 438.6953125 1017.46679688 c 2
 438.6953125 1069 l 2
 438.6953125 1069.59302566 439.602286048 1070.5 440.1953125 1070.5 c 0
 440.788338162 1070.5 441.6953125 1069.59302645 441.6953125 1069 c 2
 441.6953125 1017.46679688 l 2
 441.6953125 1016.87377121 440.788338954 1015.96679688 440.1953125 1015.96679688 c 0
259.8046875 1015.96679688 m 0
 259.211661836 1015.96679688 258.3046875 1016.87377042 258.3046875 1017.46679688 c 2
 258.3046875 1069 l 2
 258.3046875 1069.59302566 259.211661048 1070.5 259.8046875 1070.5 c 0
 260.397713162 1070.5 261.3046875 1069.59302645 261.3046875 1069 c 2
 261.3046875 1017.46679688 l 2
 261.3046875 1016.87377121 260.397713954 1015.96679688 259.8046875 1015.96679688 c 0
118.07421875 802.038085938 m 0
 118.667244415 802.038085938 119.57421875 801.131112393 119.57421875 800.538085938 c 2
 119.57421875 27.45703125 l 2
 119.57421875 26.8640055839 118.667245206 25.95703125 118.07421875 25.95703125 c 0
 117.480378972 25.95703125 116.57421875 26.8631781263 116.57421875 27.45703125 c 2
 116.57421875 800.538085938 l 2
 116.57421875 801.131938248 117.480378122 802.038085938 118.07421875 802.038085938 c 0
219.654296875 800.538085938 m 0
 219.654296875 801.131111603 220.56127042 802.038085938 221.154296875 802.038085938 c 2
 581.92578125 802.038085938 l 2
 582.519621027 802.038085938 583.42578125 801.131939061 583.42578125 800.538085938 c 0
 583.42578125 799.944233626 582.51962188 799.038085938 581.92578125 799.038085938 c 2
 221.154296875 799.038085938 l 2
 220.561271208 799.038085938 219.654296875 799.945059481 219.654296875 800.538085938 c 0
219.654296875 414 m 0
 219.654296875 414.593025666 220.561270419 415.5 221.154296875 415.5 c 2
 581.92578125 415.5 l 2
 582.519621028 415.5 583.42578125 414.593853124 583.42578125 414 c 0
 583.42578125 413.406147688 582.519621879 412.5 581.92578125 412.5 c 2
 221.154296875 412.5 l 2
 220.561271209 412.5 219.654296875 413.406973544 219.654296875 414 c 0
583.42578125 27.45703125 m 0
 583.42578125 26.8631789384 582.519621879 25.95703125 581.92578125 25.95703125 c 2
 221.154296875 25.95703125 l 2
 220.561271209 25.95703125 219.654296875 26.8640047943 219.654296875 27.45703125 c 0
 219.654296875 28.0500569161 220.561270419 28.95703125 221.154296875 28.95703125 c 2
 581.92578125 28.95703125 l 2
 582.519621028 28.95703125 583.42578125 28.0508843741 583.42578125 27.45703125 c 0
EndSplineSet
EndChar

StartChar: Igrave
Encoding: 204 204 204
Width: 700
VWidth: 0
Flags: HW
LayerCount: 2
Fore
SplineSet
116.650396249 1090.37052417 m 0
 116.838740985 1090.93549596 117.986039257 1091.50737744 118.547987653 1091.32007165 c 2
 582.400842928 936.70570844 l 2
 582.963099769 936.518299846 583.537025295 935.37145907 583.349263126 934.808141445 c 0
 583.161854534 934.245884608 582.014767226 933.672041251 581.451992874 933.859622339 c 2
 117.600224347 1088.47329774 l 2
 117.036735804 1088.66115838 116.463306439 1089.80925474 116.650396249 1090.37052417 c 0
349.998046875 700.428710938 m 0
 350.59107254 700.428710938 351.498046875 699.521737393 351.498046875 698.928710938 c 2
 351.498046875 132 l 2
 351.498046875 131.406974334 350.591073331 130.5 349.998046875 130.5 c 0
 349.404207097 130.5 348.498046875 131.406146877 348.498046875 132 c 2
 348.498046875 698.928710938 l 2
 348.498046875 699.522563248 349.404206247 700.428710938 349.998046875 700.428710938 c 0
116.57421875 802 m 0
 116.57421875 802.593852311 117.480378121 803.5 118.07421875 803.5 c 2
 581.92578125 803.5 l 2
 582.519621028 803.5 583.42578125 802.593853124 583.42578125 802 c 0
 583.42578125 801.406147688 582.519621879 800.5 581.92578125 800.5 c 2
 118.07421875 800.5 l 2
 117.480378972 800.5 116.57421875 801.406146876 116.57421875 802 c 0
116.57421875 28.9189453125 m 0
 116.57421875 29.5127976236 117.480378121 30.4189453125 118.07421875 30.4189453125 c 2
 581.92578125 30.4189453125 l 2
 582.519621028 30.4189453125 583.42578125 29.5127984366 583.42578125 28.9189453125 c 0
 583.42578125 28.3250930009 582.519621879 27.4189453125 581.92578125 27.4189453125 c 2
 118.07421875 27.4189453125 l 2
 117.480378972 27.4189453125 116.57421875 28.3250921888 116.57421875 28.9189453125 c 0
EndSplineSet
EndChar

StartChar: Iacute
Encoding: 205 205 205
Width: 700
VWidth: 0
Flags: HW
LayerCount: 2
Fore
SplineSet
645.013677498 1110.92635084 m 0
 633.414865889 1145.71894182 595.693070507 1164.58246632 560.897597029 1152.98461585 c 2
 97.0453741785 998.370463436 l 2
 62.250209144 986.772715778 43.3885877956 949.048462806 54.9859818761 914.254358555 c 0
 66.5837295335 879.459193516 104.307735976 860.597489999 139.102383498 872.195065161 c 2
 602.957646224 1026.80990538 l 2
 637.749626429 1038.40915412 656.611790906 1076.1320106 645.013677498 1110.92635084 c 0
349.998046875 700.428710938 m 0
 350.59107254 700.428710938 351.498046875 699.521737393 351.498046875 698.928710938 c 2
 351.498046875 132 l 2
 351.498046875 131.406974334 350.591073331 130.5 349.998046875 130.5 c 0
 349.404207097 130.5 348.498046875 131.406146877 348.498046875 132 c 2
 348.498046875 698.928710938 l 2
 348.498046875 699.522563248 349.404206247 700.428710938 349.998046875 700.428710938 c 0
116.57421875 802 m 0
 116.57421875 802.593852311 117.480378121 803.5 118.07421875 803.5 c 2
 581.92578125 803.5 l 2
 582.519621028 803.5 583.42578125 802.593853124 583.42578125 802 c 0
 583.42578125 801.406147688 582.519621879 800.5 581.92578125 800.5 c 2
 118.07421875 800.5 l 2
 117.480378972 800.5 116.57421875 801.406146876 116.57421875 802 c 0
116.57421875 28.9189453125 m 0
 116.57421875 29.5127976236 117.480378121 30.4189453125 118.07421875 30.4189453125 c 2
 581.92578125 30.4189453125 l 2
 582.519621028 30.4189453125 583.42578125 29.5127984366 583.42578125 28.9189453125 c 0
 583.42578125 28.3250930009 582.519621879 27.4189453125 581.92578125 27.4189453125 c 2
 118.07421875 27.4189453125 l 2
 117.480378972 27.4189453125 116.57421875 28.3250921888 116.57421875 28.9189453125 c 0
EndSplineSet
EndChar

StartChar: Icircumflex
Encoding: 206 206 206
Width: 700
VWidth: 0
Flags: HW
LayerCount: 2
Fore
SplineSet
116.824968718 935.599825475 m 0
 116.496310742 936.09284349 116.7483781 937.35120446 117.241492182 937.679957534 c 2
 349.166476166 1092.29498595 l 2
 349.229094582 1092.33673498 350.304059812 1092.52151701 350.869147078 1092.2673318 c 2
 582.757983395 937.680307153 l 2
 583.2520965 937.350888042 583.502240702 936.090701101 583.176210434 935.601594091 c 0
 582.845552084 935.105669037 581.586076963 934.855334573 581.093790802 935.183484008 c 2
 368.024454864 1077.2254762 l 2
 356.873022383 1084.65954304 341.825941774 1083.79625331 331.969428345 1077.22530459 c 2
 118.906230398 935.184474704 l 2
 118.411598371 934.854730403 117.154074343 935.106182582 116.824968718 935.599825475 c 0
349.998046875 700.428710938 m 0
 350.59107254 700.428710938 351.498046875 699.521737393 351.498046875 698.928710938 c 2
 351.498046875 132 l 2
 351.498046875 131.406974334 350.591073331 130.5 349.998046875 130.5 c 0
 349.404207097 130.5 348.498046875 131.406146877 348.498046875 132 c 2
 348.498046875 698.928710938 l 2
 348.498046875 699.522563248 349.404206247 700.428710938 349.998046875 700.428710938 c 0
116.57421875 802 m 0
 116.57421875 802.593852311 117.480378121 803.5 118.07421875 803.5 c 2
 581.92578125 803.5 l 2
 582.519621028 803.5 583.42578125 802.593853124 583.42578125 802 c 0
 583.42578125 801.406147688 582.519621879 800.5 581.92578125 800.5 c 2
 118.07421875 800.5 l 2
 117.480378972 800.5 116.57421875 801.406146876 116.57421875 802 c 0
116.57421875 28.9189453125 m 0
 116.57421875 29.5127976236 117.480378121 30.4189453125 118.07421875 30.4189453125 c 2
 581.92578125 30.4189453125 l 2
 582.519621028 30.4189453125 583.42578125 29.5127984366 583.42578125 28.9189453125 c 0
 583.42578125 28.3250930009 582.519621879 27.4189453125 581.92578125 27.4189453125 c 2
 118.07421875 27.4189453125 l 2
 117.480378972 27.4189453125 116.57421875 28.3250921888 116.57421875 28.9189453125 c 0
EndSplineSet
EndChar

StartChar: Idieresis
Encoding: 207 207 207
Width: 700
VWidth: 0
Flags: HW
LayerCount: 2
Fore
SplineSet
440.1953125 1015.96679688 m 0
 439.602286836 1015.96679688 438.6953125 1016.87377042 438.6953125 1017.46679688 c 2
 438.6953125 1069 l 2
 438.6953125 1069.59302566 439.602286048 1070.5 440.1953125 1070.5 c 0
 440.788338162 1070.5 441.6953125 1069.59302645 441.6953125 1069 c 2
 441.6953125 1017.46679688 l 2
 441.6953125 1016.87377121 440.788338954 1015.96679688 440.1953125 1015.96679688 c 0
259.8046875 1015.96679688 m 0
 259.211661836 1015.96679688 258.3046875 1016.87377042 258.3046875 1017.46679688 c 2
 258.3046875 1069 l 2
 258.3046875 1069.59302566 259.211661048 1070.5 259.8046875 1070.5 c 0
 260.397713162 1070.5 261.3046875 1069.59302645 261.3046875 1069 c 2
 261.3046875 1017.46679688 l 2
 261.3046875 1016.87377121 260.397713954 1015.96679688 259.8046875 1015.96679688 c 0
349.998046875 700.428710938 m 0
 350.59107254 700.428710938 351.498046875 699.521737393 351.498046875 698.928710938 c 2
 351.498046875 132 l 2
 351.498046875 131.406974334 350.591073331 130.5 349.998046875 130.5 c 0
 349.404207097 130.5 348.498046875 131.406146877 348.498046875 132 c 2
 348.498046875 698.928710938 l 2
 348.498046875 699.522563248 349.404206247 700.428710938 349.998046875 700.428710938 c 0
116.57421875 802 m 0
 116.57421875 802.593852311 117.480378121 803.5 118.07421875 803.5 c 2
 581.92578125 803.5 l 2
 582.519621028 803.5 583.42578125 802.593853124 583.42578125 802 c 0
 583.42578125 801.406147688 582.519621879 800.5 581.92578125 800.5 c 2
 118.07421875 800.5 l 2
 117.480378972 800.5 116.57421875 801.406146876 116.57421875 802 c 0
116.57421875 28.9189453125 m 0
 116.57421875 29.5127976236 117.480378121 30.4189453125 118.07421875 30.4189453125 c 2
 581.92578125 30.4189453125 l 2
 582.519621028 30.4189453125 583.42578125 29.5127984366 583.42578125 28.9189453125 c 0
 583.42578125 28.3250930009 582.519621879 27.4189453125 581.92578125 27.4189453125 c 2
 118.07421875 27.4189453125 l 2
 117.480378972 27.4189453125 116.57421875 28.3250921888 116.57421875 28.9189453125 c 0
EndSplineSet
EndChar

StartChar: Ntilde
Encoding: 209 209 209
Width: 700
VWidth: 0
Flags: HW
LayerCount: 2
Fore
SplineSet
476.067238469 947.850773868 m 1
 479.482759353 946.970170263 483.325268089 946.212063523 487.91592969 946.083820391 c 0
 489.202983607 946.048068893 492.825112885 946.068558095 493.721091711 946.131398238 c 0
 502.752959037 946.764854985 511.628804748 951.929766323 516.541771343 957.899499272 c 0
 528.699893178 972.67280154 528.888671875 986.269340501 528.888671875 1014 c 0
 528.888671875 1014.59385231 529.794831251 1015.5 530.388671875 1015.5 c 0
 530.981697537 1015.5 531.888671875 1014.59302645 531.888671875 1014 c 0
 531.888671875 963.508316876 514.216618403 943.558701114 489.492188856 943.068041484 c 0
 487.65164402 943.430547457 482.713236395 944.97663409 476.067238469 947.850773868 c 1
396.240501172 992.590902924 m 1
 359.258379337 1015.38910846 319.449803765 1041.12928234 287.178026554 1059.87344259 c 1
 323.789793854 1040.54738451 363.103226756 1014.43894079 396.240501172 992.590902924 c 1
210.606739406 1088.1687805 m 1
 175.573372273 1081.66943775 171.111328125 1045.27518534 171.111328125 1014 c 0
 171.111328125 1013.40614769 170.205168754 1012.5 169.611328125 1012.5 c 0
 169.018302459 1012.5 168.111328125 1013.40697354 168.111328125 1014 c 0
 168.111328125 1017.76030244 168.433563061 1022.3629984 168.585608994 1028.19182177 c 0
 168.738412464 1034.04459226 169.098648876 1039.39637627 169.6302318 1044.25060947 c 0
 174.635679018 1089.9586391 186.997267452 1090.76364355 210.606739406 1088.1687805 c 1
118.07421875 801.581054688 m 0
 118.667244415 801.581054688 119.57421875 800.674081143 119.57421875 800.081054688 c 2
 119.57421875 27 l 2
 119.57421875 26.4069743339 118.667245206 25.5 118.07421875 25.5 c 0
 117.480378972 25.5 116.57421875 26.4061468763 116.57421875 27 c 2
 116.57421875 800.081054688 l 2
 116.57421875 800.674906998 117.480378122 801.581054688 118.07421875 801.581054688 c 0
581.92578125 801.581054688 m 0
 582.519621027 801.581054688 583.42578125 800.674907811 583.42578125 800.081054688 c 2
 583.42578125 27 l 2
 583.42578125 26.4061476884 582.519621879 25.5 581.92578125 25.5 c 0
 581.332755584 25.5 580.42578125 26.4069735443 580.42578125 27 c 2
 580.42578125 800.081054688 l 2
 580.42578125 800.674080353 581.332754795 801.581054688 581.92578125 801.581054688 c 0
220.680001614 801.50381546 m 0
 221.243044119 801.69151703 222.39042059 801.118221928 222.57801917 800.5553951 c 2
 480.277338123 27.4750163773 l 2
 480.465601234 26.9102582402 479.891687111 25.7645468993 479.328997603 25.57698373 c 0
 478.7661067 25.3893326997 477.619345034 25.9628327609 477.431746455 26.5256595866 c 2
 219.732427503 799.606038309 l 2
 219.543800992 800.171886586 220.119122853 801.316866201 220.680001614 801.50381546 c 0
EndSplineSet
EndChar

StartChar: Ograve
Encoding: 210 210 210
Width: 700
VWidth: 0
Flags: HW
LayerCount: 2
Fore
SplineSet
116.650396249 1090.37052417 m 0
 116.838740985 1090.93549596 117.986039257 1091.50737744 118.547987653 1091.32007165 c 2
 582.400842928 936.70570844 l 2
 582.963099769 936.518299846 583.537025295 935.37145907 583.349263126 934.808141445 c 0
 583.161854534 934.245884608 582.014767226 933.672041251 581.451992874 933.859622339 c 2
 117.600224347 1088.47329774 l 2
 117.036735804 1088.66115838 116.463306439 1089.80925474 116.650396249 1090.37052417 c 0
118.07421875 465.418945312 m 0
 118.667244417 465.418945312 119.57421875 464.511971769 119.57421875 463.918945312 c 2
 119.57421875 257.766601562 l 2
 119.57421875 130.508938384 222.738883151 27.3427734375 349.998046875 27.3427734375 c 0
 477.259260997 27.3427734375 580.42578125 130.508148774 580.42578125 257.766601562 c 0
 580.42578125 258.359627229 581.332754793 259.266601562 581.92578125 259.266601562 c 0
 582.519621029 259.266601562 583.42578125 258.360454687 583.42578125 257.766601562 c 0
 583.42578125 128.852547764 478.915440102 24.3427734375 349.998046875 24.3427734375 c 0
 221.083774771 24.3427734375 116.57421875 128.853484576 116.57421875 257.766601562 c 2
 116.57421875 463.918945312 l 2
 116.57421875 464.512797624 117.48037812 465.418945312 118.07421875 465.418945312 c 0
118.07421875 565.5 m 0
 117.480378972 565.5 116.57421875 566.406146876 116.57421875 567 c 0
 116.57421875 695.919049875 221.084401079 800.423828125 349.998046875 800.423828125 c 0
 478.916169723 800.423828125 583.42578125 695.91756728 583.42578125 567 c 2
 583.42578125 360.84765625 l 2
 583.42578125 360.253803938 582.519621879 359.34765625 581.92578125 359.34765625 c 0
 581.332755584 359.34765625 580.42578125 360.254629794 580.42578125 360.84765625 c 2
 580.42578125 567 l 2
 580.42578125 694.26183332 477.261057563 797.423828125 349.998046875 797.423828125 c 0
 222.740953015 797.423828125 119.57421875 694.263186569 119.57421875 567 c 0
 119.57421875 566.406974334 118.667245206 565.5 118.07421875 565.5 c 0
EndSplineSet
EndChar

StartChar: Oacute
Encoding: 211 211 211
Width: 700
VWidth: 0
Flags: HW
LayerCount: 2
Fore
SplineSet
645.013677498 1110.92635084 m 0
 633.414865889 1145.71894182 595.693070507 1164.58246632 560.897597029 1152.98461585 c 2
 97.0453741785 998.370463436 l 2
 62.250209144 986.772715778 43.3885877956 949.048462806 54.9859818761 914.254358555 c 0
 66.5837295335 879.459193516 104.307735976 860.597489999 139.102383498 872.195065161 c 2
 602.957646224 1026.80990538 l 2
 637.749626429 1038.40915412 656.611790906 1076.1320106 645.013677498 1110.92635084 c 0
118.07421875 465.418945312 m 0
 118.667244417 465.418945312 119.57421875 464.511971769 119.57421875 463.918945312 c 2
 119.57421875 257.766601562 l 2
 119.57421875 130.508938384 222.738883151 27.3427734375 349.998046875 27.3427734375 c 0
 477.259260997 27.3427734375 580.42578125 130.508148774 580.42578125 257.766601562 c 0
 580.42578125 258.359627229 581.332754793 259.266601562 581.92578125 259.266601562 c 0
 582.519621029 259.266601562 583.42578125 258.360454687 583.42578125 257.766601562 c 0
 583.42578125 128.852547764 478.915440102 24.3427734375 349.998046875 24.3427734375 c 0
 221.083774771 24.3427734375 116.57421875 128.853484576 116.57421875 257.766601562 c 2
 116.57421875 463.918945312 l 2
 116.57421875 464.512797624 117.48037812 465.418945312 118.07421875 465.418945312 c 0
118.07421875 565.5 m 0
 117.480378972 565.5 116.57421875 566.406146876 116.57421875 567 c 0
 116.57421875 695.919049875 221.084401079 800.423828125 349.998046875 800.423828125 c 0
 478.916169723 800.423828125 583.42578125 695.91756728 583.42578125 567 c 2
 583.42578125 360.84765625 l 2
 583.42578125 360.253803938 582.519621879 359.34765625 581.92578125 359.34765625 c 0
 581.332755584 359.34765625 580.42578125 360.254629794 580.42578125 360.84765625 c 2
 580.42578125 567 l 2
 580.42578125 694.26183332 477.261057563 797.423828125 349.998046875 797.423828125 c 0
 222.740953015 797.423828125 119.57421875 694.263186569 119.57421875 567 c 0
 119.57421875 566.406974334 118.667245206 565.5 118.07421875 565.5 c 0
EndSplineSet
EndChar

StartChar: Ocircumflex
Encoding: 212 212 212
Width: 700
VWidth: 0
Flags: HW
LayerCount: 2
Fore
SplineSet
116.824968718 935.599825475 m 0
 116.496310742 936.09284349 116.7483781 937.35120446 117.241492182 937.679957534 c 2
 349.166476166 1092.29498595 l 2
 349.229094582 1092.33673498 350.304059812 1092.52151701 350.869147078 1092.2673318 c 2
 582.757983395 937.680307153 l 2
 583.2520965 937.350888042 583.502240702 936.090701101 583.176210434 935.601594091 c 0
 582.845552084 935.105669037 581.586076963 934.855334573 581.093790802 935.183484008 c 2
 368.024454864 1077.2254762 l 2
 356.873022383 1084.65954304 341.825941774 1083.79625331 331.969428345 1077.22530459 c 2
 118.906230398 935.184474704 l 2
 118.411598371 934.854730403 117.154074343 935.106182582 116.824968718 935.599825475 c 0
118.07421875 465.418945312 m 0
 118.667244417 465.418945312 119.57421875 464.511971769 119.57421875 463.918945312 c 2
 119.57421875 257.766601562 l 2
 119.57421875 130.508938384 222.738883151 27.3427734375 349.998046875 27.3427734375 c 0
 477.259260997 27.3427734375 580.42578125 130.508148774 580.42578125 257.766601562 c 0
 580.42578125 258.359627229 581.332754793 259.266601562 581.92578125 259.266601562 c 0
 582.519621029 259.266601562 583.42578125 258.360454687 583.42578125 257.766601562 c 0
 583.42578125 128.852547764 478.915440102 24.3427734375 349.998046875 24.3427734375 c 0
 221.083774771 24.3427734375 116.57421875 128.853484576 116.57421875 257.766601562 c 2
 116.57421875 463.918945312 l 2
 116.57421875 464.512797624 117.48037812 465.418945312 118.07421875 465.418945312 c 0
118.07421875 565.5 m 0
 117.480378972 565.5 116.57421875 566.406146876 116.57421875 567 c 0
 116.57421875 695.919049875 221.084401079 800.423828125 349.998046875 800.423828125 c 0
 478.916169723 800.423828125 583.42578125 695.91756728 583.42578125 567 c 2
 583.42578125 360.84765625 l 2
 583.42578125 360.253803938 582.519621879 359.34765625 581.92578125 359.34765625 c 0
 581.332755584 359.34765625 580.42578125 360.254629794 580.42578125 360.84765625 c 2
 580.42578125 567 l 2
 580.42578125 694.26183332 477.261057563 797.423828125 349.998046875 797.423828125 c 0
 222.740953015 797.423828125 119.57421875 694.263186569 119.57421875 567 c 0
 119.57421875 566.406974334 118.667245206 565.5 118.07421875 565.5 c 0
EndSplineSet
EndChar

StartChar: Otilde
Encoding: 213 213 213
Width: 700
VWidth: 0
Flags: HW
LayerCount: 2
Fore
SplineSet
476.067238469 947.850773868 m 1
 479.482759353 946.970170263 483.325268089 946.212063523 487.91592969 946.083820391 c 0
 489.202983607 946.048068893 492.825112885 946.068558095 493.721091711 946.131398238 c 0
 502.752959037 946.764854985 511.628804748 951.929766323 516.541771343 957.899499272 c 0
 528.699893178 972.67280154 528.888671875 986.269340501 528.888671875 1014 c 0
 528.888671875 1014.59385231 529.794831251 1015.5 530.388671875 1015.5 c 0
 530.981697537 1015.5 531.888671875 1014.59302645 531.888671875 1014 c 0
 531.888671875 963.508316876 514.216618403 943.558701114 489.492188856 943.068041484 c 0
 487.65164402 943.430547457 482.713236395 944.97663409 476.067238469 947.850773868 c 1
396.240501172 992.590902924 m 1
 359.258379337 1015.38910846 319.449803765 1041.12928234 287.178026554 1059.87344259 c 1
 323.789793854 1040.54738451 363.103226756 1014.43894079 396.240501172 992.590902924 c 1
210.606739406 1088.1687805 m 1
 175.573372273 1081.66943775 171.111328125 1045.27518534 171.111328125 1014 c 0
 171.111328125 1013.40614769 170.205168754 1012.5 169.611328125 1012.5 c 0
 169.018302459 1012.5 168.111328125 1013.40697354 168.111328125 1014 c 0
 168.111328125 1017.76030244 168.433563061 1022.3629984 168.585608994 1028.19182177 c 0
 168.738412464 1034.04459226 169.098648876 1039.39637627 169.6302318 1044.25060947 c 0
 174.635679018 1089.9586391 186.997267452 1090.76364355 210.606739406 1088.1687805 c 1
118.07421875 465.418945312 m 0
 118.667244417 465.418945312 119.57421875 464.511971769 119.57421875 463.918945312 c 2
 119.57421875 257.766601562 l 2
 119.57421875 130.508938384 222.738883151 27.3427734375 349.998046875 27.3427734375 c 0
 477.259260997 27.3427734375 580.42578125 130.508148774 580.42578125 257.766601562 c 0
 580.42578125 258.359627229 581.332754793 259.266601562 581.92578125 259.266601562 c 0
 582.519621029 259.266601562 583.42578125 258.360454687 583.42578125 257.766601562 c 0
 583.42578125 128.852547764 478.915440102 24.3427734375 349.998046875 24.3427734375 c 0
 221.083774771 24.3427734375 116.57421875 128.853484576 116.57421875 257.766601562 c 2
 116.57421875 463.918945312 l 2
 116.57421875 464.512797624 117.48037812 465.418945312 118.07421875 465.418945312 c 0
118.07421875 565.5 m 0
 117.480378972 565.5 116.57421875 566.406146876 116.57421875 567 c 0
 116.57421875 695.919049875 221.084401079 800.423828125 349.998046875 800.423828125 c 0
 478.916169723 800.423828125 583.42578125 695.91756728 583.42578125 567 c 2
 583.42578125 360.84765625 l 2
 583.42578125 360.253803938 582.519621879 359.34765625 581.92578125 359.34765625 c 0
 581.332755584 359.34765625 580.42578125 360.254629794 580.42578125 360.84765625 c 2
 580.42578125 567 l 2
 580.42578125 694.26183332 477.261057563 797.423828125 349.998046875 797.423828125 c 0
 222.740953015 797.423828125 119.57421875 694.263186569 119.57421875 567 c 0
 119.57421875 566.406974334 118.667245206 565.5 118.07421875 565.5 c 0
EndSplineSet
EndChar

StartChar: Odieresis
Encoding: 214 214 214
Width: 700
VWidth: 0
Flags: HW
LayerCount: 2
Fore
SplineSet
440.1953125 1015.96679688 m 0
 439.602286836 1015.96679688 438.6953125 1016.87377042 438.6953125 1017.46679688 c 2
 438.6953125 1069 l 2
 438.6953125 1069.59302566 439.602286048 1070.5 440.1953125 1070.5 c 0
 440.788338162 1070.5 441.6953125 1069.59302645 441.6953125 1069 c 2
 441.6953125 1017.46679688 l 2
 441.6953125 1016.87377121 440.788338954 1015.96679688 440.1953125 1015.96679688 c 0
259.8046875 1015.96679688 m 0
 259.211661836 1015.96679688 258.3046875 1016.87377042 258.3046875 1017.46679688 c 2
 258.3046875 1069 l 2
 258.3046875 1069.59302566 259.211661048 1070.5 259.8046875 1070.5 c 0
 260.397713162 1070.5 261.3046875 1069.59302645 261.3046875 1069 c 2
 261.3046875 1017.46679688 l 2
 261.3046875 1016.87377121 260.397713954 1015.96679688 259.8046875 1015.96679688 c 0
118.07421875 465.418945312 m 0
 118.667244417 465.418945312 119.57421875 464.511971769 119.57421875 463.918945312 c 2
 119.57421875 257.766601562 l 2
 119.57421875 130.508938384 222.738883151 27.3427734375 349.998046875 27.3427734375 c 0
 477.259260997 27.3427734375 580.42578125 130.508148774 580.42578125 257.766601562 c 0
 580.42578125 258.359627229 581.332754793 259.266601562 581.92578125 259.266601562 c 0
 582.519621029 259.266601562 583.42578125 258.360454687 583.42578125 257.766601562 c 0
 583.42578125 128.852547764 478.915440102 24.3427734375 349.998046875 24.3427734375 c 0
 221.083774771 24.3427734375 116.57421875 128.853484576 116.57421875 257.766601562 c 2
 116.57421875 463.918945312 l 2
 116.57421875 464.512797624 117.48037812 465.418945312 118.07421875 465.418945312 c 0
118.07421875 565.5 m 0
 117.480378972 565.5 116.57421875 566.406146876 116.57421875 567 c 0
 116.57421875 695.919049875 221.084401079 800.423828125 349.998046875 800.423828125 c 0
 478.916169723 800.423828125 583.42578125 695.91756728 583.42578125 567 c 2
 583.42578125 360.84765625 l 2
 583.42578125 360.253803938 582.519621879 359.34765625 581.92578125 359.34765625 c 0
 581.332755584 359.34765625 580.42578125 360.254629794 580.42578125 360.84765625 c 2
 580.42578125 567 l 2
 580.42578125 694.26183332 477.261057563 797.423828125 349.998046875 797.423828125 c 0
 222.740953015 797.423828125 119.57421875 694.263186569 119.57421875 567 c 0
 119.57421875 566.406974334 118.667245206 565.5 118.07421875 565.5 c 0
EndSplineSet
EndChar

StartChar: multiply
Encoding: 215 215 215
Width: 700
VWidth: 0
Flags: HW
LayerCount: 2
Fore
SplineSet
221.383232659 187.384372181 m 0
 220.964054018 187.803550821 220.964171503 189.087191664 221.383270152 189.506290313 c 2
 476.491712577 444.613756174 l 2
 476.911073229 445.033116826 478.193418395 445.03311739 478.612779611 444.613756173 c 0
 479.032140263 444.194395522 479.03217737 442.912086897 478.612735625 442.492645152 c 2
 223.50620931 187.385142242 l 2
 223.085230218 186.964194348 221.802264414 186.965340425 221.383232659 187.384372181 c 0
478.609534153 187.384951494 m 0
 478.189541398 186.964958738 476.907812163 186.965261428 476.487806327 187.385267264 c 2
 221.387220389 442.4858532 l 2
 220.968023352 442.905050237 220.96835628 444.18802518 221.386368816 444.606068696 c 0
 221.807347907 445.027016589 223.090248305 445.025935918 223.509263986 444.606920236 c 2
 478.609849923 189.506334299 l 2
 479.029210576 189.086973647 479.028957806 187.804375146 478.609534153 187.384951494 c 0
EndSplineSet
EndChar

StartChar: Oslash
Encoding: 216 216 216
Width: 700
VWidth: 0
Flags: HW
LayerCount: 2
Fore
SplineSet
117.302417183 32.5754011064 m 0
 116.790578771 32.8825416896 116.482725379 34.1264980444 116.787403274 34.6342531585 c 2
 580.639403309 807.714409509 l 2
 580.9450634 808.223801483 582.191442999 808.533940698 582.697582802 808.230263003 c 0
 583.207247294 807.924458078 583.518056056 806.680530527 583.212606045 806.171426435 c 2
 119.358943679 33.0894760125 l 2
 119.054722097 32.5823677351 117.812700128 32.2692562875 117.302417183 32.5754011064 c 0
118.07421875 465.418945312 m 0
 118.667244417 465.418945312 119.57421875 464.511971769 119.57421875 463.918945312 c 2
 119.57421875 257.766601562 l 2
 119.57421875 130.508938384 222.738883151 27.3427734375 349.998046875 27.3427734375 c 0
 477.259260997 27.3427734375 580.42578125 130.508148774 580.42578125 257.766601562 c 0
 580.42578125 258.359627229 581.332754793 259.266601562 581.92578125 259.266601562 c 0
 582.519621029 259.266601562 583.42578125 258.360454687 583.42578125 257.766601562 c 0
 583.42578125 128.852547764 478.915440102 24.3427734375 349.998046875 24.3427734375 c 0
 221.083774771 24.3427734375 116.57421875 128.853484576 116.57421875 257.766601562 c 2
 116.57421875 463.918945312 l 2
 116.57421875 464.512797624 117.48037812 465.418945312 118.07421875 465.418945312 c 0
118.07421875 565.5 m 0
 117.480378972 565.5 116.57421875 566.406146876 116.57421875 567 c 0
 116.57421875 695.919049875 221.084401079 800.423828125 349.998046875 800.423828125 c 0
 478.916169723 800.423828125 583.42578125 695.91756728 583.42578125 567 c 2
 583.42578125 360.84765625 l 2
 583.42578125 360.253803938 582.519621879 359.34765625 581.92578125 359.34765625 c 0
 581.332755584 359.34765625 580.42578125 360.254629794 580.42578125 360.84765625 c 2
 580.42578125 567 l 2
 580.42578125 694.26183332 477.261057563 797.423828125 349.998046875 797.423828125 c 0
 222.740953015 797.423828125 119.57421875 694.263186569 119.57421875 567 c 0
 119.57421875 566.406974334 118.667245206 565.5 118.07421875 565.5 c 0
EndSplineSet
EndChar

